<?xml version="1.0" encoding="utf-8" standalone="no"?>
<!DOCTYPE svg PUBLIC "-//W3C//DTD SVG 1.1//EN"
  "http://www.w3.org/Graphics/SVG/1.1/DTD/svg11.dtd">
<svg xmlns:xlink="http://www.w3.org/1999/xlink" width="368.64pt" height="276.48pt" viewBox="0 0 368.64 276.48" xmlns="http://www.w3.org/2000/svg" version="1.1">
 <metadata>
  <rdf:RDF xmlns:dc="http://purl.org/dc/elements/1.1/" xmlns:cc="http://creativecommons.org/ns#" xmlns:rdf="http://www.w3.org/1999/02/22-rdf-syntax-ns#">
   <cc:Work>
    <dc:type rdf:resource="http://purl.org/dc/dcmitype/StillImage"/>
    <dc:date>2025-07-11T00:17:52.562968</dc:date>
    <dc:format>image/svg+xml</dc:format>
    <dc:creator>
     <cc:Agent>
      <dc:title>Matplotlib v3.10.0, https://matplotlib.org/</dc:title>
     </cc:Agent>
    </dc:creator>
   </cc:Work>
  </rdf:RDF>
 </metadata>
 <defs>
  <style type="text/css">*{stroke-linejoin: round; stroke-linecap: butt}</style>
 </defs>
 <g id="figure_1">
  <g id="patch_1">
   <path d="M 0 276.48 
L 368.64 276.48 
L 368.64 0 
L 0 0 
z
" style="fill: #ffffff"/>
  </g>
  <g id="axes_1">
   <g id="patch_2">
    <path d="M 38.14 241.04 
L 366.427864 241.04 
L 366.427864 1.4 
L 38.14 1.4 
z
" style="fill: #ffffff"/>
   </g>
   <g id="matplotlib.axis_1">
    <g id="xtick_1">
     <g id="line2d_1">
      <defs>
       <path id="m7f5c514189" d="M 0 0 
L 0 3.5 
" style="stroke: #333333; stroke-width: 0.8"/>
      </defs>
      <g>
       <use xlink:href="#m7f5c514189" x="38.572721" y="241.04" style="fill: #333333; stroke: #333333; stroke-width: 0.8"/>
      </g>
     </g>
     <g id="text_1">
      <!-- 0.00 -->
      <g style="fill: #333333" transform="translate(28.155534 255.39) scale(0.1 -0.1)">
       <defs>
        <path id="Manrope-Regular-30" d="M 1952 -96 
Q 1526 -96 1185 102 
Q 845 301 646 641 
Q 448 982 448 1408 
L 448 3200 
Q 448 3626 646 3966 
Q 845 4307 1185 4505 
Q 1526 4704 1952 4704 
Q 2378 4704 2718 4505 
Q 3059 4307 3257 3966 
Q 3456 3626 3456 3200 
L 3456 1408 
Q 3456 982 3257 641 
Q 3059 301 2718 102 
Q 2378 -96 1952 -96 
z
M 1952 358 
Q 2237 358 2470 497 
Q 2704 637 2841 870 
Q 2979 1104 2979 1386 
L 2979 3222 
Q 2979 3507 2841 3740 
Q 2704 3974 2470 4113 
Q 2237 4253 1952 4253 
Q 1667 4253 1433 4113 
Q 1200 3974 1062 3740 
Q 925 3507 925 3222 
L 925 1386 
Q 925 1104 1062 870 
Q 1200 637 1433 497 
Q 1667 358 1952 358 
z
" transform="scale(0.015625)"/>
        <path id="Manrope-Regular-2e" d="M 538 0 
L 538 547 
L 1085 547 
L 1085 0 
L 538 0 
z
" transform="scale(0.015625)"/>
       </defs>
       <use xlink:href="#Manrope-Regular-30"/>
       <use xlink:href="#Manrope-Regular-2e" transform="translate(61.000015 0)"/>
       <use xlink:href="#Manrope-Regular-30" transform="translate(86.350021 0)"/>
       <use xlink:href="#Manrope-Regular-30" transform="translate(147.350037 0)"/>
      </g>
     </g>
    </g>
    <g id="xtick_2">
     <g id="line2d_2">
      <g>
       <use xlink:href="#m7f5c514189" x="84.124191" y="241.04" style="fill: #333333; stroke: #333333; stroke-width: 0.8"/>
      </g>
     </g>
     <g id="text_2">
      <!-- 0.25 -->
      <g style="fill: #333333" transform="translate(74.069504 255.39) scale(0.1 -0.1)">
       <defs>
        <path id="Manrope-Regular-32" d="M 320 3 
L 323 432 
L 2406 2314 
Q 2675 2557 2763 2776 
Q 2851 2995 2851 3235 
Q 2851 3520 2716 3750 
Q 2582 3981 2355 4117 
Q 2128 4253 1846 4253 
Q 1552 4253 1321 4112 
Q 1091 3971 958 3740 
Q 826 3510 829 3238 
L 349 3238 
Q 349 3658 547 3990 
Q 746 4323 1085 4513 
Q 1424 4704 1853 4704 
Q 2272 4704 2606 4507 
Q 2941 4310 3134 3976 
Q 3328 3642 3328 3232 
Q 3328 2944 3259 2725 
Q 3190 2506 3044 2318 
Q 2899 2131 2675 1933 
L 826 262 
L 752 454 
L 3328 454 
L 3328 3 
L 320 3 
z
" transform="scale(0.015625)"/>
        <path id="Manrope-Regular-35" d="M 1808 -96 
Q 1450 -96 1146 51 
Q 842 198 627 457 
Q 413 717 320 1053 
L 771 1174 
Q 832 925 992 744 
Q 1152 563 1368 464 
Q 1584 365 1821 365 
Q 2128 365 2373 513 
Q 2618 662 2762 908 
Q 2906 1155 2906 1450 
Q 2906 1754 2755 1998 
Q 2605 2243 2358 2387 
Q 2112 2531 1821 2531 
Q 1494 2531 1257 2388 
Q 1021 2246 880 2032 
L 451 2211 
L 592 4608 
L 3053 4608 
L 3053 4157 
L 800 4157 
L 1034 4378 
L 909 2333 
L 790 2490 
Q 989 2717 1270 2845 
Q 1552 2973 1862 2973 
Q 2288 2973 2630 2769 
Q 2973 2566 3174 2220 
Q 3376 1875 3376 1450 
Q 3376 1027 3161 676 
Q 2947 326 2592 115 
Q 2237 -96 1808 -96 
z
" transform="scale(0.015625)"/>
       </defs>
       <use xlink:href="#Manrope-Regular-30"/>
       <use xlink:href="#Manrope-Regular-2e" transform="translate(61.000015 0)"/>
       <use xlink:href="#Manrope-Regular-32" transform="translate(86.350021 0)"/>
       <use xlink:href="#Manrope-Regular-35" transform="translate(143.350021 0)"/>
      </g>
     </g>
    </g>
    <g id="xtick_3">
     <g id="line2d_3">
      <g>
       <use xlink:href="#m7f5c514189" x="129.675662" y="241.04" style="fill: #333333; stroke: #333333; stroke-width: 0.8"/>
      </g>
     </g>
     <g id="text_3">
      <!-- 0.50 -->
      <g style="fill: #333333" transform="translate(119.420974 255.39) scale(0.1 -0.1)">
       <use xlink:href="#Manrope-Regular-30"/>
       <use xlink:href="#Manrope-Regular-2e" transform="translate(61.000015 0)"/>
       <use xlink:href="#Manrope-Regular-35" transform="translate(86.350021 0)"/>
       <use xlink:href="#Manrope-Regular-30" transform="translate(144.100021 0)"/>
      </g>
     </g>
    </g>
    <g id="xtick_4">
     <g id="line2d_4">
      <g>
       <use xlink:href="#m7f5c514189" x="175.227132" y="241.04" style="fill: #333333; stroke: #333333; stroke-width: 0.8"/>
      </g>
     </g>
     <g id="text_4">
      <!-- 0.75 -->
      <g style="fill: #333333" transform="translate(165.512288 255.39) scale(0.1 -0.1)">
       <defs>
        <path id="Manrope-Regular-37" d="M 694 0 
L 2390 4150 
L 256 4150 
L 256 4608 
L 2893 4608 
L 2893 4150 
L 1200 0 
L 694 0 
z
" transform="scale(0.015625)"/>
       </defs>
       <use xlink:href="#Manrope-Regular-30"/>
       <use xlink:href="#Manrope-Regular-2e" transform="translate(61.000015 0)"/>
       <use xlink:href="#Manrope-Regular-37" transform="translate(86.350021 0)"/>
       <use xlink:href="#Manrope-Regular-35" transform="translate(136.550034 0)"/>
      </g>
     </g>
    </g>
    <g id="xtick_5">
     <g id="line2d_5">
      <g>
       <use xlink:href="#m7f5c514189" x="220.778603" y="241.04" style="fill: #333333; stroke: #333333; stroke-width: 0.8"/>
      </g>
     </g>
     <g id="text_5">
      <!-- 1.00 -->
      <g style="fill: #333333" transform="translate(211.461415 255.39) scale(0.1 -0.1)">
       <defs>
        <path id="Manrope-Regular-31" d="M 1251 0 
L 1251 4083 
L 384 3562 
L 384 4090 
L 1251 4608 
L 1728 4608 
L 1728 0 
L 1251 0 
z
" transform="scale(0.015625)"/>
       </defs>
       <use xlink:href="#Manrope-Regular-31"/>
       <use xlink:href="#Manrope-Regular-2e" transform="translate(39 0)"/>
       <use xlink:href="#Manrope-Regular-30" transform="translate(64.350006 0)"/>
       <use xlink:href="#Manrope-Regular-30" transform="translate(125.350021 0)"/>
      </g>
     </g>
    </g>
    <g id="xtick_6">
     <g id="line2d_6">
      <g>
       <use xlink:href="#m7f5c514189" x="266.330073" y="241.04" style="fill: #333333; stroke: #333333; stroke-width: 0.8"/>
      </g>
     </g>
     <g id="text_6">
      <!-- 1.25 -->
      <g style="fill: #333333" transform="translate(257.375385 255.39) scale(0.1 -0.1)">
       <use xlink:href="#Manrope-Regular-31"/>
       <use xlink:href="#Manrope-Regular-2e" transform="translate(39 0)"/>
       <use xlink:href="#Manrope-Regular-32" transform="translate(64.350006 0)"/>
       <use xlink:href="#Manrope-Regular-35" transform="translate(121.350006 0)"/>
      </g>
     </g>
    </g>
    <g id="xtick_7">
     <g id="line2d_7">
      <g>
       <use xlink:href="#m7f5c514189" x="311.881543" y="241.04" style="fill: #333333; stroke: #333333; stroke-width: 0.8"/>
      </g>
     </g>
     <g id="text_7">
      <!-- 1.50 -->
      <g style="fill: #333333" transform="translate(302.726856 255.39) scale(0.1 -0.1)">
       <use xlink:href="#Manrope-Regular-31"/>
       <use xlink:href="#Manrope-Regular-2e" transform="translate(39 0)"/>
       <use xlink:href="#Manrope-Regular-35" transform="translate(64.350006 0)"/>
       <use xlink:href="#Manrope-Regular-30" transform="translate(122.100006 0)"/>
      </g>
     </g>
    </g>
    <g id="xtick_8">
     <g id="line2d_8">
      <g>
       <use xlink:href="#m7f5c514189" x="357.433014" y="241.04" style="fill: #333333; stroke: #333333; stroke-width: 0.8"/>
      </g>
     </g>
     <g id="text_8">
      <!-- 1.75 -->
      <g style="fill: #333333" transform="translate(348.81817 255.39) scale(0.1 -0.1)">
       <use xlink:href="#Manrope-Regular-31"/>
       <use xlink:href="#Manrope-Regular-2e" transform="translate(39 0)"/>
       <use xlink:href="#Manrope-Regular-37" transform="translate(64.350006 0)"/>
       <use xlink:href="#Manrope-Regular-35" transform="translate(114.550018 0)"/>
      </g>
     </g>
    </g>
    <g id="text_9">
     <!-- Train FLOPs -->
     <g style="fill: #333333" transform="translate(164.439088 272.08) scale(0.14 -0.14)">
      <defs>
       <path id="Manrope-Regular-54" d="M 1674 0 
L 1674 4157 
L 64 4157 
L 64 4608 
L 3754 4608 
L 3754 4157 
L 2144 4157 
L 2144 0 
L 1674 0 
z
" transform="scale(0.015625)"/>
       <path id="Manrope-Regular-72" d="M 448 0 
L 448 3456 
L 870 3456 
L 870 2624 
L 787 2733 
Q 845 2886 937 3016 
Q 1030 3146 1139 3229 
Q 1274 3347 1453 3409 
Q 1632 3472 1814 3483 
Q 1997 3494 2147 3456 
L 2147 3014 
Q 1958 3062 1734 3036 
Q 1510 3011 1322 2858 
Q 1149 2723 1062 2536 
Q 976 2349 947 2139 
Q 918 1930 918 1725 
L 918 0 
L 448 0 
z
" transform="scale(0.015625)"/>
       <path id="Manrope-Regular-61" d="M 1437 -96 
Q 1046 -96 782 45 
Q 518 186 387 419 
Q 256 653 256 928 
Q 256 1210 369 1410 
Q 483 1610 680 1738 
Q 877 1866 1136 1933 
Q 1398 1997 1716 2046 
Q 2035 2096 2340 2133 
Q 2646 2170 2877 2205 
L 2710 2102 
Q 2720 2614 2512 2860 
Q 2304 3107 1789 3107 
Q 1434 3107 1189 2947 
Q 944 2787 845 2442 
L 387 2576 
Q 506 3040 864 3296 
Q 1222 3552 1795 3552 
Q 2269 3552 2600 3374 
Q 2931 3197 3069 2861 
Q 3133 2710 3152 2524 
Q 3171 2339 3171 2147 
L 3171 0 
L 2752 0 
L 2752 867 
L 2874 816 
Q 2698 371 2326 137 
Q 1955 -96 1437 -96 
z
M 1491 310 
Q 1821 310 2067 428 
Q 2314 547 2464 753 
Q 2614 960 2659 1219 
Q 2698 1386 2701 1586 
Q 2704 1786 2704 1885 
L 2883 1792 
Q 2643 1760 2363 1728 
Q 2083 1696 1812 1654 
Q 1542 1613 1325 1555 
Q 1178 1514 1040 1438 
Q 902 1363 814 1238 
Q 726 1114 726 928 
Q 726 778 801 637 
Q 877 496 1045 403 
Q 1213 310 1491 310 
z
" transform="scale(0.015625)"/>
       <path id="Manrope-Regular-69" d="M 512 4112 
L 512 4640 
L 982 4640 
L 982 4112 
L 512 4112 
z
M 512 0 
L 512 3456 
L 982 3456 
L 982 0 
L 512 0 
z
" transform="scale(0.015625)"/>
       <path id="Manrope-Regular-6e" d="M 2944 0 
L 2944 1763 
Q 2944 2051 2889 2292 
Q 2835 2534 2715 2715 
Q 2595 2896 2404 2995 
Q 2214 3094 1942 3094 
Q 1693 3094 1502 3008 
Q 1312 2922 1182 2760 
Q 1053 2598 985 2368 
Q 918 2138 918 1843 
L 586 1917 
Q 586 2448 771 2809 
Q 957 3171 1283 3356 
Q 1610 3542 2032 3542 
Q 2342 3542 2574 3446 
Q 2806 3350 2968 3187 
Q 3130 3024 3229 2814 
Q 3328 2605 3373 2369 
Q 3418 2134 3418 1901 
L 3418 0 
L 2944 0 
z
M 445 0 
L 445 3456 
L 870 3456 
L 870 2605 
L 918 2605 
L 918 0 
L 445 0 
z
" transform="scale(0.015625)"/>
       <path id="Manrope-Regular-20" transform="scale(0.015625)"/>
       <path id="Manrope-Regular-46" d="M 448 0 
L 448 4608 
L 3094 4608 
L 3094 4138 
L 918 4138 
L 918 2538 
L 2710 2538 
L 2710 2070 
L 918 2070 
L 918 0 
L 448 0 
z
" transform="scale(0.015625)"/>
       <path id="Manrope-Regular-4c" d="M 512 0 
L 512 4608 
L 982 4608 
L 982 451 
L 3171 451 
L 3171 0 
L 512 0 
z
" transform="scale(0.015625)"/>
       <path id="Manrope-Regular-4f" d="M 2314 -96 
Q 1626 -96 1152 209 
Q 678 515 435 1056 
Q 192 1597 192 2304 
Q 192 3011 435 3552 
Q 678 4093 1152 4398 
Q 1626 4704 2314 4704 
Q 3005 4704 3477 4398 
Q 3949 4093 4193 3552 
Q 4438 3011 4438 2304 
Q 4438 1597 4193 1056 
Q 3949 515 3477 209 
Q 3005 -96 2314 -96 
z
M 2314 355 
Q 2854 355 3216 601 
Q 3578 848 3758 1288 
Q 3939 1728 3939 2304 
Q 3939 2880 3758 3318 
Q 3578 3757 3216 4003 
Q 2854 4250 2314 4253 
Q 1773 4253 1414 4006 
Q 1056 3760 875 3320 
Q 694 2880 691 2304 
Q 688 1728 869 1291 
Q 1050 854 1411 606 
Q 1773 358 2314 355 
z
" transform="scale(0.015625)"/>
       <path id="Manrope-Regular-50" d="M 448 0 
L 448 4608 
L 2227 4608 
Q 2294 4608 2379 4603 
Q 2464 4598 2550 4582 
Q 2912 4528 3163 4331 
Q 3414 4134 3544 3836 
Q 3674 3539 3674 3178 
Q 3674 2819 3542 2521 
Q 3411 2224 3160 2027 
Q 2909 1830 2550 1776 
Q 2464 1763 2379 1756 
Q 2294 1750 2227 1750 
L 918 1750 
L 918 0 
L 448 0 
z
M 918 2198 
L 2214 2198 
Q 2272 2198 2349 2204 
Q 2426 2211 2499 2227 
Q 2736 2278 2888 2422 
Q 3040 2566 3115 2764 
Q 3190 2963 3190 3178 
Q 3190 3392 3115 3592 
Q 3040 3792 2888 3936 
Q 2736 4080 2499 4131 
Q 2426 4147 2349 4152 
Q 2272 4157 2214 4157 
L 918 4157 
L 918 2198 
z
" transform="scale(0.015625)"/>
       <path id="Manrope-Regular-73" d="M 1738 -93 
Q 1130 -93 738 169 
Q 346 432 256 899 
L 736 979 
Q 813 685 1086 510 
Q 1360 336 1763 336 
Q 2157 336 2384 501 
Q 2611 666 2611 950 
Q 2611 1110 2539 1211 
Q 2467 1312 2246 1398 
Q 2026 1485 1587 1603 
Q 1117 1731 851 1859 
Q 586 1987 474 2155 
Q 362 2323 362 2566 
Q 362 2861 528 3083 
Q 694 3306 988 3429 
Q 1283 3552 1674 3552 
Q 2064 3552 2373 3425 
Q 2682 3299 2870 3072 
Q 3059 2845 3094 2544 
L 2614 2458 
Q 2566 2762 2312 2939 
Q 2058 3117 1667 3123 
Q 1299 3133 1068 2984 
Q 838 2835 838 2589 
Q 838 2451 921 2353 
Q 1005 2256 1224 2169 
Q 1443 2083 1850 1981 
Q 2326 1859 2598 1724 
Q 2870 1590 2985 1408 
Q 3101 1226 3101 957 
Q 3101 467 2737 187 
Q 2374 -93 1738 -93 
z
" transform="scale(0.015625)"/>
      </defs>
      <use xlink:href="#Manrope-Regular-54"/>
      <use xlink:href="#Manrope-Regular-72" transform="translate(59.650009 0)"/>
      <use xlink:href="#Manrope-Regular-61" transform="translate(95.700012 0)"/>
      <use xlink:href="#Manrope-Regular-69" transform="translate(151.250015 0)"/>
      <use xlink:href="#Manrope-Regular-6e" transform="translate(174.600021 0)"/>
      <use xlink:href="#Manrope-Regular-20" transform="translate(234.000031 0)"/>
      <use xlink:href="#Manrope-Regular-46" transform="translate(254.000031 0)"/>
      <use xlink:href="#Manrope-Regular-4c" transform="translate(304.350037 0)"/>
      <use xlink:href="#Manrope-Regular-4f" transform="translate(355.40004 0)"/>
      <use xlink:href="#Manrope-Regular-50" transform="translate(427.750046 0)"/>
      <use xlink:href="#Manrope-Regular-73" transform="translate(488.150055 0)"/>
     </g>
    </g>
    <g id="text_10">
     <!-- 1e22 -->
     <g style="fill: #333333" transform="translate(345.282552 268.14) scale(0.1 -0.1)">
      <defs>
       <path id="Manrope-Regular-65" d="M 1910 -96 
Q 1405 -96 1035 128 
Q 666 352 461 758 
Q 256 1165 256 1712 
Q 256 2278 457 2691 
Q 659 3104 1025 3328 
Q 1392 3552 1891 3552 
Q 2403 3552 2764 3317 
Q 3126 3082 3312 2643 
Q 3498 2205 3482 1597 
L 3002 1597 
L 3002 1763 
Q 2989 2435 2712 2777 
Q 2435 3120 1904 3120 
Q 1347 3120 1051 2758 
Q 755 2397 755 1728 
Q 755 1075 1051 715 
Q 1347 355 1891 355 
Q 2262 355 2539 526 
Q 2816 698 2976 1021 
L 3414 851 
Q 3210 400 2811 152 
Q 2413 -96 1910 -96 
z
M 589 1597 
L 589 1990 
L 3229 1990 
L 3229 1597 
L 589 1597 
z
" transform="scale(0.015625)"/>
      </defs>
      <use xlink:href="#Manrope-Regular-31"/>
      <use xlink:href="#Manrope-Regular-65" transform="translate(39 0)"/>
      <use xlink:href="#Manrope-Regular-32" transform="translate(97.450012 0)"/>
      <use xlink:href="#Manrope-Regular-32" transform="translate(154.450012 0)"/>
     </g>
    </g>
   </g>
   <g id="matplotlib.axis_2">
    <g id="ytick_1">
     <g id="line2d_9">
      <defs>
       <path id="mb0194334f8" d="M 0 0 
L -3.5 0 
" style="stroke: #333333; stroke-width: 0.8"/>
      </defs>
      <g>
       <use xlink:href="#mb0194334f8" x="38.14" y="218.292319" style="fill: #333333; stroke: #333333; stroke-width: 0.8"/>
      </g>
     </g>
     <g id="text_11">
      <!-- 25 -->
      <g style="fill: #333333" transform="translate(19.665 221.967319) scale(0.1 -0.1)">
       <use xlink:href="#Manrope-Regular-32"/>
       <use xlink:href="#Manrope-Regular-35" transform="translate(57 0)"/>
      </g>
     </g>
    </g>
    <g id="ytick_2">
     <g id="line2d_10">
      <g>
       <use xlink:href="#mb0194334f8" x="38.14" y="168.03115" style="fill: #333333; stroke: #333333; stroke-width: 0.8"/>
      </g>
     </g>
     <g id="text_12">
      <!-- 30 -->
      <g style="fill: #333333" transform="translate(19.510312 171.70615) scale(0.1 -0.1)">
       <defs>
        <path id="Manrope-Regular-33" d="M 1686 -93 
Q 1344 -93 1056 28 
Q 768 150 560 376 
Q 352 602 256 915 
L 704 1050 
Q 819 707 1083 531 
Q 1347 355 1680 362 
Q 1987 368 2209 499 
Q 2432 630 2550 864 
Q 2669 1098 2669 1405 
Q 2669 1875 2395 2161 
Q 2122 2448 1674 2448 
Q 1549 2448 1411 2414 
Q 1274 2381 1155 2320 
L 918 2694 
L 2710 4349 
L 2787 4157 
L 438 4157 
L 438 4608 
L 3101 4608 
L 3101 4150 
L 1539 2659 
L 1533 2845 
Q 2013 2906 2377 2736 
Q 2742 2566 2948 2219 
Q 3155 1872 3155 1405 
Q 3155 963 2964 625 
Q 2774 288 2441 97 
Q 2109 -93 1686 -93 
z
" transform="scale(0.015625)"/>
       </defs>
       <use xlink:href="#Manrope-Regular-33"/>
       <use xlink:href="#Manrope-Regular-30" transform="translate(55.300003 0)"/>
      </g>
     </g>
    </g>
    <g id="ytick_3">
     <g id="line2d_11">
      <g>
       <use xlink:href="#mb0194334f8" x="38.14" y="117.769981" style="fill: #333333; stroke: #333333; stroke-width: 0.8"/>
      </g>
     </g>
     <g id="text_13">
      <!-- 35 -->
      <g style="fill: #333333" transform="translate(19.835313 121.444981) scale(0.1 -0.1)">
       <use xlink:href="#Manrope-Regular-33"/>
       <use xlink:href="#Manrope-Regular-35" transform="translate(55.300003 0)"/>
      </g>
     </g>
    </g>
    <g id="ytick_4">
     <g id="line2d_12">
      <g>
       <use xlink:href="#mb0194334f8" x="38.14" y="67.508812" style="fill: #333333; stroke: #333333; stroke-width: 0.8"/>
      </g>
     </g>
     <g id="text_14">
      <!-- 40 -->
      <g style="fill: #333333" transform="translate(19.144687 71.183812) scale(0.1 -0.1)">
       <defs>
        <path id="Manrope-Regular-34" d="M 2477 0 
L 2477 893 
L 320 893 
L 320 1341 
L 1862 4608 
L 2390 4608 
L 848 1341 
L 2477 1341 
L 2477 2685 
L 2950 2685 
L 2950 1341 
L 3453 1341 
L 3453 893 
L 2950 893 
L 2950 0 
L 2477 0 
z
" transform="scale(0.015625)"/>
       </defs>
       <use xlink:href="#Manrope-Regular-34"/>
       <use xlink:href="#Manrope-Regular-30" transform="translate(58.950012 0)"/>
      </g>
     </g>
    </g>
    <g id="ytick_5">
     <g id="line2d_13">
      <g>
       <use xlink:href="#mb0194334f8" x="38.14" y="17.247643" style="fill: #333333; stroke: #333333; stroke-width: 0.8"/>
      </g>
     </g>
     <g id="text_15">
      <!-- 45 -->
      <g style="fill: #333333" transform="translate(19.469687 20.922643) scale(0.1 -0.1)">
       <use xlink:href="#Manrope-Regular-34"/>
       <use xlink:href="#Manrope-Regular-35" transform="translate(58.950012 0)"/>
      </g>
     </g>
    </g>
    <g id="text_16">
     <!-- Avg Task Performance -->
     <g style="fill: #333333" transform="translate(11.574687 193.3025) rotate(-90) scale(0.14 -0.14)">
      <defs>
       <path id="Manrope-Regular-41" d="M 128 0 
L 1715 4608 
L 2339 4608 
L 3926 0 
L 3437 0 
L 1930 4346 
L 2115 4346 
L 618 0 
L 128 0 
z
M 835 1117 
L 835 1558 
L 3216 1558 
L 3216 1117 
L 835 1117 
z
" transform="scale(0.015625)"/>
       <path id="Manrope-Regular-76" d="M 1382 0 
L 128 3456 
L 605 3456 
L 1626 614 
L 2640 3456 
L 3123 3456 
L 1869 0 
L 1382 0 
z
" transform="scale(0.015625)"/>
       <path id="Manrope-Regular-67" d="M 1821 -1632 
Q 1555 -1632 1297 -1553 
Q 1040 -1475 822 -1307 
Q 605 -1139 458 -870 
L 883 -634 
Q 1027 -922 1288 -1048 
Q 1549 -1174 1821 -1174 
Q 2195 -1174 2427 -1035 
Q 2659 -896 2764 -624 
Q 2870 -352 2867 54 
L 2867 976 
L 2922 976 
L 2922 3456 
L 3341 3456 
L 3341 48 
Q 3341 -99 3333 -235 
Q 3325 -371 3302 -502 
Q 3242 -890 3051 -1139 
Q 2861 -1389 2552 -1510 
Q 2243 -1632 1821 -1632 
z
M 1789 -96 
Q 1306 -96 963 145 
Q 621 387 438 800 
Q 256 1213 256 1731 
Q 256 2246 437 2659 
Q 618 3072 957 3312 
Q 1296 3552 1770 3552 
Q 2256 3552 2589 3315 
Q 2922 3078 3093 2667 
Q 3264 2256 3264 1731 
Q 3264 1216 3094 801 
Q 2925 387 2595 145 
Q 2266 -96 1789 -96 
z
M 1837 342 
Q 2205 342 2445 521 
Q 2685 701 2803 1016 
Q 2922 1331 2922 1731 
Q 2922 2138 2803 2450 
Q 2685 2762 2446 2938 
Q 2208 3114 1846 3114 
Q 1475 3114 1232 2931 
Q 989 2749 872 2435 
Q 755 2122 755 1731 
Q 755 1338 875 1022 
Q 995 707 1235 524 
Q 1475 342 1837 342 
z
" transform="scale(0.015625)"/>
       <path id="Manrope-Regular-6b" d="M 445 0 
L 448 4608 
L 922 4608 
L 922 1792 
L 2464 3456 
L 3091 3456 
L 1472 1728 
L 3302 0 
L 2618 0 
L 922 1664 
L 922 0 
L 445 0 
z
" transform="scale(0.015625)"/>
       <path id="Manrope-Regular-66" d="M 790 0 
L 790 3712 
Q 790 3846 804 3977 
Q 819 4109 864 4229 
Q 909 4349 1005 4451 
Q 1110 4566 1235 4619 
Q 1360 4672 1496 4688 
Q 1632 4704 1763 4704 
L 2205 4704 
L 2205 4307 
L 1795 4307 
Q 1526 4307 1393 4176 
Q 1261 4045 1261 3763 
L 1261 0 
L 790 0 
z
M 192 3053 
L 192 3456 
L 2205 3456 
L 2205 3053 
L 192 3053 
z
" transform="scale(0.015625)"/>
       <path id="Manrope-Regular-6f" d="M 1891 -96 
Q 1376 -96 1011 137 
Q 646 371 451 784 
Q 256 1197 256 1731 
Q 256 2275 454 2684 
Q 653 3094 1019 3323 
Q 1386 3552 1891 3552 
Q 2410 3552 2776 3320 
Q 3142 3088 3336 2677 
Q 3530 2266 3530 1731 
Q 3530 1187 3334 776 
Q 3139 365 2771 134 
Q 2403 -96 1891 -96 
z
M 1891 355 
Q 2467 355 2748 737 
Q 3030 1120 3030 1731 
Q 3030 2358 2747 2729 
Q 2464 3101 1891 3101 
Q 1504 3101 1253 2926 
Q 1002 2752 878 2443 
Q 755 2134 755 1731 
Q 755 1107 1043 731 
Q 1331 355 1891 355 
z
" transform="scale(0.015625)"/>
       <path id="Manrope-Regular-6d" d="M 4570 0 
L 4573 2269 
Q 4573 2669 4350 2897 
Q 4128 3126 3786 3126 
Q 3590 3126 3404 3036 
Q 3219 2947 3099 2748 
Q 2979 2550 2979 2230 
L 2701 2310 
Q 2691 2682 2846 2960 
Q 3002 3238 3275 3393 
Q 3549 3549 3894 3549 
Q 4416 3549 4729 3227 
Q 5043 2906 5043 2358 
L 5040 0 
L 4570 0 
z
M 445 0 
L 445 3456 
L 867 3456 
L 867 2605 
L 918 2605 
L 918 0 
L 445 0 
z
M 2512 0 
L 2515 2237 
Q 2515 2650 2296 2888 
Q 2077 3126 1718 3126 
Q 1360 3126 1139 2881 
Q 918 2637 918 2230 
L 637 2384 
Q 637 2717 793 2981 
Q 950 3245 1222 3397 
Q 1494 3549 1840 3549 
Q 2170 3549 2427 3408 
Q 2685 3267 2832 2998 
Q 2979 2730 2979 2346 
L 2976 0 
L 2512 0 
z
" transform="scale(0.015625)"/>
       <path id="Manrope-Regular-63" d="M 1882 -96 
Q 1360 -96 998 137 
Q 637 371 449 782 
Q 262 1194 256 1728 
Q 262 2272 454 2683 
Q 646 3094 1008 3323 
Q 1370 3552 1885 3552 
Q 2410 3552 2798 3296 
Q 3187 3040 3331 2595 
L 2870 2448 
Q 2749 2758 2485 2929 
Q 2221 3101 1882 3101 
Q 1501 3101 1251 2926 
Q 1002 2752 880 2441 
Q 758 2131 755 1728 
Q 762 1107 1043 731 
Q 1325 355 1882 355 
Q 2234 355 2482 516 
Q 2730 678 2858 989 
L 3331 848 
Q 3139 387 2768 145 
Q 2397 -96 1882 -96 
z
" transform="scale(0.015625)"/>
      </defs>
      <use xlink:href="#Manrope-Regular-41"/>
      <use xlink:href="#Manrope-Regular-76" transform="translate(63.350006 0)"/>
      <use xlink:href="#Manrope-Regular-67" transform="translate(114.150009 0)"/>
      <use xlink:href="#Manrope-Regular-20" transform="translate(173.350021 0)"/>
      <use xlink:href="#Manrope-Regular-54" transform="translate(193.350021 0)"/>
      <use xlink:href="#Manrope-Regular-61" transform="translate(253.000031 0)"/>
      <use xlink:href="#Manrope-Regular-73" transform="translate(308.550034 0)"/>
      <use xlink:href="#Manrope-Regular-6b" transform="translate(361.050034 0)"/>
      <use xlink:href="#Manrope-Regular-20" transform="translate(410.65004 0)"/>
      <use xlink:href="#Manrope-Regular-50" transform="translate(430.65004 0)"/>
      <use xlink:href="#Manrope-Regular-65" transform="translate(491.050049 0)"/>
      <use xlink:href="#Manrope-Regular-72" transform="translate(549.500061 0)"/>
      <use xlink:href="#Manrope-Regular-66" transform="translate(585.550064 0)"/>
      <use xlink:href="#Manrope-Regular-6f" transform="translate(621.000061 0)"/>
      <use xlink:href="#Manrope-Regular-72" transform="translate(680.15007 0)"/>
      <use xlink:href="#Manrope-Regular-6d" transform="translate(716.200073 0)"/>
      <use xlink:href="#Manrope-Regular-61" transform="translate(801.000092 0)"/>
      <use xlink:href="#Manrope-Regular-6e" transform="translate(856.550095 0)"/>
      <use xlink:href="#Manrope-Regular-63" transform="translate(915.950104 0)"/>
      <use xlink:href="#Manrope-Regular-65" transform="translate(971.30011 0)"/>
     </g>
    </g>
   </g>
   <g id="line2d_14">
    <path d="M 53.062176 228.214189 
L 67.55163 189.266511 
L 82.041085 174.848713 
L 96.53054 166.672773 
L 111.019994 146.972879 
L 125.509449 146.956424 
L 139.998903 135.003134 
L 154.488358 143.303153 
L 168.977813 119.654483 
L 183.467267 124.156708 
L 197.956722 117.681168 
L 212.446177 109.519397 
L 226.935631 104.924422 
L 241.425086 102.878777 
L 255.914541 77.21363 
L 270.403995 64.879121 
L 284.89345 44.654043 
L 299.382904 36.621026 
L 313.872359 20.76239 
L 328.361814 20.608193 
L 342.851268 18.323776 
L 351.492779 12.292727 
" clip-path="url(#p04c083b669)" style="fill: none; stroke: #4086bf; stroke-opacity: 0.8; stroke-width: 2.5; stroke-linecap: square"/>
   </g>
   <g id="line2d_15">
    <path d="M 59.014366 221.063929 
L 79.456011 184.288317 
L 99.897656 156.61 
L 120.339301 159.837006 
L 140.780946 136.677518 
L 161.222591 125.528373 
L 181.664236 114.089562 
L 202.105881 115.264373 
L 222.547526 103.096423 
L 242.989172 112.104026 
L 263.430817 96.217408 
L 283.872462 101.366437 
L 304.314107 76.35396 
L 324.755752 76.966329 
L 345.197397 69.417766 
L 351.505688 69.957379 
" clip-path="url(#p04c083b669)" style="fill: none; stroke-dasharray: 12.5,5; stroke-dashoffset: 0; stroke: #4086bf; stroke-opacity: 0.8; stroke-width: 2.5"/>
   </g>
   <g id="line2d_16">
    <path d="M 53.062176 216.086048 
L 67.55163 173.27191 
L 82.041085 164.569204 
L 96.53054 150.66038 
L 111.019994 136.845393 
L 125.509449 144.016406 
L 139.998903 130.011085 
L 154.488358 124.06303 
L 168.977813 122.85347 
L 183.467267 104.30227 
L 197.956722 104.056751 
L 212.446177 99.584619 
L 226.935631 76.182358 
L 241.425086 61.010015 
L 255.914541 50.563494 
L 270.403995 45.771764 
L 284.89345 45.049501 
L 299.382904 32.821149 
L 313.872359 30.432688 
L 328.361814 26.05859 
L 342.851268 24.848694 
L 351.492779 28.810315 
" clip-path="url(#p04c083b669)" style="fill: none; stroke: #c16c8a; stroke-opacity: 0.8; stroke-width: 2.5; stroke-linecap: square"/>
   </g>
   <g id="line2d_17">
    <path d="M 59.014366 230.147273 
L 79.456011 194.251817 
L 99.897656 159.907343 
L 120.339301 141.999192 
L 140.780946 151.974137 
L 161.222591 128.500068 
L 181.664236 138.690151 
L 202.105881 116.32654 
L 222.547526 104.447858 
L 242.989172 99.88886 
L 263.430817 94.906572 
L 283.872462 81.547786 
L 304.314107 73.062843 
L 324.755752 60.980389 
L 345.197397 60.832078 
L 351.505688 65.138196 
" clip-path="url(#p04c083b669)" style="fill: none; stroke-dasharray: 12.5,5; stroke-dashoffset: 0; stroke: #c16c8a; stroke-opacity: 0.8; stroke-width: 2.5"/>
   </g>
   <g id="line2d_18"/>
   <g id="line2d_19"/>
   <g id="line2d_20"/>
   <g id="line2d_21"/>
   <g id="patch_3">
    <path d="M 38.14 241.04 
L 38.14 1.4 
" style="fill: none; stroke: #333333; stroke-width: 1.5; stroke-linejoin: miter; stroke-linecap: square"/>
   </g>
   <g id="patch_4">
    <path d="M 366.427864 241.04 
L 366.427864 1.4 
" style="fill: none; stroke: #333333; stroke-width: 1.5; stroke-linejoin: miter; stroke-linecap: square"/>
   </g>
   <g id="patch_5">
    <path d="M 38.14 241.04 
L 366.427864 241.04 
" style="fill: none; stroke: #333333; stroke-width: 1.5; stroke-linejoin: miter; stroke-linecap: square"/>
   </g>
   <g id="patch_6">
    <path d="M 38.14 1.4 
L 366.427864 1.4 
" style="fill: none; stroke: #333333; stroke-width: 1.5; stroke-linejoin: miter; stroke-linecap: square"/>
   </g>
   <g id="legend_1">
    <g id="line2d_22">
     <path d="M 48.04 16.019688 
L 59.04 16.019688 
L 70.04 16.019688 
" style="fill: none; stroke: #4086bf; stroke-opacity: 0.8; stroke-width: 2.5; stroke-linecap: square"/>
    </g>
    <g id="text_17">
     <!-- BPE (ctx=3000) -->
     <g style="fill: #333333" transform="translate(78.84 19.869688) scale(0.11 -0.11)">
      <defs>
       <path id="Manrope-Regular-42" d="M 448 0 
L 448 4608 
L 2227 4608 
Q 2614 4608 2902 4448 
Q 3190 4288 3350 4017 
Q 3510 3747 3510 3421 
Q 3510 3050 3312 2760 
Q 3114 2470 2781 2358 
L 2774 2515 
Q 3222 2387 3478 2067 
Q 3734 1747 3734 1293 
Q 3734 893 3564 603 
Q 3395 314 3088 157 
Q 2781 0 2374 0 
L 448 0 
z
M 922 451 
L 2259 451 
Q 2541 451 2765 552 
Q 2989 653 3118 838 
Q 3248 1024 3248 1286 
Q 3248 1542 3129 1747 
Q 3011 1952 2808 2075 
Q 2605 2198 2346 2198 
L 922 2198 
L 922 451 
z
M 922 2643 
L 2224 2643 
Q 2445 2643 2627 2744 
Q 2810 2845 2917 3021 
Q 3024 3197 3024 3427 
Q 3024 3754 2798 3958 
Q 2573 4163 2224 4163 
L 922 4163 
L 922 2643 
z
" transform="scale(0.015625)"/>
       <path id="Manrope-Regular-45" d="M 448 0 
L 448 4608 
L 3328 4608 
L 3328 4157 
L 918 4157 
L 918 2563 
L 2944 2563 
L 2944 2112 
L 918 2112 
L 918 451 
L 3328 451 
L 3328 0 
L 448 0 
z
" transform="scale(0.015625)"/>
       <path id="Manrope-Regular-28" d="M 2102 -1149 
Q 1725 -717 1454 -184 
Q 1184 349 1038 934 
Q 893 1520 896 2112 
Q 893 2704 1038 3291 
Q 1184 3878 1454 4409 
Q 1725 4941 2102 5373 
L 2448 5104 
Q 2077 4659 1827 4171 
Q 1578 3683 1454 3164 
Q 1331 2646 1328 2112 
Q 1331 1584 1457 1061 
Q 1584 538 1832 46 
Q 2080 -445 2448 -874 
L 2102 -1149 
z
" transform="scale(0.015625)"/>
       <path id="Manrope-Regular-74" d="M 2330 0 
Q 2038 -61 1755 -48 
Q 1472 -35 1249 73 
Q 1027 182 912 413 
Q 819 605 811 801 
Q 803 998 803 1251 
L 803 4416 
L 1270 4416 
L 1270 1270 
Q 1270 1053 1275 907 
Q 1280 762 1341 650 
Q 1456 435 1707 393 
Q 1958 352 2330 413 
L 2330 0 
z
M 64 3053 
L 64 3456 
L 2330 3456 
L 2330 3053 
L 64 3053 
z
" transform="scale(0.015625)"/>
       <path id="Manrope-Regular-78" d="M 64 0 
L 1414 1747 
L 93 3456 
L 656 3456 
L 1690 2109 
L 2714 3456 
L 3277 3456 
L 1955 1747 
L 3309 0 
L 2742 0 
L 1690 1386 
L 630 0 
L 64 0 
z
" transform="scale(0.015625)"/>
       <path id="Manrope-Regular-3d" d="M 768 2646 
L 768 3050 
L 4032 3050 
L 4032 2646 
L 768 2646 
z
M 768 1558 
L 768 1962 
L 4032 1962 
L 4032 1558 
L 768 1558 
z
" transform="scale(0.015625)"/>
       <path id="Manrope-Regular-29" d="M 624 -1149 
L 278 -874 
Q 646 -445 894 46 
Q 1142 538 1268 1061 
Q 1395 1584 1398 2112 
Q 1395 2646 1272 3164 
Q 1149 3683 899 4171 
Q 650 4659 278 5104 
L 624 5373 
Q 1002 4941 1272 4409 
Q 1542 3878 1688 3291 
Q 1834 2704 1830 2112 
Q 1834 1520 1688 934 
Q 1542 349 1272 -184 
Q 1002 -717 624 -1149 
z
" transform="scale(0.015625)"/>
      </defs>
      <use xlink:href="#Manrope-Regular-42"/>
      <use xlink:href="#Manrope-Regular-50" transform="translate(61.300003 0)"/>
      <use xlink:href="#Manrope-Regular-45" transform="translate(121.700012 0)"/>
      <use xlink:href="#Manrope-Regular-20" transform="translate(178.700012 0)"/>
      <use xlink:href="#Manrope-Regular-28" transform="translate(198.700012 0)"/>
      <use xlink:href="#Manrope-Regular-63" transform="translate(241.300018 0)"/>
      <use xlink:href="#Manrope-Regular-74" transform="translate(296.650024 0)"/>
      <use xlink:href="#Manrope-Regular-78" transform="translate(336.700027 0)"/>
      <use xlink:href="#Manrope-Regular-3d" transform="translate(389.40004 0)"/>
      <use xlink:href="#Manrope-Regular-33" transform="translate(464.400055 0)"/>
      <use xlink:href="#Manrope-Regular-30" transform="translate(519.700058 0)"/>
      <use xlink:href="#Manrope-Regular-30" transform="translate(580.700073 0)"/>
      <use xlink:href="#Manrope-Regular-30" transform="translate(641.700089 0)"/>
      <use xlink:href="#Manrope-Regular-29" transform="translate(702.700104 0)"/>
     </g>
    </g>
    <g id="line2d_23">
     <path d="M 48.04 32.729375 
L 59.04 32.729375 
L 70.04 32.729375 
" style="fill: none; stroke-dasharray: 12.5,5; stroke-dashoffset: 0; stroke: #4086bf; stroke-opacity: 0.8; stroke-width: 2.5"/>
    </g>
    <g id="text_18">
     <!-- BPE (ctx=4096) -->
     <g style="fill: #333333" transform="translate(78.84 36.579375) scale(0.11 -0.11)">
      <defs>
       <path id="Manrope-Regular-39" d="M 1965 4701 
Q 2400 4701 2753 4491 
Q 3107 4282 3315 3922 
Q 3523 3562 3523 3114 
L 3523 1514 
Q 3523 1053 3315 688 
Q 3107 323 2747 113 
Q 2387 -96 1930 -96 
Q 1536 -96 1201 78 
Q 867 253 650 560 
L 1008 858 
Q 1155 630 1400 492 
Q 1645 355 1930 355 
Q 2256 355 2507 510 
Q 2758 666 2904 920 
Q 3050 1174 3050 1472 
L 3050 2477 
L 3165 2342 
Q 2966 2026 2638 1830 
Q 2310 1635 1920 1635 
Q 1494 1635 1150 1840 
Q 806 2045 606 2390 
Q 406 2736 406 3162 
Q 406 3587 617 3937 
Q 829 4288 1184 4494 
Q 1539 4701 1965 4701 
z
M 1965 4246 
Q 1664 4246 1417 4100 
Q 1171 3955 1025 3708 
Q 880 3462 880 3162 
Q 880 2861 1024 2614 
Q 1168 2368 1414 2222 
Q 1661 2077 1962 2077 
Q 2262 2077 2510 2222 
Q 2758 2368 2904 2614 
Q 3050 2861 3050 3162 
Q 3050 3459 2904 3705 
Q 2758 3952 2512 4099 
Q 2266 4246 1965 4246 
z
" transform="scale(0.015625)"/>
       <path id="Manrope-Regular-36" d="M 2006 -96 
Q 1574 -96 1220 113 
Q 867 323 657 683 
Q 448 1043 448 1494 
L 448 3091 
Q 448 3555 656 3918 
Q 864 4282 1224 4491 
Q 1584 4701 2042 4701 
Q 2435 4701 2772 4528 
Q 3110 4355 3325 4045 
L 2963 3747 
Q 2816 3978 2573 4115 
Q 2330 4253 2042 4253 
Q 1718 4253 1465 4096 
Q 1213 3939 1069 3684 
Q 925 3430 925 3133 
L 925 2128 
L 806 2262 
Q 1008 2579 1336 2774 
Q 1664 2970 2051 2970 
Q 2480 2970 2822 2766 
Q 3165 2563 3366 2217 
Q 3568 1872 3568 1443 
Q 3568 1018 3355 669 
Q 3142 320 2788 112 
Q 2435 -96 2006 -96 
z
M 2006 362 
Q 2307 362 2555 506 
Q 2803 650 2948 896 
Q 3094 1142 3094 1443 
Q 3094 1744 2948 1992 
Q 2803 2240 2556 2385 
Q 2310 2531 2010 2531 
Q 1709 2531 1462 2385 
Q 1216 2240 1070 1992 
Q 925 1744 925 1443 
Q 925 1146 1069 899 
Q 1213 653 1459 507 
Q 1706 362 2006 362 
z
" transform="scale(0.015625)"/>
      </defs>
      <use xlink:href="#Manrope-Regular-42"/>
      <use xlink:href="#Manrope-Regular-50" transform="translate(61.300003 0)"/>
      <use xlink:href="#Manrope-Regular-45" transform="translate(121.700012 0)"/>
      <use xlink:href="#Manrope-Regular-20" transform="translate(178.700012 0)"/>
      <use xlink:href="#Manrope-Regular-28" transform="translate(198.700012 0)"/>
      <use xlink:href="#Manrope-Regular-63" transform="translate(241.300018 0)"/>
      <use xlink:href="#Manrope-Regular-74" transform="translate(296.650024 0)"/>
      <use xlink:href="#Manrope-Regular-78" transform="translate(336.700027 0)"/>
      <use xlink:href="#Manrope-Regular-3d" transform="translate(389.40004 0)"/>
      <use xlink:href="#Manrope-Regular-34" transform="translate(464.400055 0)"/>
      <use xlink:href="#Manrope-Regular-30" transform="translate(523.350067 0)"/>
      <use xlink:href="#Manrope-Regular-39" transform="translate(584.350082 0)"/>
      <use xlink:href="#Manrope-Regular-36" transform="translate(646.400085 0)"/>
      <use xlink:href="#Manrope-Regular-29" transform="translate(708.450089 0)"/>
     </g>
    </g>
    <g id="line2d_24">
     <path d="M 48.04 50.104219 
L 59.04 50.104219 
L 70.04 50.104219 
" style="fill: none; stroke: #c16c8a; stroke-opacity: 0.8; stroke-width: 2.5; stroke-linecap: square"/>
    </g>
    <g id="text_19">
     <!-- SuperBPE (ctx=3000) -->
     <g style="fill: #333333" transform="translate(78.84 53.954219) scale(0.11 -0.11)">
      <defs>
       <path id="Manrope-Regular-53" d="M 2048 -96 
Q 1565 -96 1179 65 
Q 794 227 542 524 
Q 291 822 214 1232 
L 694 1312 
Q 810 864 1181 609 
Q 1552 355 2067 355 
Q 2406 355 2675 462 
Q 2944 570 3097 768 
Q 3251 966 3251 1238 
Q 3251 1418 3187 1544 
Q 3123 1670 3017 1753 
Q 2912 1837 2787 1893 
Q 2662 1949 2544 1984 
L 1376 2333 
Q 1165 2394 985 2488 
Q 806 2582 673 2715 
Q 541 2848 467 3027 
Q 394 3206 394 3437 
Q 394 3827 598 4112 
Q 803 4397 1158 4550 
Q 1514 4704 1968 4701 
Q 2429 4701 2792 4537 
Q 3155 4374 3392 4072 
Q 3629 3770 3706 3357 
L 3213 3267 
Q 3165 3568 2992 3789 
Q 2819 4010 2552 4130 
Q 2285 4250 1965 4253 
Q 1654 4253 1412 4149 
Q 1171 4045 1030 3865 
Q 890 3686 890 3456 
Q 890 3222 1019 3081 
Q 1149 2941 1339 2861 
Q 1530 2781 1709 2730 
L 2611 2464 
Q 2752 2426 2942 2354 
Q 3133 2282 3313 2149 
Q 3494 2016 3612 1801 
Q 3731 1587 3731 1258 
Q 3731 938 3604 685 
Q 3478 432 3249 259 
Q 3021 86 2715 -5 
Q 2410 -96 2048 -96 
z
" transform="scale(0.015625)"/>
       <path id="Manrope-Regular-75" d="M 1770 -86 
Q 1459 -86 1227 10 
Q 995 106 833 269 
Q 672 432 573 641 
Q 474 851 429 1086 
Q 384 1322 384 1555 
L 384 3456 
L 858 3456 
L 858 1693 
Q 858 1408 912 1165 
Q 966 922 1086 741 
Q 1206 560 1396 461 
Q 1587 362 1859 362 
Q 2109 362 2299 448 
Q 2490 534 2619 696 
Q 2749 858 2816 1090 
Q 2883 1322 2883 1613 
L 3216 1539 
Q 3216 1008 3030 646 
Q 2845 285 2518 99 
Q 2192 -86 1770 -86 
z
M 2931 0 
L 2931 851 
L 2883 851 
L 2883 3456 
L 3354 3456 
L 3354 0 
L 2931 0 
z
" transform="scale(0.015625)"/>
       <path id="Manrope-Regular-70" d="M 2000 -96 
Q 1523 -96 1193 145 
Q 864 387 694 801 
Q 525 1216 525 1731 
Q 525 2256 696 2667 
Q 867 3078 1200 3315 
Q 1533 3552 2019 3552 
Q 2493 3552 2832 3312 
Q 3171 3072 3352 2659 
Q 3533 2246 3533 1731 
Q 3533 1213 3350 800 
Q 3168 387 2825 145 
Q 2483 -96 2000 -96 
z
M 445 -1536 
L 445 3456 
L 867 3456 
L 867 854 
L 918 854 
L 918 -1536 
L 445 -1536 
z
M 1952 342 
Q 2314 342 2554 524 
Q 2794 707 2914 1022 
Q 3034 1338 3034 1731 
Q 3034 2122 2915 2435 
Q 2797 2749 2555 2931 
Q 2314 3114 1942 3114 
Q 1581 3114 1342 2938 
Q 1104 2762 985 2450 
Q 867 2138 867 1731 
Q 867 1331 985 1016 
Q 1104 701 1344 521 
Q 1584 342 1952 342 
z
" transform="scale(0.015625)"/>
      </defs>
      <use xlink:href="#Manrope-Regular-53"/>
      <use xlink:href="#Manrope-Regular-75" transform="translate(61.650009 0)"/>
      <use xlink:href="#Manrope-Regular-70" transform="translate(121.050018 0)"/>
      <use xlink:href="#Manrope-Regular-65" transform="translate(180.250031 0)"/>
      <use xlink:href="#Manrope-Regular-72" transform="translate(238.700043 0)"/>
      <use xlink:href="#Manrope-Regular-42" transform="translate(274.750046 0)"/>
      <use xlink:href="#Manrope-Regular-50" transform="translate(336.050049 0)"/>
      <use xlink:href="#Manrope-Regular-45" transform="translate(396.450058 0)"/>
      <use xlink:href="#Manrope-Regular-20" transform="translate(453.450058 0)"/>
      <use xlink:href="#Manrope-Regular-28" transform="translate(473.450058 0)"/>
      <use xlink:href="#Manrope-Regular-63" transform="translate(516.050064 0)"/>
      <use xlink:href="#Manrope-Regular-74" transform="translate(571.40007 0)"/>
      <use xlink:href="#Manrope-Regular-78" transform="translate(611.450073 0)"/>
      <use xlink:href="#Manrope-Regular-3d" transform="translate(664.150085 0)"/>
      <use xlink:href="#Manrope-Regular-33" transform="translate(739.150101 0)"/>
      <use xlink:href="#Manrope-Regular-30" transform="translate(794.450104 0)"/>
      <use xlink:href="#Manrope-Regular-30" transform="translate(855.450119 0)"/>
      <use xlink:href="#Manrope-Regular-30" transform="translate(916.450134 0)"/>
      <use xlink:href="#Manrope-Regular-29" transform="translate(977.45015 0)"/>
     </g>
    </g>
    <g id="line2d_25">
     <path d="M 48.04 67.479063 
L 59.04 67.479063 
L 70.04 67.479063 
" style="fill: none; stroke-dasharray: 12.5,5; stroke-dashoffset: 0; stroke: #c16c8a; stroke-opacity: 0.8; stroke-width: 2.5"/>
    </g>
    <g id="text_20">
     <!-- SuperBPE (ctx=4096) -->
     <g style="fill: #333333" transform="translate(78.84 71.329063) scale(0.11 -0.11)">
      <use xlink:href="#Manrope-Regular-53"/>
      <use xlink:href="#Manrope-Regular-75" transform="translate(61.650009 0)"/>
      <use xlink:href="#Manrope-Regular-70" transform="translate(121.050018 0)"/>
      <use xlink:href="#Manrope-Regular-65" transform="translate(180.250031 0)"/>
      <use xlink:href="#Manrope-Regular-72" transform="translate(238.700043 0)"/>
      <use xlink:href="#Manrope-Regular-42" transform="translate(274.750046 0)"/>
      <use xlink:href="#Manrope-Regular-50" transform="translate(336.050049 0)"/>
      <use xlink:href="#Manrope-Regular-45" transform="translate(396.450058 0)"/>
      <use xlink:href="#Manrope-Regular-20" transform="translate(453.450058 0)"/>
      <use xlink:href="#Manrope-Regular-28" transform="translate(473.450058 0)"/>
      <use xlink:href="#Manrope-Regular-63" transform="translate(516.050064 0)"/>
      <use xlink:href="#Manrope-Regular-74" transform="translate(571.40007 0)"/>
      <use xlink:href="#Manrope-Regular-78" transform="translate(611.450073 0)"/>
      <use xlink:href="#Manrope-Regular-3d" transform="translate(664.150085 0)"/>
      <use xlink:href="#Manrope-Regular-34" transform="translate(739.150101 0)"/>
      <use xlink:href="#Manrope-Regular-30" transform="translate(798.100113 0)"/>
      <use xlink:href="#Manrope-Regular-39" transform="translate(859.100128 0)"/>
      <use xlink:href="#Manrope-Regular-36" transform="translate(921.150131 0)"/>
      <use xlink:href="#Manrope-Regular-29" transform="translate(983.200134 0)"/>
     </g>
    </g>
   </g>
  </g>
 </g>
 <defs>
  <clipPath id="p04c083b669">
   <rect x="38.14" y="1.4" width="328.287864" height="239.64"/>
  </clipPath>
 </defs>
</svg>
