<?xml version="1.0" encoding="utf-8" standalone="no"?>
<!DOCTYPE svg PUBLIC "-//W3C//DTD SVG 1.1//EN"
  "http://www.w3.org/Graphics/SVG/1.1/DTD/svg11.dtd">
<svg xmlns:xlink="http://www.w3.org/1999/xlink" width="460.8pt" height="230.4pt" viewBox="0 0 460.8 230.4" xmlns="http://www.w3.org/2000/svg" version="1.1">
 <metadata>
  <rdf:RDF xmlns:dc="http://purl.org/dc/elements/1.1/" xmlns:cc="http://creativecommons.org/ns#" xmlns:rdf="http://www.w3.org/1999/02/22-rdf-syntax-ns#">
   <cc:Work>
    <dc:type rdf:resource="http://purl.org/dc/dcmitype/StillImage"/>
    <dc:date>2025-07-11T15:57:05.296272</dc:date>
    <dc:format>image/svg+xml</dc:format>
    <dc:creator>
     <cc:Agent>
      <dc:title>Matplotlib v3.9.2, https://matplotlib.org/</dc:title>
     </cc:Agent>
    </dc:creator>
   </cc:Work>
  </rdf:RDF>
 </metadata>
 <defs>
  <style type="text/css">*{stroke-linejoin: round; stroke-linecap: butt}</style>
 </defs>
 <g id="figure_1">
  <g id="patch_1">
   <path d="M 0 230.4 
L 460.8 230.4 
L 460.8 0 
L 0 0 
z
" style="fill: #ffffff"/>
  </g>
  <g id="axes_1">
   <g id="patch_2">
    <path d="M 54.74 181.24 
L 218.34 181.24 
L 218.34 15.12 
L 54.74 15.12 
z
" style="fill: #ffffff"/>
   </g>
   <g id="matplotlib.axis_1">
    <g id="xtick_1">
     <g id="line2d_1">
      <defs>
       <path id="me58dae7bd6" d="M 0 0 
L 0 3.5 
" style="stroke: #333333; stroke-width: 0.8"/>
      </defs>
      <g>
       <use xlink:href="#me58dae7bd6" x="55.55393" y="181.24" style="fill: #333333; stroke: #333333; stroke-width: 0.8"/>
      </g>
     </g>
     <g id="text_1">
      <!-- 0 -->
      <g style="fill: #333333" transform="translate(52.50393 195.59) scale(0.1 -0.1)">
       <defs>
        <path id="Manrope-Regular-30" d="M 1952 -96 
Q 1526 -96 1185 102 
Q 845 301 646 641 
Q 448 982 448 1408 
L 448 3200 
Q 448 3626 646 3966 
Q 845 4307 1185 4505 
Q 1526 4704 1952 4704 
Q 2378 4704 2718 4505 
Q 3059 4307 3257 3966 
Q 3456 3626 3456 3200 
L 3456 1408 
Q 3456 982 3257 641 
Q 3059 301 2718 102 
Q 2378 -96 1952 -96 
z
M 1952 358 
Q 2237 358 2470 497 
Q 2704 637 2841 870 
Q 2979 1104 2979 1386 
L 2979 3222 
Q 2979 3507 2841 3740 
Q 2704 3974 2470 4113 
Q 2237 4253 1952 4253 
Q 1667 4253 1433 4113 
Q 1200 3974 1062 3740 
Q 925 3507 925 3222 
L 925 1386 
Q 925 1104 1062 870 
Q 1200 637 1433 497 
Q 1667 358 1952 358 
z
" transform="scale(0.015625)"/>
       </defs>
       <use xlink:href="#Manrope-Regular-30"/>
      </g>
     </g>
    </g>
    <g id="xtick_2">
     <g id="line2d_2">
      <g>
       <use xlink:href="#me58dae7bd6" x="96.250448" y="181.24" style="fill: #333333; stroke: #333333; stroke-width: 0.8"/>
      </g>
     </g>
     <g id="text_2">
      <!-- 50 -->
      <g style="fill: #333333" transform="translate(90.312948 195.59) scale(0.1 -0.1)">
       <defs>
        <path id="Manrope-Regular-35" d="M 1808 -96 
Q 1450 -96 1146 51 
Q 842 198 627 457 
Q 413 717 320 1053 
L 771 1174 
Q 832 925 992 744 
Q 1152 563 1368 464 
Q 1584 365 1821 365 
Q 2128 365 2373 513 
Q 2618 662 2762 908 
Q 2906 1155 2906 1450 
Q 2906 1754 2755 1998 
Q 2605 2243 2358 2387 
Q 2112 2531 1821 2531 
Q 1494 2531 1257 2388 
Q 1021 2246 880 2032 
L 451 2211 
L 592 4608 
L 3053 4608 
L 3053 4157 
L 800 4157 
L 1034 4378 
L 909 2333 
L 790 2490 
Q 989 2717 1270 2845 
Q 1552 2973 1862 2973 
Q 2288 2973 2630 2769 
Q 2973 2566 3174 2220 
Q 3376 1875 3376 1450 
Q 3376 1027 3161 676 
Q 2947 326 2592 115 
Q 2237 -96 1808 -96 
z
" transform="scale(0.015625)"/>
       </defs>
       <use xlink:href="#Manrope-Regular-35"/>
       <use xlink:href="#Manrope-Regular-30" x="57.75"/>
      </g>
     </g>
    </g>
    <g id="xtick_3">
     <g id="line2d_3">
      <g>
       <use xlink:href="#me58dae7bd6" x="136.946965" y="181.24" style="fill: #333333; stroke: #333333; stroke-width: 0.8"/>
      </g>
     </g>
     <g id="text_3">
      <!-- 100 -->
      <g style="fill: #333333" transform="translate(128.896965 195.59) scale(0.1 -0.1)">
       <defs>
        <path id="Manrope-Regular-31" d="M 1251 0 
L 1251 4083 
L 384 3562 
L 384 4090 
L 1251 4608 
L 1728 4608 
L 1728 0 
L 1251 0 
z
" transform="scale(0.015625)"/>
       </defs>
       <use xlink:href="#Manrope-Regular-31"/>
       <use xlink:href="#Manrope-Regular-30" x="39"/>
       <use xlink:href="#Manrope-Regular-30" x="100.000015"/>
      </g>
     </g>
    </g>
    <g id="xtick_4">
     <g id="line2d_4">
      <g>
       <use xlink:href="#me58dae7bd6" x="177.643483" y="181.24" style="fill: #333333; stroke: #333333; stroke-width: 0.8"/>
      </g>
     </g>
     <g id="text_4">
      <!-- 150 -->
      <g style="fill: #333333" transform="translate(169.755983 195.59) scale(0.1 -0.1)">
       <use xlink:href="#Manrope-Regular-31"/>
       <use xlink:href="#Manrope-Regular-35" x="39"/>
       <use xlink:href="#Manrope-Regular-30" x="96.75"/>
      </g>
     </g>
    </g>
    <g id="xtick_5">
     <g id="line2d_5">
      <g>
       <use xlink:href="#me58dae7bd6" x="218.34" y="181.24" style="fill: #333333; stroke: #333333; stroke-width: 0.8"/>
      </g>
     </g>
     <g id="text_5">
      <!-- 200 -->
      <g style="fill: #333333" transform="translate(209.39 195.59) scale(0.1 -0.1)">
       <defs>
        <path id="Manrope-Regular-32" d="M 320 3 
L 323 432 
L 2406 2314 
Q 2675 2557 2763 2776 
Q 2851 2995 2851 3235 
Q 2851 3520 2716 3750 
Q 2582 3981 2355 4117 
Q 2128 4253 1846 4253 
Q 1552 4253 1321 4112 
Q 1091 3971 958 3740 
Q 826 3510 829 3238 
L 349 3238 
Q 349 3658 547 3990 
Q 746 4323 1085 4513 
Q 1424 4704 1853 4704 
Q 2272 4704 2606 4507 
Q 2941 4310 3134 3976 
Q 3328 3642 3328 3232 
Q 3328 2944 3259 2725 
Q 3190 2506 3044 2318 
Q 2899 2131 2675 1933 
L 826 262 
L 752 454 
L 3328 454 
L 3328 3 
L 320 3 
z
" transform="scale(0.015625)"/>
       </defs>
       <use xlink:href="#Manrope-Regular-32"/>
       <use xlink:href="#Manrope-Regular-30" x="57"/>
       <use xlink:href="#Manrope-Regular-30" x="118.000015"/>
      </g>
     </g>
    </g>
    <g id="text_6">
     <!-- Tokens of context -->
     <g style="fill: #333333" transform="translate(77.842812 212.28) scale(0.14 -0.14)">
      <defs>
       <path id="Manrope-Regular-54" d="M 1674 0 
L 1674 4157 
L 64 4157 
L 64 4608 
L 3754 4608 
L 3754 4157 
L 2144 4157 
L 2144 0 
L 1674 0 
z
" transform="scale(0.015625)"/>
       <path id="Manrope-Regular-6f" d="M 1891 -96 
Q 1376 -96 1011 137 
Q 646 371 451 784 
Q 256 1197 256 1731 
Q 256 2275 454 2684 
Q 653 3094 1019 3323 
Q 1386 3552 1891 3552 
Q 2410 3552 2776 3320 
Q 3142 3088 3336 2677 
Q 3530 2266 3530 1731 
Q 3530 1187 3334 776 
Q 3139 365 2771 134 
Q 2403 -96 1891 -96 
z
M 1891 355 
Q 2467 355 2748 737 
Q 3030 1120 3030 1731 
Q 3030 2358 2747 2729 
Q 2464 3101 1891 3101 
Q 1504 3101 1253 2926 
Q 1002 2752 878 2443 
Q 755 2134 755 1731 
Q 755 1107 1043 731 
Q 1331 355 1891 355 
z
" transform="scale(0.015625)"/>
       <path id="Manrope-Regular-6b" d="M 445 0 
L 448 4608 
L 922 4608 
L 922 1792 
L 2464 3456 
L 3091 3456 
L 1472 1728 
L 3302 0 
L 2618 0 
L 922 1664 
L 922 0 
L 445 0 
z
" transform="scale(0.015625)"/>
       <path id="Manrope-Regular-65" d="M 1910 -96 
Q 1405 -96 1035 128 
Q 666 352 461 758 
Q 256 1165 256 1712 
Q 256 2278 457 2691 
Q 659 3104 1025 3328 
Q 1392 3552 1891 3552 
Q 2403 3552 2764 3317 
Q 3126 3082 3312 2643 
Q 3498 2205 3482 1597 
L 3002 1597 
L 3002 1763 
Q 2989 2435 2712 2777 
Q 2435 3120 1904 3120 
Q 1347 3120 1051 2758 
Q 755 2397 755 1728 
Q 755 1075 1051 715 
Q 1347 355 1891 355 
Q 2262 355 2539 526 
Q 2816 698 2976 1021 
L 3414 851 
Q 3210 400 2811 152 
Q 2413 -96 1910 -96 
z
M 589 1597 
L 589 1990 
L 3229 1990 
L 3229 1597 
L 589 1597 
z
" transform="scale(0.015625)"/>
       <path id="Manrope-Regular-6e" d="M 2944 0 
L 2944 1763 
Q 2944 2051 2889 2292 
Q 2835 2534 2715 2715 
Q 2595 2896 2404 2995 
Q 2214 3094 1942 3094 
Q 1693 3094 1502 3008 
Q 1312 2922 1182 2760 
Q 1053 2598 985 2368 
Q 918 2138 918 1843 
L 586 1917 
Q 586 2448 771 2809 
Q 957 3171 1283 3356 
Q 1610 3542 2032 3542 
Q 2342 3542 2574 3446 
Q 2806 3350 2968 3187 
Q 3130 3024 3229 2814 
Q 3328 2605 3373 2369 
Q 3418 2134 3418 1901 
L 3418 0 
L 2944 0 
z
M 445 0 
L 445 3456 
L 870 3456 
L 870 2605 
L 918 2605 
L 918 0 
L 445 0 
z
" transform="scale(0.015625)"/>
       <path id="Manrope-Regular-73" d="M 1738 -93 
Q 1130 -93 738 169 
Q 346 432 256 899 
L 736 979 
Q 813 685 1086 510 
Q 1360 336 1763 336 
Q 2157 336 2384 501 
Q 2611 666 2611 950 
Q 2611 1110 2539 1211 
Q 2467 1312 2246 1398 
Q 2026 1485 1587 1603 
Q 1117 1731 851 1859 
Q 586 1987 474 2155 
Q 362 2323 362 2566 
Q 362 2861 528 3083 
Q 694 3306 988 3429 
Q 1283 3552 1674 3552 
Q 2064 3552 2373 3425 
Q 2682 3299 2870 3072 
Q 3059 2845 3094 2544 
L 2614 2458 
Q 2566 2762 2312 2939 
Q 2058 3117 1667 3123 
Q 1299 3133 1068 2984 
Q 838 2835 838 2589 
Q 838 2451 921 2353 
Q 1005 2256 1224 2169 
Q 1443 2083 1850 1981 
Q 2326 1859 2598 1724 
Q 2870 1590 2985 1408 
Q 3101 1226 3101 957 
Q 3101 467 2737 187 
Q 2374 -93 1738 -93 
z
" transform="scale(0.015625)"/>
       <path id="Manrope-Regular-20" transform="scale(0.015625)"/>
       <path id="Manrope-Regular-66" d="M 790 0 
L 790 3712 
Q 790 3846 804 3977 
Q 819 4109 864 4229 
Q 909 4349 1005 4451 
Q 1110 4566 1235 4619 
Q 1360 4672 1496 4688 
Q 1632 4704 1763 4704 
L 2205 4704 
L 2205 4307 
L 1795 4307 
Q 1526 4307 1393 4176 
Q 1261 4045 1261 3763 
L 1261 0 
L 790 0 
z
M 192 3053 
L 192 3456 
L 2205 3456 
L 2205 3053 
L 192 3053 
z
" transform="scale(0.015625)"/>
       <path id="Manrope-Regular-63" d="M 1882 -96 
Q 1360 -96 998 137 
Q 637 371 449 782 
Q 262 1194 256 1728 
Q 262 2272 454 2683 
Q 646 3094 1008 3323 
Q 1370 3552 1885 3552 
Q 2410 3552 2798 3296 
Q 3187 3040 3331 2595 
L 2870 2448 
Q 2749 2758 2485 2929 
Q 2221 3101 1882 3101 
Q 1501 3101 1251 2926 
Q 1002 2752 880 2441 
Q 758 2131 755 1728 
Q 762 1107 1043 731 
Q 1325 355 1882 355 
Q 2234 355 2482 516 
Q 2730 678 2858 989 
L 3331 848 
Q 3139 387 2768 145 
Q 2397 -96 1882 -96 
z
" transform="scale(0.015625)"/>
       <path id="Manrope-Regular-74" d="M 2330 0 
Q 2038 -61 1755 -48 
Q 1472 -35 1249 73 
Q 1027 182 912 413 
Q 819 605 811 801 
Q 803 998 803 1251 
L 803 4416 
L 1270 4416 
L 1270 1270 
Q 1270 1053 1275 907 
Q 1280 762 1341 650 
Q 1456 435 1707 393 
Q 1958 352 2330 413 
L 2330 0 
z
M 64 3053 
L 64 3456 
L 2330 3456 
L 2330 3053 
L 64 3053 
z
" transform="scale(0.015625)"/>
       <path id="Manrope-Regular-78" d="M 64 0 
L 1414 1747 
L 93 3456 
L 656 3456 
L 1690 2109 
L 2714 3456 
L 3277 3456 
L 1955 1747 
L 3309 0 
L 2742 0 
L 1690 1386 
L 630 0 
L 64 0 
z
" transform="scale(0.015625)"/>
      </defs>
      <use xlink:href="#Manrope-Regular-54"/>
      <use xlink:href="#Manrope-Regular-6f" x="59.650009"/>
      <use xlink:href="#Manrope-Regular-6b" x="118.800018"/>
      <use xlink:href="#Manrope-Regular-65" x="168.400024"/>
      <use xlink:href="#Manrope-Regular-6e" x="226.850037"/>
      <use xlink:href="#Manrope-Regular-73" x="286.250046"/>
      <use xlink:href="#Manrope-Regular-20" x="338.750046"/>
      <use xlink:href="#Manrope-Regular-6f" x="358.750046"/>
      <use xlink:href="#Manrope-Regular-66" x="417.900055"/>
      <use xlink:href="#Manrope-Regular-20" x="453.350052"/>
      <use xlink:href="#Manrope-Regular-63" x="473.350052"/>
      <use xlink:href="#Manrope-Regular-6f" x="528.700058"/>
      <use xlink:href="#Manrope-Regular-6e" x="587.850067"/>
      <use xlink:href="#Manrope-Regular-74" x="647.250076"/>
      <use xlink:href="#Manrope-Regular-65" x="687.300079"/>
      <use xlink:href="#Manrope-Regular-78" x="745.750092"/>
      <use xlink:href="#Manrope-Regular-74" x="798.450104"/>
     </g>
    </g>
   </g>
   <g id="matplotlib.axis_2">
    <g id="ytick_1">
     <g id="line2d_6">
      <defs>
       <path id="mbba55486cc" d="M 0 0 
L -3.5 0 
" style="stroke: #333333; stroke-width: 0.8"/>
      </defs>
      <g>
       <use xlink:href="#mbba55486cc" x="54.74" y="170.791989" style="fill: #333333; stroke: #333333; stroke-width: 0.8"/>
      </g>
     </g>
     <g id="text_7">
      <!-- 0.6 -->
      <g style="fill: #333333" transform="translate(32.900938 174.466989) scale(0.1 -0.1)">
       <defs>
        <path id="Manrope-Regular-2e" d="M 538 0 
L 538 547 
L 1085 547 
L 1085 0 
L 538 0 
z
" transform="scale(0.015625)"/>
        <path id="Manrope-Regular-36" d="M 2006 -96 
Q 1574 -96 1220 113 
Q 867 323 657 683 
Q 448 1043 448 1494 
L 448 3091 
Q 448 3555 656 3918 
Q 864 4282 1224 4491 
Q 1584 4701 2042 4701 
Q 2435 4701 2772 4528 
Q 3110 4355 3325 4045 
L 2963 3747 
Q 2816 3978 2573 4115 
Q 2330 4253 2042 4253 
Q 1718 4253 1465 4096 
Q 1213 3939 1069 3684 
Q 925 3430 925 3133 
L 925 2128 
L 806 2262 
Q 1008 2579 1336 2774 
Q 1664 2970 2051 2970 
Q 2480 2970 2822 2766 
Q 3165 2563 3366 2217 
Q 3568 1872 3568 1443 
Q 3568 1018 3355 669 
Q 3142 320 2788 112 
Q 2435 -96 2006 -96 
z
M 2006 362 
Q 2307 362 2555 506 
Q 2803 650 2948 896 
Q 3094 1142 3094 1443 
Q 3094 1744 2948 1992 
Q 2803 2240 2556 2385 
Q 2310 2531 2010 2531 
Q 1709 2531 1462 2385 
Q 1216 2240 1070 1992 
Q 925 1744 925 1443 
Q 925 1146 1069 899 
Q 1213 653 1459 507 
Q 1706 362 2006 362 
z
" transform="scale(0.015625)"/>
       </defs>
       <use xlink:href="#Manrope-Regular-30"/>
       <use xlink:href="#Manrope-Regular-2e" x="61.000015"/>
       <use xlink:href="#Manrope-Regular-36" x="86.350021"/>
      </g>
     </g>
    </g>
    <g id="ytick_2">
     <g id="line2d_7">
      <g>
       <use xlink:href="#mbba55486cc" x="54.74" y="149.304011" style="fill: #333333; stroke: #333333; stroke-width: 0.8"/>
      </g>
     </g>
     <g id="text_8">
      <!-- 0.7 -->
      <g style="fill: #333333" transform="translate(34.085313 152.979011) scale(0.1 -0.1)">
       <defs>
        <path id="Manrope-Regular-37" d="M 694 0 
L 2390 4150 
L 256 4150 
L 256 4608 
L 2893 4608 
L 2893 4150 
L 1200 0 
L 694 0 
z
" transform="scale(0.015625)"/>
       </defs>
       <use xlink:href="#Manrope-Regular-30"/>
       <use xlink:href="#Manrope-Regular-2e" x="61.000015"/>
       <use xlink:href="#Manrope-Regular-37" x="86.350021"/>
      </g>
     </g>
    </g>
    <g id="ytick_3">
     <g id="line2d_8">
      <g>
       <use xlink:href="#mbba55486cc" x="54.74" y="127.816032" style="fill: #333333; stroke: #333333; stroke-width: 0.8"/>
      </g>
     </g>
     <g id="text_9">
      <!-- 0.8 -->
      <g style="fill: #333333" transform="translate(33.300938 131.491032) scale(0.1 -0.1)">
       <defs>
        <path id="Manrope-Regular-38" d="M 1853 -96 
Q 1421 -96 1089 77 
Q 758 250 571 562 
Q 384 874 384 1293 
Q 384 1722 592 2056 
Q 800 2390 1226 2563 
L 1219 2378 
Q 864 2509 678 2806 
Q 493 3104 493 3466 
Q 493 3850 669 4126 
Q 845 4403 1150 4553 
Q 1456 4704 1853 4704 
Q 2250 4704 2557 4553 
Q 2864 4403 3040 4126 
Q 3216 3850 3216 3466 
Q 3216 3104 3038 2809 
Q 2861 2515 2496 2378 
L 2480 2563 
Q 2906 2394 3118 2058 
Q 3331 1722 3331 1293 
Q 3331 874 3142 562 
Q 2954 250 2621 77 
Q 2288 -96 1853 -96 
z
M 1853 355 
Q 2288 355 2560 596 
Q 2832 838 2832 1293 
Q 2832 1754 2563 1992 
Q 2294 2230 1853 2230 
Q 1411 2230 1145 1992 
Q 880 1754 880 1293 
Q 880 838 1149 596 
Q 1418 355 1853 355 
z
M 1853 2685 
Q 2237 2685 2477 2881 
Q 2717 3078 2717 3466 
Q 2717 3853 2477 4046 
Q 2237 4240 1853 4240 
Q 1469 4240 1230 4046 
Q 992 3853 992 3466 
Q 992 3078 1230 2881 
Q 1469 2685 1853 2685 
z
" transform="scale(0.015625)"/>
       </defs>
       <use xlink:href="#Manrope-Regular-30"/>
       <use xlink:href="#Manrope-Regular-2e" x="61.000015"/>
       <use xlink:href="#Manrope-Regular-38" x="86.350021"/>
      </g>
     </g>
    </g>
    <g id="ytick_4">
     <g id="line2d_9">
      <g>
       <use xlink:href="#mbba55486cc" x="54.74" y="106.328053" style="fill: #333333; stroke: #333333; stroke-width: 0.8"/>
      </g>
     </g>
     <g id="text_10">
      <!-- 0.9 -->
      <g style="fill: #333333" transform="translate(32.900938 110.003053) scale(0.1 -0.1)">
       <defs>
        <path id="Manrope-Regular-39" d="M 1965 4701 
Q 2400 4701 2753 4491 
Q 3107 4282 3315 3922 
Q 3523 3562 3523 3114 
L 3523 1514 
Q 3523 1053 3315 688 
Q 3107 323 2747 113 
Q 2387 -96 1930 -96 
Q 1536 -96 1201 78 
Q 867 253 650 560 
L 1008 858 
Q 1155 630 1400 492 
Q 1645 355 1930 355 
Q 2256 355 2507 510 
Q 2758 666 2904 920 
Q 3050 1174 3050 1472 
L 3050 2477 
L 3165 2342 
Q 2966 2026 2638 1830 
Q 2310 1635 1920 1635 
Q 1494 1635 1150 1840 
Q 806 2045 606 2390 
Q 406 2736 406 3162 
Q 406 3587 617 3937 
Q 829 4288 1184 4494 
Q 1539 4701 1965 4701 
z
M 1965 4246 
Q 1664 4246 1417 4100 
Q 1171 3955 1025 3708 
Q 880 3462 880 3162 
Q 880 2861 1024 2614 
Q 1168 2368 1414 2222 
Q 1661 2077 1962 2077 
Q 2262 2077 2510 2222 
Q 2758 2368 2904 2614 
Q 3050 2861 3050 3162 
Q 3050 3459 2904 3705 
Q 2758 3952 2512 4099 
Q 2266 4246 1965 4246 
z
" transform="scale(0.015625)"/>
       </defs>
       <use xlink:href="#Manrope-Regular-30"/>
       <use xlink:href="#Manrope-Regular-2e" x="61.000015"/>
       <use xlink:href="#Manrope-Regular-39" x="86.350021"/>
      </g>
     </g>
    </g>
    <g id="ytick_5">
     <g id="line2d_10">
      <g>
       <use xlink:href="#mbba55486cc" x="54.74" y="84.840074" style="fill: #333333; stroke: #333333; stroke-width: 0.8"/>
      </g>
     </g>
     <g id="text_11">
      <!-- 1.0 -->
      <g style="fill: #333333" transform="translate(35.205625 88.515074) scale(0.1 -0.1)">
       <use xlink:href="#Manrope-Regular-31"/>
       <use xlink:href="#Manrope-Regular-2e" x="39"/>
       <use xlink:href="#Manrope-Regular-30" x="64.350006"/>
      </g>
     </g>
    </g>
    <g id="ytick_6">
     <g id="line2d_11">
      <g>
       <use xlink:href="#mbba55486cc" x="54.74" y="63.352095" style="fill: #333333; stroke: #333333; stroke-width: 0.8"/>
      </g>
     </g>
     <g id="text_12">
      <!-- 1.1 -->
      <g style="fill: #333333" transform="translate(37.405625 67.027095) scale(0.1 -0.1)">
       <use xlink:href="#Manrope-Regular-31"/>
       <use xlink:href="#Manrope-Regular-2e" x="39"/>
       <use xlink:href="#Manrope-Regular-31" x="64.350006"/>
      </g>
     </g>
    </g>
    <g id="ytick_7">
     <g id="line2d_12">
      <g>
       <use xlink:href="#mbba55486cc" x="54.74" y="41.864116" style="fill: #333333; stroke: #333333; stroke-width: 0.8"/>
      </g>
     </g>
     <g id="text_13">
      <!-- 1.2 -->
      <g style="fill: #333333" transform="translate(35.605625 45.539116) scale(0.1 -0.1)">
       <use xlink:href="#Manrope-Regular-31"/>
       <use xlink:href="#Manrope-Regular-2e" x="39"/>
       <use xlink:href="#Manrope-Regular-32" x="64.350006"/>
      </g>
     </g>
    </g>
    <g id="ytick_8">
     <g id="line2d_13">
      <g>
       <use xlink:href="#mbba55486cc" x="54.74" y="20.376137" style="fill: #333333; stroke: #333333; stroke-width: 0.8"/>
      </g>
     </g>
     <g id="text_14">
      <!-- 1.3 -->
      <g style="fill: #333333" transform="translate(35.775938 24.051137) scale(0.1 -0.1)">
       <defs>
        <path id="Manrope-Regular-33" d="M 1686 -93 
Q 1344 -93 1056 28 
Q 768 150 560 376 
Q 352 602 256 915 
L 704 1050 
Q 819 707 1083 531 
Q 1347 355 1680 362 
Q 1987 368 2209 499 
Q 2432 630 2550 864 
Q 2669 1098 2669 1405 
Q 2669 1875 2395 2161 
Q 2122 2448 1674 2448 
Q 1549 2448 1411 2414 
Q 1274 2381 1155 2320 
L 918 2694 
L 2710 4349 
L 2787 4157 
L 438 4157 
L 438 4608 
L 3101 4608 
L 3101 4150 
L 1539 2659 
L 1533 2845 
Q 2013 2906 2377 2736 
Q 2742 2566 2948 2219 
Q 3155 1872 3155 1405 
Q 3155 963 2964 625 
Q 2774 288 2441 97 
Q 2109 -93 1686 -93 
z
" transform="scale(0.015625)"/>
       </defs>
       <use xlink:href="#Manrope-Regular-31"/>
       <use xlink:href="#Manrope-Regular-2e" x="39"/>
       <use xlink:href="#Manrope-Regular-33" x="64.350006"/>
      </g>
     </g>
    </g>
    <g id="text_15">
     <!-- Average bits per byte -->
     <g style="fill: #333333" transform="translate(25.330938 166.856563) rotate(-90) scale(0.14 -0.14)">
      <defs>
       <path id="Manrope-Regular-41" d="M 128 0 
L 1715 4608 
L 2339 4608 
L 3926 0 
L 3437 0 
L 1930 4346 
L 2115 4346 
L 618 0 
L 128 0 
z
M 835 1117 
L 835 1558 
L 3216 1558 
L 3216 1117 
L 835 1117 
z
" transform="scale(0.015625)"/>
       <path id="Manrope-Regular-76" d="M 1382 0 
L 128 3456 
L 605 3456 
L 1626 614 
L 2640 3456 
L 3123 3456 
L 1869 0 
L 1382 0 
z
" transform="scale(0.015625)"/>
       <path id="Manrope-Regular-72" d="M 448 0 
L 448 3456 
L 870 3456 
L 870 2624 
L 787 2733 
Q 845 2886 937 3016 
Q 1030 3146 1139 3229 
Q 1274 3347 1453 3409 
Q 1632 3472 1814 3483 
Q 1997 3494 2147 3456 
L 2147 3014 
Q 1958 3062 1734 3036 
Q 1510 3011 1322 2858 
Q 1149 2723 1062 2536 
Q 976 2349 947 2139 
Q 918 1930 918 1725 
L 918 0 
L 448 0 
z
" transform="scale(0.015625)"/>
       <path id="Manrope-Regular-61" d="M 1437 -96 
Q 1046 -96 782 45 
Q 518 186 387 419 
Q 256 653 256 928 
Q 256 1210 369 1410 
Q 483 1610 680 1738 
Q 877 1866 1136 1933 
Q 1398 1997 1716 2046 
Q 2035 2096 2340 2133 
Q 2646 2170 2877 2205 
L 2710 2102 
Q 2720 2614 2512 2860 
Q 2304 3107 1789 3107 
Q 1434 3107 1189 2947 
Q 944 2787 845 2442 
L 387 2576 
Q 506 3040 864 3296 
Q 1222 3552 1795 3552 
Q 2269 3552 2600 3374 
Q 2931 3197 3069 2861 
Q 3133 2710 3152 2524 
Q 3171 2339 3171 2147 
L 3171 0 
L 2752 0 
L 2752 867 
L 2874 816 
Q 2698 371 2326 137 
Q 1955 -96 1437 -96 
z
M 1491 310 
Q 1821 310 2067 428 
Q 2314 547 2464 753 
Q 2614 960 2659 1219 
Q 2698 1386 2701 1586 
Q 2704 1786 2704 1885 
L 2883 1792 
Q 2643 1760 2363 1728 
Q 2083 1696 1812 1654 
Q 1542 1613 1325 1555 
Q 1178 1514 1040 1438 
Q 902 1363 814 1238 
Q 726 1114 726 928 
Q 726 778 801 637 
Q 877 496 1045 403 
Q 1213 310 1491 310 
z
" transform="scale(0.015625)"/>
       <path id="Manrope-Regular-67" d="M 1821 -1632 
Q 1555 -1632 1297 -1553 
Q 1040 -1475 822 -1307 
Q 605 -1139 458 -870 
L 883 -634 
Q 1027 -922 1288 -1048 
Q 1549 -1174 1821 -1174 
Q 2195 -1174 2427 -1035 
Q 2659 -896 2764 -624 
Q 2870 -352 2867 54 
L 2867 976 
L 2922 976 
L 2922 3456 
L 3341 3456 
L 3341 48 
Q 3341 -99 3333 -235 
Q 3325 -371 3302 -502 
Q 3242 -890 3051 -1139 
Q 2861 -1389 2552 -1510 
Q 2243 -1632 1821 -1632 
z
M 1789 -96 
Q 1306 -96 963 145 
Q 621 387 438 800 
Q 256 1213 256 1731 
Q 256 2246 437 2659 
Q 618 3072 957 3312 
Q 1296 3552 1770 3552 
Q 2256 3552 2589 3315 
Q 2922 3078 3093 2667 
Q 3264 2256 3264 1731 
Q 3264 1216 3094 801 
Q 2925 387 2595 145 
Q 2266 -96 1789 -96 
z
M 1837 342 
Q 2205 342 2445 521 
Q 2685 701 2803 1016 
Q 2922 1331 2922 1731 
Q 2922 2138 2803 2450 
Q 2685 2762 2446 2938 
Q 2208 3114 1846 3114 
Q 1475 3114 1232 2931 
Q 989 2749 872 2435 
Q 755 2122 755 1731 
Q 755 1338 875 1022 
Q 995 707 1235 524 
Q 1475 342 1837 342 
z
" transform="scale(0.015625)"/>
       <path id="Manrope-Regular-62" d="M 2000 -96 
Q 1523 -96 1193 145 
Q 864 387 694 801 
Q 525 1216 525 1731 
Q 525 2256 696 2667 
Q 867 3078 1200 3315 
Q 1533 3552 2019 3552 
Q 2493 3552 2832 3312 
Q 3171 3072 3352 2659 
Q 3533 2246 3533 1731 
Q 3533 1213 3350 800 
Q 3168 387 2825 145 
Q 2483 -96 2000 -96 
z
M 445 0 
L 445 4608 
L 918 4608 
L 918 2602 
L 867 2602 
L 867 0 
L 445 0 
z
M 1952 342 
Q 2314 342 2554 524 
Q 2794 707 2914 1022 
Q 3034 1338 3034 1731 
Q 3034 2122 2915 2435 
Q 2797 2749 2555 2931 
Q 2314 3114 1942 3114 
Q 1581 3114 1342 2938 
Q 1104 2762 985 2450 
Q 867 2138 867 1731 
Q 867 1331 985 1016 
Q 1104 701 1344 521 
Q 1584 342 1952 342 
z
" transform="scale(0.015625)"/>
       <path id="Manrope-Regular-69" d="M 512 4112 
L 512 4640 
L 982 4640 
L 982 4112 
L 512 4112 
z
M 512 0 
L 512 3456 
L 982 3456 
L 982 0 
L 512 0 
z
" transform="scale(0.015625)"/>
       <path id="Manrope-Regular-70" d="M 2000 -96 
Q 1523 -96 1193 145 
Q 864 387 694 801 
Q 525 1216 525 1731 
Q 525 2256 696 2667 
Q 867 3078 1200 3315 
Q 1533 3552 2019 3552 
Q 2493 3552 2832 3312 
Q 3171 3072 3352 2659 
Q 3533 2246 3533 1731 
Q 3533 1213 3350 800 
Q 3168 387 2825 145 
Q 2483 -96 2000 -96 
z
M 445 -1536 
L 445 3456 
L 867 3456 
L 867 854 
L 918 854 
L 918 -1536 
L 445 -1536 
z
M 1952 342 
Q 2314 342 2554 524 
Q 2794 707 2914 1022 
Q 3034 1338 3034 1731 
Q 3034 2122 2915 2435 
Q 2797 2749 2555 2931 
Q 2314 3114 1942 3114 
Q 1581 3114 1342 2938 
Q 1104 2762 985 2450 
Q 867 2138 867 1731 
Q 867 1331 985 1016 
Q 1104 701 1344 521 
Q 1584 342 1952 342 
z
" transform="scale(0.015625)"/>
       <path id="Manrope-Regular-79" d="M 941 -1536 
L 1610 278 
L 1619 -259 
L 106 3456 
L 605 3456 
L 1846 349 
L 1642 349 
L 2787 3456 
L 3267 3456 
L 1411 -1536 
L 941 -1536 
z
" transform="scale(0.015625)"/>
      </defs>
      <use xlink:href="#Manrope-Regular-41"/>
      <use xlink:href="#Manrope-Regular-76" x="63.350006"/>
      <use xlink:href="#Manrope-Regular-65" x="114.150009"/>
      <use xlink:href="#Manrope-Regular-72" x="172.600021"/>
      <use xlink:href="#Manrope-Regular-61" x="208.650024"/>
      <use xlink:href="#Manrope-Regular-67" x="264.200027"/>
      <use xlink:href="#Manrope-Regular-65" x="323.40004"/>
      <use xlink:href="#Manrope-Regular-20" x="381.850052"/>
      <use xlink:href="#Manrope-Regular-62" x="401.850052"/>
      <use xlink:href="#Manrope-Regular-69" x="461.050064"/>
      <use xlink:href="#Manrope-Regular-74" x="484.40007"/>
      <use xlink:href="#Manrope-Regular-73" x="524.450073"/>
      <use xlink:href="#Manrope-Regular-20" x="576.950073"/>
      <use xlink:href="#Manrope-Regular-70" x="596.950073"/>
      <use xlink:href="#Manrope-Regular-65" x="656.150085"/>
      <use xlink:href="#Manrope-Regular-72" x="714.600098"/>
      <use xlink:href="#Manrope-Regular-20" x="750.650101"/>
      <use xlink:href="#Manrope-Regular-62" x="770.650101"/>
      <use xlink:href="#Manrope-Regular-79" x="829.850113"/>
      <use xlink:href="#Manrope-Regular-74" x="882.600113"/>
      <use xlink:href="#Manrope-Regular-65" x="922.650116"/>
     </g>
    </g>
   </g>
   <g id="line2d_14">
    <path d="M 55.55393 38.016409 
L 56.367861 69.627832 
L 57.181791 86.290699 
L 57.995721 97.536456 
L 58.809652 106.151831 
L 59.623582 112.533616 
L 60.437512 117.569748 
L 61.251443 121.265681 
L 62.065373 125.560952 
L 62.879303 129.073398 
L 63.693234 131.191984 
L 64.507164 133.96166 
L 67.762886 140.977581 
L 68.576816 141.084803 
L 69.390746 142.709935 
L 70.204677 143.821241 
L 71.018607 144.647923 
L 71.832537 146.972291 
L 72.646468 147.417747 
L 73.460398 147.585421 
L 74.274328 148.835364 
L 75.902189 149.322101 
L 76.716119 150.498704 
L 77.53005 151.05044 
L 78.34398 151.4118 
L 79.15791 151.590305 
L 79.971841 152.743287 
L 80.785771 153.309759 
L 81.599701 153.473863 
L 82.413632 154.71528 
L 83.227562 154.459655 
L 84.041493 154.583112 
L 84.855423 155.773148 
L 85.669353 155.290761 
L 86.483284 155.140437 
L 87.297214 156.608158 
L 88.111144 156.33242 
L 88.925075 156.975367 
L 89.739005 156.729532 
L 90.552935 156.351913 
L 91.366866 157.496159 
L 92.180796 157.814107 
L 94.622587 158.31103 
L 95.436517 158.627045 
L 96.250448 158.817757 
L 97.064378 159.707629 
L 97.878308 159.032684 
L 98.692239 159.668443 
L 99.506169 159.790276 
L 100.3201 160.164276 
L 101.13403 160.260828 
L 101.94796 160.100887 
L 103.575821 160.653975 
L 104.389751 160.680037 
L 105.203682 160.079721 
L 106.831542 161.358155 
L 107.645473 161.121577 
L 108.459403 161.577605 
L 109.273333 161.271641 
L 110.901194 162.424698 
L 111.715124 161.297083 
L 112.529055 162.532576 
L 113.342985 162.07697 
L 114.156915 162.578578 
L 114.970846 162.735718 
L 115.784776 163.016562 
L 116.598706 163.076964 
L 117.412637 162.622349 
L 118.226567 163.014567 
L 119.040498 163.237475 
L 119.854428 163.007429 
L 120.668358 163.247996 
L 121.482289 163.305102 
L 122.296219 163.571508 
L 123.110149 163.474845 
L 123.92408 163.650611 
L 124.73801 162.819171 
L 127.179801 163.926783 
L 127.993731 163.841757 
L 129.621592 163.992589 
L 130.435522 163.9046 
L 131.249453 164.366266 
L 132.063383 164.57646 
L 133.691244 164.15331 
L 134.505174 163.81562 
L 135.319104 164.075756 
L 136.133035 164.774991 
L 136.946965 163.732564 
L 137.760896 164.53596 
L 138.574826 164.804263 
L 139.388756 164.454094 
L 141.016617 164.867738 
L 141.830547 164.624989 
L 142.644478 164.662453 
L 143.458408 164.927843 
L 144.272338 164.900715 
L 145.086269 165.005954 
L 145.900199 165.749654 
L 146.714129 166.023224 
L 147.52806 165.737051 
L 148.34199 165.690925 
L 149.15592 165.40883 
L 149.969851 165.817529 
L 151.597711 165.281779 
L 152.411642 165.075862 
L 153.225572 166.074381 
L 154.039502 166.501373 
L 154.853433 166.317626 
L 155.667363 165.15023 
L 156.481294 166.540658 
L 157.295224 165.523809 
L 158.109154 165.932212 
L 158.923085 166.069548 
L 159.737015 165.297481 
L 160.550945 165.947628 
L 161.364876 166.388029 
L 162.178806 166.223156 
L 162.992736 165.535136 
L 163.806667 165.676649 
L 164.620597 166.629898 
L 165.434527 166.023546 
L 167.062388 165.945497 
L 167.876318 166.119119 
L 168.690249 166.672652 
L 170.318109 166.883316 
L 171.13204 166.514967 
L 171.94597 166.809654 
L 172.7599 166.638399 
L 173.573831 166.199498 
L 174.387761 166.672467 
L 175.201692 166.512043 
L 176.829552 166.745175 
L 177.643483 167.303442 
L 179.271343 167.209852 
L 180.085274 167.038932 
L 180.899204 167.147839 
L 181.713134 166.887691 
L 182.527065 167.3026 
L 183.340995 166.77923 
L 184.154925 167.36496 
L 184.968856 166.658017 
L 186.596716 166.956372 
L 187.410647 167.411222 
L 188.224577 166.728853 
L 189.038507 167.515903 
L 189.852438 166.935453 
L 191.480299 167.156973 
L 192.294229 167.226372 
L 193.108159 167.466097 
L 193.92209 167.233708 
L 194.73602 167.179887 
L 195.54995 167.709701 
L 196.363881 167.549426 
L 197.177811 167.77739 
L 197.991741 166.984193 
L 199.619602 167.901577 
L 200.433532 167.668024 
L 202.061393 167.659126 
L 203.689254 168.161812 
L 204.503184 168.157462 
L 205.317114 167.731128 
L 206.131045 168.157115 
L 206.944975 168.214432 
L 207.758905 167.736444 
L 208.572836 167.722304 
L 209.386766 167.883447 
L 210.200697 168.311083 
L 211.014627 168.040723 
L 211.828557 168.064542 
L 212.642488 168.214271 
L 213.456418 167.312316 
L 214.270348 167.514887 
L 215.084279 168.253469 
L 215.898209 168.428715 
L 216.712139 167.534852 
L 217.52607 167.951681 
L 218.34 168.58925 
L 219.15393 167.743545 
L 219.15393 167.743545 
" clip-path="url(#p8562ed755e)" style="fill: none; stroke: #c16c8a; stroke-width: 1.5; stroke-linecap: square"/>
   </g>
   <g id="line2d_15">
    <path d="M 55.55393 22.670909 
L 56.367861 56.091414 
L 57.181791 73.693069 
L 57.995721 85.618728 
L 58.809652 95.042813 
L 61.251443 112.89155 
L 62.065373 115.727594 
L 63.693234 122.685442 
L 64.507164 124.455559 
L 65.321095 127.40398 
L 66.135025 128.721184 
L 68.576816 135.817022 
L 69.390746 137.132036 
L 70.204677 137.883712 
L 71.018607 139.475111 
L 71.832537 140.299819 
L 72.646468 140.53278 
L 73.460398 143.00104 
L 74.274328 141.902272 
L 75.902189 144.63069 
L 76.716119 144.695363 
L 78.34398 146.24991 
L 79.15791 147.324901 
L 79.971841 148.76188 
L 80.785771 148.481383 
L 81.599701 149.030379 
L 83.227562 150.753146 
L 84.041493 150.493224 
L 84.855423 151.301671 
L 85.669353 151.263942 
L 86.483284 151.998651 
L 87.297214 151.470532 
L 88.111144 152.040643 
L 89.739005 153.656441 
L 90.552935 152.854836 
L 91.366866 153.520321 
L 92.180796 153.893413 
L 92.994726 154.468208 
L 93.808657 154.443892 
L 94.622587 155.383 
L 95.436517 155.75899 
L 96.250448 155.412606 
L 97.064378 155.515884 
L 97.878308 155.946319 
L 98.692239 155.562965 
L 99.506169 156.497439 
L 100.3201 156.06911 
L 101.13403 156.320321 
L 101.94796 156.9272 
L 102.761891 156.669434 
L 103.575821 157.389145 
L 104.389751 157.03683 
L 105.203682 158.33201 
L 106.017612 157.618264 
L 106.831542 158.578376 
L 107.645473 158.074936 
L 108.459403 158.524555 
L 110.087264 158.856666 
L 110.901194 158.865192 
L 111.715124 158.627698 
L 112.529055 159.950219 
L 113.342985 159.012704 
L 114.970846 160.193838 
L 115.784776 159.737074 
L 116.598706 159.989397 
L 117.412637 159.850024 
L 118.226567 160.765086 
L 119.040498 159.613255 
L 119.854428 159.822465 
L 120.668358 160.768936 
L 122.296219 161.57189 
L 123.110149 160.843989 
L 123.92408 161.367036 
L 124.73801 160.765482 
L 126.365871 160.544392 
L 127.179801 162.178887 
L 127.993731 161.353926 
L 128.807662 162.071598 
L 129.621592 161.739765 
L 130.435522 161.930667 
L 131.249453 161.739184 
L 132.063383 162.90982 
L 132.877313 162.375905 
L 133.691244 161.608776 
L 134.505174 163.415367 
L 135.319104 162.422902 
L 136.133035 162.592412 
L 136.946965 162.893652 
L 137.760896 162.914631 
L 138.574826 162.752055 
L 139.388756 162.936503 
L 141.016617 162.849478 
L 141.830547 162.528758 
L 142.644478 162.912617 
L 143.458408 163.056489 
L 144.272338 163.481161 
L 145.086269 163.384985 
L 145.900199 163.005878 
L 146.714129 163.41043 
L 147.52806 162.212959 
L 148.34199 163.016283 
L 149.15592 163.007512 
L 150.783781 163.916002 
L 151.597711 163.318113 
L 152.411642 163.287554 
L 153.225572 163.861709 
L 154.039502 163.727156 
L 154.853433 164.533867 
L 155.667363 164.101958 
L 156.481294 164.229535 
L 157.295224 164.816041 
L 158.109154 164.045407 
L 158.923085 164.019061 
L 159.737015 164.767679 
L 160.550945 164.364914 
L 161.364876 164.290593 
L 162.178806 164.490864 
L 162.992736 164.878355 
L 163.806667 165.002461 
L 164.620597 164.963771 
L 165.434527 165.79217 
L 166.248458 164.960376 
L 167.062388 164.587849 
L 167.876318 164.752194 
L 168.690249 164.614919 
L 169.504179 165.146779 
L 170.318109 165.859227 
L 171.13204 165.223845 
L 171.94597 165.189967 
L 172.7599 164.754511 
L 173.573831 164.843027 
L 174.387761 165.805347 
L 175.201692 165.440731 
L 176.015622 166.057821 
L 176.829552 165.265382 
L 177.643483 165.426905 
L 178.457413 166.085204 
L 179.271343 166.0505 
L 180.085274 164.957823 
L 180.899204 164.873679 
L 181.713134 165.207188 
L 182.527065 165.824228 
L 183.340995 164.988677 
L 184.154925 165.541279 
L 184.968856 165.124409 
L 185.782786 165.45561 
L 186.596716 166.168589 
L 187.410647 166.086602 
L 188.224577 166.232605 
L 189.038507 166.247308 
L 189.852438 165.607545 
L 191.480299 165.961064 
L 192.294229 166.475407 
L 193.108159 166.270022 
L 193.92209 166.302367 
L 194.73602 166.505048 
L 195.54995 165.456124 
L 196.363881 165.813031 
L 197.177811 166.378625 
L 198.805672 165.434269 
L 199.619602 166.342244 
L 200.433532 166.763504 
L 201.247463 165.872775 
L 202.061393 166.01732 
L 202.875323 165.4417 
L 203.689254 166.433272 
L 204.503184 166.316589 
L 206.131045 166.693506 
L 206.944975 166.272921 
L 207.758905 166.871012 
L 208.572836 166.581432 
L 209.386766 166.847202 
L 210.200697 166.853917 
L 211.014627 166.420305 
L 211.828557 166.90858 
L 212.642488 167.029838 
L 213.456418 166.763352 
L 215.084279 166.759553 
L 215.898209 166.991006 
L 216.712139 166.723054 
L 217.52607 167.121472 
L 218.34 166.775097 
L 219.15393 166.671179 
L 219.15393 166.671179 
" clip-path="url(#p8562ed755e)" style="fill: none; stroke: #4086bf; stroke-width: 1.5; stroke-linecap: square"/>
   </g>
   <g id="patch_3">
    <path d="M 54.74 181.24 
L 54.74 15.12 
" style="fill: none; stroke: #333333; stroke-width: 1.5; stroke-linejoin: miter; stroke-linecap: square"/>
   </g>
   <g id="patch_4">
    <path d="M 218.34 181.24 
L 218.34 15.12 
" style="fill: none; stroke: #333333; stroke-width: 1.5; stroke-linejoin: miter; stroke-linecap: square"/>
   </g>
   <g id="patch_5">
    <path d="M 54.74 181.24 
L 218.34 181.24 
" style="fill: none; stroke: #333333; stroke-width: 1.5; stroke-linejoin: miter; stroke-linecap: square"/>
   </g>
   <g id="patch_6">
    <path d="M 54.74 15.12 
L 218.34 15.12 
" style="fill: none; stroke: #333333; stroke-width: 1.5; stroke-linejoin: miter; stroke-linecap: square"/>
   </g>
  </g>
  <g id="axes_2">
   <g id="patch_7">
    <path d="M 282.08 181.24 
L 445.68 181.24 
L 445.68 15.12 
L 282.08 15.12 
z
" style="fill: #ffffff"/>
   </g>
   <g id="matplotlib.axis_3">
    <g id="xtick_6">
     <g id="line2d_16">
      <g>
       <use xlink:href="#me58dae7bd6" x="282.89393" y="181.24" style="fill: #333333; stroke: #333333; stroke-width: 0.8"/>
      </g>
     </g>
     <g id="text_16">
      <!-- 0 -->
      <g style="fill: #333333" transform="translate(279.84393 195.59) scale(0.1 -0.1)">
       <use xlink:href="#Manrope-Regular-30"/>
      </g>
     </g>
    </g>
    <g id="xtick_7">
     <g id="line2d_17">
      <g>
       <use xlink:href="#me58dae7bd6" x="316.313402" y="181.24" style="fill: #333333; stroke: #333333; stroke-width: 0.8"/>
      </g>
     </g>
     <g id="text_17">
      <!-- 250 -->
      <g style="fill: #333333" transform="translate(307.525902 195.59) scale(0.1 -0.1)">
       <use xlink:href="#Manrope-Regular-32"/>
       <use xlink:href="#Manrope-Regular-35" x="57"/>
       <use xlink:href="#Manrope-Regular-30" x="114.75"/>
      </g>
     </g>
    </g>
    <g id="xtick_8">
     <g id="line2d_18">
      <g>
       <use xlink:href="#me58dae7bd6" x="349.732874" y="181.24" style="fill: #333333; stroke: #333333; stroke-width: 0.8"/>
      </g>
     </g>
     <g id="text_18">
      <!-- 500 -->
      <g style="fill: #333333" transform="translate(340.745374 195.59) scale(0.1 -0.1)">
       <use xlink:href="#Manrope-Regular-35"/>
       <use xlink:href="#Manrope-Regular-30" x="57.75"/>
       <use xlink:href="#Manrope-Regular-30" x="118.750015"/>
      </g>
     </g>
    </g>
    <g id="xtick_9">
     <g id="line2d_19">
      <g>
       <use xlink:href="#me58dae7bd6" x="383.152345" y="181.24" style="fill: #333333; stroke: #333333; stroke-width: 0.8"/>
      </g>
     </g>
     <g id="text_19">
      <!-- 750 -->
      <g style="fill: #333333" transform="translate(374.704689 195.59) scale(0.1 -0.1)">
       <use xlink:href="#Manrope-Regular-37"/>
       <use xlink:href="#Manrope-Regular-35" x="50.200012"/>
       <use xlink:href="#Manrope-Regular-30" x="107.950012"/>
      </g>
     </g>
    </g>
    <g id="xtick_10">
     <g id="line2d_20">
      <g>
       <use xlink:href="#me58dae7bd6" x="416.571817" y="181.24" style="fill: #333333; stroke: #333333; stroke-width: 0.8"/>
      </g>
     </g>
     <g id="text_20">
      <!-- 1000 -->
      <g style="fill: #333333" transform="translate(405.471817 195.59) scale(0.1 -0.1)">
       <use xlink:href="#Manrope-Regular-31"/>
       <use xlink:href="#Manrope-Regular-30" x="39"/>
       <use xlink:href="#Manrope-Regular-30" x="100.000015"/>
       <use xlink:href="#Manrope-Regular-30" x="161.000031"/>
      </g>
     </g>
    </g>
    <g id="text_21">
     <!-- Bytes of context -->
     <g style="fill: #333333" transform="translate(310.343125 212.28) scale(0.14 -0.14)">
      <defs>
       <path id="Manrope-Regular-42" d="M 448 0 
L 448 4608 
L 2227 4608 
Q 2614 4608 2902 4448 
Q 3190 4288 3350 4017 
Q 3510 3747 3510 3421 
Q 3510 3050 3312 2760 
Q 3114 2470 2781 2358 
L 2774 2515 
Q 3222 2387 3478 2067 
Q 3734 1747 3734 1293 
Q 3734 893 3564 603 
Q 3395 314 3088 157 
Q 2781 0 2374 0 
L 448 0 
z
M 922 451 
L 2259 451 
Q 2541 451 2765 552 
Q 2989 653 3118 838 
Q 3248 1024 3248 1286 
Q 3248 1542 3129 1747 
Q 3011 1952 2808 2075 
Q 2605 2198 2346 2198 
L 922 2198 
L 922 451 
z
M 922 2643 
L 2224 2643 
Q 2445 2643 2627 2744 
Q 2810 2845 2917 3021 
Q 3024 3197 3024 3427 
Q 3024 3754 2798 3958 
Q 2573 4163 2224 4163 
L 922 4163 
L 922 2643 
z
" transform="scale(0.015625)"/>
      </defs>
      <use xlink:href="#Manrope-Regular-42"/>
      <use xlink:href="#Manrope-Regular-79" x="61.300003"/>
      <use xlink:href="#Manrope-Regular-74" x="114.050003"/>
      <use xlink:href="#Manrope-Regular-65" x="154.100006"/>
      <use xlink:href="#Manrope-Regular-73" x="212.550018"/>
      <use xlink:href="#Manrope-Regular-20" x="265.050018"/>
      <use xlink:href="#Manrope-Regular-6f" x="285.050018"/>
      <use xlink:href="#Manrope-Regular-66" x="344.200027"/>
      <use xlink:href="#Manrope-Regular-20" x="379.650024"/>
      <use xlink:href="#Manrope-Regular-63" x="399.650024"/>
      <use xlink:href="#Manrope-Regular-6f" x="455.000031"/>
      <use xlink:href="#Manrope-Regular-6e" x="514.15004"/>
      <use xlink:href="#Manrope-Regular-74" x="573.550049"/>
      <use xlink:href="#Manrope-Regular-65" x="613.600052"/>
      <use xlink:href="#Manrope-Regular-78" x="672.050064"/>
      <use xlink:href="#Manrope-Regular-74" x="724.750076"/>
     </g>
    </g>
   </g>
   <g id="matplotlib.axis_4">
    <g id="ytick_9">
     <g id="line2d_21">
      <g>
       <use xlink:href="#mbba55486cc" x="282.08" y="170.791989" style="fill: #333333; stroke: #333333; stroke-width: 0.8"/>
      </g>
     </g>
     <g id="text_22">
      <!-- 0.6 -->
      <g style="fill: #333333" transform="translate(260.240937 174.466989) scale(0.1 -0.1)">
       <use xlink:href="#Manrope-Regular-30"/>
       <use xlink:href="#Manrope-Regular-2e" x="61.000015"/>
       <use xlink:href="#Manrope-Regular-36" x="86.350021"/>
      </g>
     </g>
    </g>
    <g id="ytick_10">
     <g id="line2d_22">
      <g>
       <use xlink:href="#mbba55486cc" x="282.08" y="149.304011" style="fill: #333333; stroke: #333333; stroke-width: 0.8"/>
      </g>
     </g>
     <g id="text_23">
      <!-- 0.7 -->
      <g style="fill: #333333" transform="translate(261.425312 152.979011) scale(0.1 -0.1)">
       <use xlink:href="#Manrope-Regular-30"/>
       <use xlink:href="#Manrope-Regular-2e" x="61.000015"/>
       <use xlink:href="#Manrope-Regular-37" x="86.350021"/>
      </g>
     </g>
    </g>
    <g id="ytick_11">
     <g id="line2d_23">
      <g>
       <use xlink:href="#mbba55486cc" x="282.08" y="127.816032" style="fill: #333333; stroke: #333333; stroke-width: 0.8"/>
      </g>
     </g>
     <g id="text_24">
      <!-- 0.8 -->
      <g style="fill: #333333" transform="translate(260.640937 131.491032) scale(0.1 -0.1)">
       <use xlink:href="#Manrope-Regular-30"/>
       <use xlink:href="#Manrope-Regular-2e" x="61.000015"/>
       <use xlink:href="#Manrope-Regular-38" x="86.350021"/>
      </g>
     </g>
    </g>
    <g id="ytick_12">
     <g id="line2d_24">
      <g>
       <use xlink:href="#mbba55486cc" x="282.08" y="106.328053" style="fill: #333333; stroke: #333333; stroke-width: 0.8"/>
      </g>
     </g>
     <g id="text_25">
      <!-- 0.9 -->
      <g style="fill: #333333" transform="translate(260.240937 110.003053) scale(0.1 -0.1)">
       <use xlink:href="#Manrope-Regular-30"/>
       <use xlink:href="#Manrope-Regular-2e" x="61.000015"/>
       <use xlink:href="#Manrope-Regular-39" x="86.350021"/>
      </g>
     </g>
    </g>
    <g id="ytick_13">
     <g id="line2d_25">
      <g>
       <use xlink:href="#mbba55486cc" x="282.08" y="84.840074" style="fill: #333333; stroke: #333333; stroke-width: 0.8"/>
      </g>
     </g>
     <g id="text_26">
      <!-- 1.0 -->
      <g style="fill: #333333" transform="translate(262.545625 88.515074) scale(0.1 -0.1)">
       <use xlink:href="#Manrope-Regular-31"/>
       <use xlink:href="#Manrope-Regular-2e" x="39"/>
       <use xlink:href="#Manrope-Regular-30" x="64.350006"/>
      </g>
     </g>
    </g>
    <g id="ytick_14">
     <g id="line2d_26">
      <g>
       <use xlink:href="#mbba55486cc" x="282.08" y="63.352095" style="fill: #333333; stroke: #333333; stroke-width: 0.8"/>
      </g>
     </g>
     <g id="text_27">
      <!-- 1.1 -->
      <g style="fill: #333333" transform="translate(264.745625 67.027095) scale(0.1 -0.1)">
       <use xlink:href="#Manrope-Regular-31"/>
       <use xlink:href="#Manrope-Regular-2e" x="39"/>
       <use xlink:href="#Manrope-Regular-31" x="64.350006"/>
      </g>
     </g>
    </g>
    <g id="ytick_15">
     <g id="line2d_27">
      <g>
       <use xlink:href="#mbba55486cc" x="282.08" y="41.864116" style="fill: #333333; stroke: #333333; stroke-width: 0.8"/>
      </g>
     </g>
     <g id="text_28">
      <!-- 1.2 -->
      <g style="fill: #333333" transform="translate(262.945625 45.539116) scale(0.1 -0.1)">
       <use xlink:href="#Manrope-Regular-31"/>
       <use xlink:href="#Manrope-Regular-2e" x="39"/>
       <use xlink:href="#Manrope-Regular-32" x="64.350006"/>
      </g>
     </g>
    </g>
    <g id="ytick_16">
     <g id="line2d_28">
      <g>
       <use xlink:href="#mbba55486cc" x="282.08" y="20.376137" style="fill: #333333; stroke: #333333; stroke-width: 0.8"/>
      </g>
     </g>
     <g id="text_29">
      <!-- 1.3 -->
      <g style="fill: #333333" transform="translate(263.115937 24.051137) scale(0.1 -0.1)">
       <use xlink:href="#Manrope-Regular-31"/>
       <use xlink:href="#Manrope-Regular-2e" x="39"/>
       <use xlink:href="#Manrope-Regular-33" x="64.350006"/>
      </g>
     </g>
    </g>
    <g id="text_30">
     <!-- Average bits per byte -->
     <g style="fill: #333333" transform="translate(252.670937 166.856563) rotate(-90) scale(0.14 -0.14)">
      <use xlink:href="#Manrope-Regular-41"/>
      <use xlink:href="#Manrope-Regular-76" x="63.350006"/>
      <use xlink:href="#Manrope-Regular-65" x="114.150009"/>
      <use xlink:href="#Manrope-Regular-72" x="172.600021"/>
      <use xlink:href="#Manrope-Regular-61" x="208.650024"/>
      <use xlink:href="#Manrope-Regular-67" x="264.200027"/>
      <use xlink:href="#Manrope-Regular-65" x="323.40004"/>
      <use xlink:href="#Manrope-Regular-20" x="381.850052"/>
      <use xlink:href="#Manrope-Regular-62" x="401.850052"/>
      <use xlink:href="#Manrope-Regular-69" x="461.050064"/>
      <use xlink:href="#Manrope-Regular-74" x="484.40007"/>
      <use xlink:href="#Manrope-Regular-73" x="524.450073"/>
      <use xlink:href="#Manrope-Regular-20" x="576.950073"/>
      <use xlink:href="#Manrope-Regular-70" x="596.950073"/>
      <use xlink:href="#Manrope-Regular-65" x="656.150085"/>
      <use xlink:href="#Manrope-Regular-72" x="714.600098"/>
      <use xlink:href="#Manrope-Regular-20" x="750.650101"/>
      <use xlink:href="#Manrope-Regular-62" x="770.650101"/>
      <use xlink:href="#Manrope-Regular-79" x="829.850113"/>
      <use xlink:href="#Manrope-Regular-74" x="882.600113"/>
      <use xlink:href="#Manrope-Regular-65" x="922.650116"/>
     </g>
    </g>
   </g>
   <g id="line2d_29">
    <path d="M 282.89393 38.016409 
L 283.707861 69.627832 
L 284.521791 86.290699 
L 285.335721 97.536456 
L 286.149652 106.151831 
L 286.963582 112.533616 
L 287.777512 117.569748 
L 288.591443 121.265681 
L 289.405373 125.560952 
L 290.219303 129.073398 
L 291.033234 131.191984 
L 291.847164 133.96166 
L 295.102886 140.977581 
L 295.916816 141.084803 
L 296.730746 142.709935 
L 297.544677 143.821241 
L 298.358607 144.647923 
L 299.172537 146.972291 
L 299.986468 147.417747 
L 300.800398 147.585421 
L 301.614328 148.835364 
L 303.242189 149.322101 
L 304.056119 150.498704 
L 304.87005 151.05044 
L 305.68398 151.4118 
L 306.49791 151.590305 
L 307.311841 152.743287 
L 308.125771 153.309759 
L 308.939701 153.473863 
L 309.753632 154.71528 
L 310.567562 154.459655 
L 311.381493 154.583112 
L 312.195423 155.773148 
L 313.009353 155.290761 
L 313.823284 155.140437 
L 314.637214 156.608158 
L 315.451144 156.33242 
L 316.265075 156.975367 
L 317.079005 156.729532 
L 317.892935 156.351913 
L 318.706866 157.496159 
L 319.520796 157.814107 
L 321.962587 158.31103 
L 322.776517 158.627045 
L 323.590448 158.817757 
L 324.404378 159.707629 
L 325.218308 159.032684 
L 326.032239 159.668443 
L 326.846169 159.790276 
L 327.6601 160.164276 
L 328.47403 160.260828 
L 329.28796 160.100887 
L 330.915821 160.653975 
L 331.729751 160.680037 
L 332.543682 160.079721 
L 334.171542 161.358155 
L 334.985473 161.121577 
L 335.799403 161.577605 
L 336.613333 161.271641 
L 338.241194 162.424698 
L 339.055124 161.297083 
L 339.869055 162.532576 
L 340.682985 162.07697 
L 341.496915 162.578578 
L 342.310846 162.735718 
L 343.124776 163.016562 
L 343.938706 163.076964 
L 344.752637 162.622349 
L 345.566567 163.014567 
L 346.380498 163.237475 
L 347.194428 163.007429 
L 348.008358 163.247996 
L 348.822289 163.305102 
L 349.636219 163.571508 
L 350.450149 163.474845 
L 351.26408 163.650611 
L 352.07801 162.819171 
L 354.519801 163.926783 
L 355.333731 163.841757 
L 356.961592 163.992589 
L 357.775522 163.9046 
L 358.589453 164.366266 
L 359.403383 164.57646 
L 361.031244 164.15331 
L 361.845174 163.81562 
L 362.659104 164.075756 
L 363.473035 164.774991 
L 364.286965 163.732564 
L 365.100896 164.53596 
L 365.914826 164.804263 
L 366.728756 164.454094 
L 368.356617 164.867738 
L 369.170547 164.624989 
L 369.984478 164.662453 
L 370.798408 164.927843 
L 371.612338 164.900715 
L 372.426269 165.005954 
L 373.240199 165.749654 
L 374.054129 166.023224 
L 374.86806 165.737051 
L 375.68199 165.690925 
L 376.49592 165.40883 
L 377.309851 165.817529 
L 378.937711 165.281779 
L 379.751642 165.075862 
L 380.565572 166.074381 
L 381.379502 166.501373 
L 382.193433 166.317626 
L 383.007363 165.15023 
L 383.821294 166.540658 
L 384.635224 165.523809 
L 385.449154 165.932212 
L 386.263085 166.069548 
L 387.077015 165.297481 
L 387.890945 165.947628 
L 388.704876 166.388029 
L 389.518806 166.223156 
L 390.332736 165.535136 
L 391.146667 165.676649 
L 391.960597 166.629898 
L 392.774527 166.023546 
L 394.402388 165.945497 
L 395.216318 166.119119 
L 396.030249 166.672652 
L 397.658109 166.883316 
L 398.47204 166.514967 
L 399.28597 166.809654 
L 400.0999 166.638399 
L 400.913831 166.199498 
L 401.727761 166.672467 
L 402.541692 166.512043 
L 404.169552 166.745175 
L 404.983483 167.303442 
L 406.611343 167.209852 
L 407.425274 167.038932 
L 408.239204 167.147839 
L 409.053134 166.887691 
L 409.867065 167.3026 
L 410.680995 166.77923 
L 411.494925 167.36496 
L 412.308856 166.658017 
L 413.936716 166.956372 
L 414.750647 167.411222 
L 415.564577 166.728853 
L 416.378507 167.515903 
L 417.192438 166.935453 
L 418.820299 167.156973 
L 419.634229 167.226372 
L 420.448159 167.466097 
L 421.26209 167.233708 
L 422.07602 167.179887 
L 422.88995 167.709701 
L 423.703881 167.549426 
L 424.517811 167.77739 
L 425.331741 166.984193 
L 426.959602 167.901577 
L 427.773532 167.668024 
L 429.401393 167.659126 
L 431.029254 168.161812 
L 431.843184 168.157462 
L 432.657114 167.731128 
L 433.471045 168.157115 
L 434.284975 168.214432 
L 435.098905 167.736444 
L 435.912836 167.722304 
L 436.726766 167.883447 
L 437.540697 168.311083 
L 438.354627 168.040723 
L 439.168557 168.064542 
L 439.982488 168.214271 
L 440.796418 167.312316 
L 441.610348 167.514887 
L 442.424279 168.253469 
L 443.238209 168.428715 
L 444.052139 167.534852 
L 444.86607 167.951681 
L 445.68 168.58925 
L 446.49393 167.743545 
L 446.49393 167.743545 
" clip-path="url(#pabcfbd97d2)" style="fill: none; stroke: #c16c8a; stroke-width: 1.5; stroke-linecap: square"/>
   </g>
   <g id="line2d_30">
    <path d="M 282.89393 22.670909 
L 283.489957 56.091414 
L 284.085984 73.693069 
L 284.682011 85.618728 
L 285.278038 95.042813 
L 287.066118 112.89155 
L 287.662145 115.727594 
L 288.854198 122.685442 
L 289.450225 124.455559 
L 290.046252 127.40398 
L 290.642279 128.721184 
L 292.430359 135.817022 
L 293.026386 137.132036 
L 293.622413 137.883712 
L 294.21844 139.475111 
L 294.814466 140.299819 
L 295.410493 140.53278 
L 296.00652 143.00104 
L 296.602547 141.902272 
L 297.7946 144.63069 
L 298.390627 144.695363 
L 299.582681 146.24991 
L 300.178708 147.324901 
L 300.774734 148.76188 
L 301.370761 148.481383 
L 301.966788 149.030379 
L 303.158842 150.753146 
L 303.754868 150.493224 
L 304.350895 151.301671 
L 304.946922 151.263942 
L 305.542949 151.998651 
L 306.138976 151.470532 
L 306.735002 152.040643 
L 307.927056 153.656441 
L 308.523083 152.854836 
L 309.11911 153.520321 
L 309.715136 153.893413 
L 310.311163 154.468208 
L 310.90719 154.443892 
L 311.503217 155.383 
L 312.099244 155.75899 
L 312.69527 155.412606 
L 313.291297 155.515884 
L 313.887324 155.946319 
L 314.483351 155.562965 
L 315.079378 156.497439 
L 315.675404 156.06911 
L 316.271431 156.320321 
L 316.867458 156.9272 
L 317.463485 156.669434 
L 318.059512 157.389145 
L 318.655538 157.03683 
L 319.251565 158.33201 
L 319.847592 157.618264 
L 320.443619 158.578376 
L 321.039646 158.074936 
L 321.635672 158.524555 
L 322.827726 158.856666 
L 323.423753 158.865192 
L 324.019779 158.627698 
L 324.615806 159.950219 
L 325.211833 159.012704 
L 326.403887 160.193838 
L 326.999913 159.737074 
L 327.59594 159.989397 
L 328.191967 159.850024 
L 328.787994 160.765086 
L 329.384021 159.613255 
L 329.980047 159.822465 
L 330.576074 160.768936 
L 331.768128 161.57189 
L 332.364155 160.843989 
L 332.960181 161.367036 
L 333.556208 160.765482 
L 334.748262 160.544392 
L 335.344289 162.178887 
L 335.940315 161.353926 
L 336.536342 162.071598 
L 337.132369 161.739765 
L 337.728396 161.930667 
L 338.324423 161.739184 
L 338.920449 162.90982 
L 339.516476 162.375905 
L 340.112503 161.608776 
L 340.70853 163.415367 
L 341.304557 162.422902 
L 341.900583 162.592412 
L 342.49661 162.893652 
L 343.092637 162.914631 
L 343.688664 162.752055 
L 344.284691 162.936503 
L 345.476744 162.849478 
L 346.072771 162.528758 
L 346.668798 162.912617 
L 347.264825 163.056489 
L 347.860851 163.481161 
L 348.456878 163.384985 
L 349.052905 163.005878 
L 349.648932 163.41043 
L 350.244959 162.212959 
L 350.840985 163.016283 
L 351.437012 163.007512 
L 352.629066 163.916002 
L 353.225093 163.318113 
L 353.821119 163.287554 
L 354.417146 163.861709 
L 355.013173 163.727156 
L 355.6092 164.533867 
L 356.205227 164.101958 
L 356.801253 164.229535 
L 357.39728 164.816041 
L 357.993307 164.045407 
L 358.589334 164.019061 
L 359.185361 164.767679 
L 359.781387 164.364914 
L 360.377414 164.290593 
L 360.973441 164.490864 
L 361.569468 164.878355 
L 362.165495 165.002461 
L 362.761521 164.963771 
L 363.357548 165.79217 
L 363.953575 164.960376 
L 364.549602 164.587849 
L 365.145629 164.752194 
L 365.741655 164.614919 
L 366.337682 165.146779 
L 366.933709 165.859227 
L 367.529736 165.223845 
L 368.125763 165.189967 
L 368.721789 164.754511 
L 369.317816 164.843027 
L 369.913843 165.805347 
L 370.50987 165.440731 
L 371.105897 166.057821 
L 371.701923 165.265382 
L 372.29795 165.426905 
L 372.893977 166.085204 
L 373.490004 166.0505 
L 374.086031 164.957823 
L 374.682057 164.873679 
L 375.278084 165.207188 
L 375.874111 165.824228 
L 376.470138 164.988677 
L 377.066165 165.541279 
L 377.662191 165.124409 
L 378.258218 165.45561 
L 378.854245 166.168589 
L 379.450272 166.086602 
L 380.046299 166.232605 
L 380.642325 166.247308 
L 381.238352 165.607545 
L 382.430406 165.961064 
L 383.026433 166.475407 
L 383.622459 166.270022 
L 384.218486 166.302367 
L 384.814513 166.505048 
L 385.41054 165.456124 
L 386.006567 165.813031 
L 386.602593 166.378625 
L 387.794647 165.434269 
L 388.390674 166.342244 
L 388.986701 166.763504 
L 389.582727 165.872775 
L 390.178754 166.01732 
L 390.774781 165.4417 
L 391.370808 166.433272 
L 391.966835 166.316589 
L 393.158888 166.693506 
L 393.754915 166.272921 
L 394.350942 166.871012 
L 394.946969 166.581432 
L 395.542995 166.847202 
L 396.139022 166.853917 
L 396.735049 166.420305 
L 397.331076 166.90858 
L 397.927103 167.029838 
L 398.523129 166.763352 
L 399.715183 166.759553 
L 400.31121 166.991006 
L 400.907237 166.723054 
L 401.503263 167.121472 
L 402.09929 166.775097 
L 403.291344 166.619009 
L 403.887371 166.936081 
L 405.079424 166.527476 
L 405.675451 167.263532 
L 406.271478 167.288859 
L 407.463531 167.939625 
L 408.059558 168.617555 
L 408.655585 166.995041 
L 409.251612 168.400669 
L 410.443665 167.686747 
L 411.635719 167.671412 
L 412.231746 166.667388 
L 412.827773 168.703772 
L 413.423799 167.970774 
L 414.019826 167.859846 
L 414.615853 167.38693 
L 415.21188 168.138321 
L 415.807907 167.146159 
L 416.403933 168.027325 
L 416.99996 167.221869 
L 418.192014 167.216839 
L 418.788041 168.054943 
L 419.384067 167.485827 
L 419.980094 167.701297 
L 420.576121 168.438592 
L 421.172148 167.737813 
L 421.768175 168.15384 
L 422.364201 168.116356 
L 422.960228 167.495339 
L 423.556255 166.692099 
L 424.152282 167.814332 
L 424.748309 167.711365 
L 425.344335 168.241548 
L 427.132416 167.665135 
L 427.728443 168.580045 
L 428.324469 168.156528 
L 428.920496 167.527431 
L 429.516523 168.480862 
L 430.11255 168.34058 
L 430.708577 167.682989 
L 431.304603 168.619206 
L 431.90063 168.503501 
L 432.496657 168.103667 
L 433.092684 167.961321 
L 433.688711 167.653896 
L 434.284737 168.082688 
L 434.880764 167.965761 
L 435.476791 167.366221 
L 436.072818 166.954802 
L 436.668845 167.928453 
L 437.264871 168.450017 
L 437.860898 168.153857 
L 438.456925 168.569059 
L 439.052952 168.235254 
L 439.648979 168.348323 
L 440.245005 168.662774 
L 440.841032 167.880092 
L 441.437059 168.639882 
L 442.033086 168.798734 
L 442.629113 167.802553 
L 443.225139 169.020961 
L 443.821166 168.288621 
L 444.417193 168.549967 
L 445.01322 168.261617 
L 446.205273 168.424387 
L 446.205273 168.424387 
" clip-path="url(#pabcfbd97d2)" style="fill: none; stroke: #4086bf; stroke-width: 1.5; stroke-linecap: square"/>
   </g>
   <g id="patch_8">
    <path d="M 282.08 181.24 
L 282.08 15.12 
" style="fill: none; stroke: #333333; stroke-width: 1.5; stroke-linejoin: miter; stroke-linecap: square"/>
   </g>
   <g id="patch_9">
    <path d="M 445.68 181.24 
L 445.68 15.12 
" style="fill: none; stroke: #333333; stroke-width: 1.5; stroke-linejoin: miter; stroke-linecap: square"/>
   </g>
   <g id="patch_10">
    <path d="M 282.08 181.24 
L 445.68 181.24 
" style="fill: none; stroke: #333333; stroke-width: 1.5; stroke-linejoin: miter; stroke-linecap: square"/>
   </g>
   <g id="patch_11">
    <path d="M 282.08 15.12 
L 445.68 15.12 
" style="fill: none; stroke: #333333; stroke-width: 1.5; stroke-linejoin: miter; stroke-linecap: square"/>
   </g>
   <g id="legend_1">
    <g id="patch_12">
     <path d="M 344.46375 60.12 
L 437.28 60.12 
Q 439.68 60.12 439.68 57.72 
L 439.68 23.52 
Q 439.68 21.12 437.28 21.12 
L 344.46375 21.12 
Q 342.06375 21.12 342.06375 23.52 
L 342.06375 57.72 
Q 342.06375 60.12 344.46375 60.12 
z
" style="fill: #ffffff; opacity: 0.8; stroke: #cccccc; stroke-linejoin: miter"/>
    </g>
    <g id="line2d_31">
     <path d="M 346.86375 30.54 
L 358.86375 30.54 
L 370.86375 30.54 
" style="fill: none; stroke: #c16c8a; stroke-width: 1.5; stroke-linecap: square"/>
    </g>
    <g id="text_31">
     <!-- SuperBPE -->
     <g style="fill: #333333" transform="translate(380.46375 34.74) scale(0.12 -0.12)">
      <defs>
       <path id="Manrope-Regular-53" d="M 2048 -96 
Q 1565 -96 1179 65 
Q 794 227 542 524 
Q 291 822 214 1232 
L 694 1312 
Q 810 864 1181 609 
Q 1552 355 2067 355 
Q 2406 355 2675 462 
Q 2944 570 3097 768 
Q 3251 966 3251 1238 
Q 3251 1418 3187 1544 
Q 3123 1670 3017 1753 
Q 2912 1837 2787 1893 
Q 2662 1949 2544 1984 
L 1376 2333 
Q 1165 2394 985 2488 
Q 806 2582 673 2715 
Q 541 2848 467 3027 
Q 394 3206 394 3437 
Q 394 3827 598 4112 
Q 803 4397 1158 4550 
Q 1514 4704 1968 4701 
Q 2429 4701 2792 4537 
Q 3155 4374 3392 4072 
Q 3629 3770 3706 3357 
L 3213 3267 
Q 3165 3568 2992 3789 
Q 2819 4010 2552 4130 
Q 2285 4250 1965 4253 
Q 1654 4253 1412 4149 
Q 1171 4045 1030 3865 
Q 890 3686 890 3456 
Q 890 3222 1019 3081 
Q 1149 2941 1339 2861 
Q 1530 2781 1709 2730 
L 2611 2464 
Q 2752 2426 2942 2354 
Q 3133 2282 3313 2149 
Q 3494 2016 3612 1801 
Q 3731 1587 3731 1258 
Q 3731 938 3604 685 
Q 3478 432 3249 259 
Q 3021 86 2715 -5 
Q 2410 -96 2048 -96 
z
" transform="scale(0.015625)"/>
       <path id="Manrope-Regular-75" d="M 1770 -86 
Q 1459 -86 1227 10 
Q 995 106 833 269 
Q 672 432 573 641 
Q 474 851 429 1086 
Q 384 1322 384 1555 
L 384 3456 
L 858 3456 
L 858 1693 
Q 858 1408 912 1165 
Q 966 922 1086 741 
Q 1206 560 1396 461 
Q 1587 362 1859 362 
Q 2109 362 2299 448 
Q 2490 534 2619 696 
Q 2749 858 2816 1090 
Q 2883 1322 2883 1613 
L 3216 1539 
Q 3216 1008 3030 646 
Q 2845 285 2518 99 
Q 2192 -86 1770 -86 
z
M 2931 0 
L 2931 851 
L 2883 851 
L 2883 3456 
L 3354 3456 
L 3354 0 
L 2931 0 
z
" transform="scale(0.015625)"/>
       <path id="Manrope-Regular-50" d="M 448 0 
L 448 4608 
L 2227 4608 
Q 2294 4608 2379 4603 
Q 2464 4598 2550 4582 
Q 2912 4528 3163 4331 
Q 3414 4134 3544 3836 
Q 3674 3539 3674 3178 
Q 3674 2819 3542 2521 
Q 3411 2224 3160 2027 
Q 2909 1830 2550 1776 
Q 2464 1763 2379 1756 
Q 2294 1750 2227 1750 
L 918 1750 
L 918 0 
L 448 0 
z
M 918 2198 
L 2214 2198 
Q 2272 2198 2349 2204 
Q 2426 2211 2499 2227 
Q 2736 2278 2888 2422 
Q 3040 2566 3115 2764 
Q 3190 2963 3190 3178 
Q 3190 3392 3115 3592 
Q 3040 3792 2888 3936 
Q 2736 4080 2499 4131 
Q 2426 4147 2349 4152 
Q 2272 4157 2214 4157 
L 918 4157 
L 918 2198 
z
" transform="scale(0.015625)"/>
       <path id="Manrope-Regular-45" d="M 448 0 
L 448 4608 
L 3328 4608 
L 3328 4157 
L 918 4157 
L 918 2563 
L 2944 2563 
L 2944 2112 
L 918 2112 
L 918 451 
L 3328 451 
L 3328 0 
L 448 0 
z
" transform="scale(0.015625)"/>
      </defs>
      <use xlink:href="#Manrope-Regular-53"/>
      <use xlink:href="#Manrope-Regular-75" x="61.650009"/>
      <use xlink:href="#Manrope-Regular-70" x="121.050018"/>
      <use xlink:href="#Manrope-Regular-65" x="180.250031"/>
      <use xlink:href="#Manrope-Regular-72" x="238.700043"/>
      <use xlink:href="#Manrope-Regular-42" x="274.750046"/>
      <use xlink:href="#Manrope-Regular-50" x="336.050049"/>
      <use xlink:href="#Manrope-Regular-45" x="396.450058"/>
     </g>
    </g>
    <g id="line2d_32">
     <path d="M 346.86375 48.24 
L 358.86375 48.24 
L 370.86375 48.24 
" style="fill: none; stroke: #4086bf; stroke-width: 1.5; stroke-linecap: square"/>
    </g>
    <g id="text_32">
     <!-- BPE -->
     <g style="fill: #333333" transform="translate(380.46375 52.44) scale(0.12 -0.12)">
      <use xlink:href="#Manrope-Regular-42"/>
      <use xlink:href="#Manrope-Regular-50" x="61.300003"/>
      <use xlink:href="#Manrope-Regular-45" x="121.700012"/>
     </g>
    </g>
   </g>
  </g>
 </g>
 <defs>
  <clipPath id="p8562ed755e">
   <rect x="54.74" y="15.12" width="163.6" height="166.12"/>
  </clipPath>
  <clipPath id="pabcfbd97d2">
   <rect x="282.08" y="15.12" width="163.6" height="166.12"/>
  </clipPath>
 </defs>
</svg>
