<?xml version="1.0" encoding="utf-8" standalone="no"?>
<!DOCTYPE svg PUBLIC "-//W3C//DTD SVG 1.1//EN"
  "http://www.w3.org/Graphics/SVG/1.1/DTD/svg11.dtd">
<svg xmlns:xlink="http://www.w3.org/1999/xlink" width="432pt" height="345.6pt" viewBox="0 0 432 345.6" xmlns="http://www.w3.org/2000/svg" version="1.1">
 <metadata>
  <rdf:RDF xmlns:dc="http://purl.org/dc/elements/1.1/" xmlns:cc="http://creativecommons.org/ns#" xmlns:rdf="http://www.w3.org/1999/02/22-rdf-syntax-ns#">
   <cc:Work>
    <dc:type rdf:resource="http://purl.org/dc/dcmitype/StillImage"/>
    <dc:date>2025-03-20T12:02:42.940298</dc:date>
    <dc:format>image/svg+xml</dc:format>
    <dc:creator>
     <cc:Agent>
      <dc:title>Matplotlib v3.9.2, https://matplotlib.org/</dc:title>
     </cc:Agent>
    </dc:creator>
   </cc:Work>
  </rdf:RDF>
 </metadata>
 <defs>
  <style type="text/css">*{stroke-linejoin: round; stroke-linecap: butt}</style>
 </defs>
 <g id="figure_1">
  <g id="patch_1">
   <path d="M 0 345.6 
L 432 345.6 
L 432 0 
L 0 0 
z
" style="fill: #ffffff"/>
  </g>
  <g id="axes_1">
   <g id="patch_2">
    <path d="M 33.19 308 
L 418.27 308 
L 418.27 1.4 
L 33.19 1.4 
z
" style="fill: #ffffff"/>
   </g>
   <g id="PolyCollection_1"/>
   <g id="PolyCollection_2"/>
   <g id="PolyCollection_3"/>
   <g id="PolyCollection_4"/>
   <g id="PolyCollection_5"/>
   <g id="PolyCollection_6"/>
   <g id="PolyCollection_7"/>
   <g id="PolyCollection_8"/>
   <g id="PolyCollection_9"/>
   <g id="PolyCollection_10"/>
   <g id="PolyCollection_11"/>
   <g id="matplotlib.axis_1">
    <g id="xtick_1">
     <g id="line2d_1">
      <defs>
       <path id="me0a1c611ad" d="M 0 0 
L 0 3.5 
" style="stroke: #333333; stroke-width: 0.8"/>
      </defs>
      <g>
       <use xlink:href="#me0a1c611ad" x="51.527143" y="308" style="fill: #333333; stroke: #333333; stroke-width: 0.8"/>
      </g>
     </g>
     <g id="text_1">
      <!-- 0 -->
      <g style="fill: #333333" transform="translate(48.380971 323.36) scale(0.11 -0.11)">
       <defs>
        <path id="NotoSans-Regular-30" d="M 3347 2291 
Q 3347 1734 3264 1299 
Q 3181 864 2998 560 
Q 2816 256 2525 96 
Q 2234 -64 1824 -64 
Q 1312 -64 976 217 
Q 640 499 477 1027 
Q 314 1555 314 2291 
Q 314 3034 464 3558 
Q 614 4083 947 4361 
Q 1280 4640 1824 4640 
Q 2336 4640 2675 4361 
Q 3014 4083 3180 3558 
Q 3347 3034 3347 2291 
z
M 877 2291 
Q 877 1664 969 1248 
Q 1062 832 1270 624 
Q 1478 416 1824 416 
Q 2170 416 2378 621 
Q 2586 826 2682 1245 
Q 2778 1664 2778 2291 
Q 2778 2918 2682 3331 
Q 2586 3744 2378 3952 
Q 2170 4160 1824 4160 
Q 1478 4160 1270 3952 
Q 1062 3744 969 3331 
Q 877 2918 877 2291 
z
" transform="scale(0.015625)"/>
       </defs>
       <use xlink:href="#NotoSans-Regular-30"/>
      </g>
     </g>
    </g>
    <g id="xtick_2">
     <g id="line2d_2">
      <g>
       <use xlink:href="#me0a1c611ad" x="88.201429" y="308" style="fill: #333333; stroke: #333333; stroke-width: 0.8"/>
      </g>
     </g>
     <g id="text_2">
      <!-- 20k -->
      <g style="fill: #333333" transform="translate(78.971741 323.36) scale(0.11 -0.11)">
       <defs>
        <path id="NotoSans-Regular-32" d="M 3328 0 
L 307 0 
L 307 467 
L 1504 1677 
Q 1850 2022 2086 2291 
Q 2323 2560 2444 2819 
Q 2566 3078 2566 3386 
Q 2566 3763 2342 3958 
Q 2118 4154 1760 4154 
Q 1427 4154 1174 4038 
Q 922 3923 659 3718 
L 358 4096 
Q 538 4250 752 4371 
Q 966 4493 1219 4563 
Q 1472 4634 1760 4634 
Q 2189 4634 2496 4486 
Q 2803 4339 2972 4067 
Q 3142 3795 3142 3418 
Q 3142 3059 2995 2745 
Q 2848 2432 2585 2128 
Q 2323 1824 1971 1478 
L 1018 538 
L 1018 512 
L 3328 512 
L 3328 0 
z
" transform="scale(0.015625)"/>
        <path id="NotoSans-Regular-6b" d="M 1101 2323 
Q 1101 2221 1091 2054 
Q 1082 1888 1075 1766 
L 1101 1766 
Q 1139 1818 1216 1914 
Q 1293 2010 1373 2109 
Q 1453 2208 1510 2272 
L 2605 3430 
L 3264 3430 
L 1875 1965 
L 3360 0 
L 2682 0 
L 1491 1600 
L 1101 1261 
L 1101 0 
L 544 0 
L 544 4864 
L 1101 4864 
L 1101 2323 
z
" transform="scale(0.015625)"/>
       </defs>
       <use xlink:href="#NotoSans-Regular-32"/>
       <use xlink:href="#NotoSans-Regular-30" x="57.199997"/>
       <use xlink:href="#NotoSans-Regular-6b" x="114.399994"/>
      </g>
     </g>
    </g>
    <g id="xtick_3">
     <g id="line2d_3">
      <g>
       <use xlink:href="#me0a1c611ad" x="124.875714" y="308" style="fill: #333333; stroke: #333333; stroke-width: 0.8"/>
      </g>
     </g>
     <g id="text_3">
      <!-- 40k -->
      <g style="fill: #333333" transform="translate(115.646027 323.36) scale(0.11 -0.11)">
       <defs>
        <path id="NotoSans-Regular-34" d="M 3533 1037 
L 2867 1037 
L 2867 0 
L 2323 0 
L 2323 1037 
L 134 1037 
L 134 1517 
L 2285 4595 
L 2867 4595 
L 2867 1542 
L 3533 1542 
L 3533 1037 
z
M 2323 2982 
Q 2323 3149 2326 3286 
Q 2330 3424 2336 3545 
Q 2342 3667 2345 3779 
Q 2349 3891 2355 3994 
L 2330 3994 
Q 2278 3872 2201 3731 
Q 2125 3590 2054 3494 
L 685 1542 
L 2323 1542 
L 2323 2982 
z
" transform="scale(0.015625)"/>
       </defs>
       <use xlink:href="#NotoSans-Regular-34"/>
       <use xlink:href="#NotoSans-Regular-30" x="57.199997"/>
       <use xlink:href="#NotoSans-Regular-6b" x="114.399994"/>
      </g>
     </g>
    </g>
    <g id="xtick_4">
     <g id="line2d_4">
      <g>
       <use xlink:href="#me0a1c611ad" x="161.55" y="308" style="fill: #333333; stroke: #333333; stroke-width: 0.8"/>
      </g>
     </g>
     <g id="text_4">
      <!-- 60k -->
      <g style="fill: #333333" transform="translate(152.320312 323.36) scale(0.11 -0.11)">
       <defs>
        <path id="NotoSans-Regular-36" d="M 352 1952 
Q 352 2349 406 2733 
Q 461 3117 595 3459 
Q 730 3802 966 4067 
Q 1203 4333 1564 4483 
Q 1926 4634 2445 4634 
Q 2579 4634 2742 4621 
Q 2906 4608 3008 4576 
L 3008 4096 
Q 2893 4134 2749 4153 
Q 2605 4173 2458 4173 
Q 2016 4173 1721 4025 
Q 1427 3878 1257 3622 
Q 1088 3366 1011 3033 
Q 934 2701 915 2323 
L 954 2323 
Q 1050 2477 1197 2598 
Q 1344 2720 1552 2790 
Q 1760 2861 2035 2861 
Q 2432 2861 2729 2697 
Q 3027 2534 3193 2224 
Q 3360 1914 3360 1472 
Q 3360 998 3181 652 
Q 3002 307 2678 121 
Q 2355 -64 1907 -64 
Q 1581 -64 1299 57 
Q 1018 179 803 428 
Q 589 678 470 1059 
Q 352 1440 352 1952 
z
M 1901 410 
Q 2304 410 2553 669 
Q 2803 928 2803 1472 
Q 2803 1907 2582 2163 
Q 2362 2419 1920 2419 
Q 1619 2419 1395 2294 
Q 1171 2170 1046 1978 
Q 922 1786 922 1581 
Q 922 1370 982 1165 
Q 1043 960 1168 787 
Q 1293 614 1475 512 
Q 1658 410 1901 410 
z
" transform="scale(0.015625)"/>
       </defs>
       <use xlink:href="#NotoSans-Regular-36"/>
       <use xlink:href="#NotoSans-Regular-30" x="57.199997"/>
       <use xlink:href="#NotoSans-Regular-6b" x="114.399994"/>
      </g>
     </g>
    </g>
    <g id="xtick_5">
     <g id="line2d_5">
      <g>
       <use xlink:href="#me0a1c611ad" x="198.224286" y="308" style="fill: #333333; stroke: #333333; stroke-width: 0.8"/>
      </g>
     </g>
     <g id="text_5">
      <!-- 80k -->
      <g style="fill: #333333" transform="translate(188.994598 323.36) scale(0.11 -0.11)">
       <defs>
        <path id="NotoSans-Regular-38" d="M 1824 4634 
Q 2227 4634 2534 4509 
Q 2842 4384 3018 4141 
Q 3194 3898 3194 3539 
Q 3194 3264 3075 3059 
Q 2957 2854 2758 2697 
Q 2560 2541 2323 2419 
Q 2605 2285 2835 2115 
Q 3066 1946 3203 1722 
Q 3341 1498 3341 1184 
Q 3341 800 3155 521 
Q 2970 243 2634 89 
Q 2298 -64 1843 -64 
Q 1350 -64 1008 83 
Q 666 230 490 502 
Q 314 774 314 1165 
Q 314 1478 445 1708 
Q 576 1939 793 2105 
Q 1011 2272 1261 2387 
Q 1037 2515 854 2678 
Q 672 2842 566 3053 
Q 461 3264 461 3546 
Q 461 3898 640 4138 
Q 819 4378 1126 4506 
Q 1434 4634 1824 4634 
z
M 864 1158 
Q 864 826 1101 605 
Q 1338 384 1830 384 
Q 2298 384 2544 605 
Q 2790 826 2790 1178 
Q 2790 1402 2672 1571 
Q 2554 1741 2339 1875 
Q 2125 2010 1830 2118 
L 1728 2157 
Q 1446 2035 1254 1894 
Q 1062 1754 963 1574 
Q 864 1395 864 1158 
z
M 1818 4179 
Q 1466 4179 1238 4009 
Q 1011 3840 1011 3520 
Q 1011 3283 1123 3123 
Q 1235 2963 1427 2851 
Q 1619 2739 1850 2637 
Q 2074 2733 2250 2848 
Q 2426 2963 2531 3126 
Q 2637 3290 2637 3520 
Q 2637 3840 2413 4009 
Q 2189 4179 1818 4179 
z
" transform="scale(0.015625)"/>
       </defs>
       <use xlink:href="#NotoSans-Regular-38"/>
       <use xlink:href="#NotoSans-Regular-30" x="57.199997"/>
       <use xlink:href="#NotoSans-Regular-6b" x="114.399994"/>
      </g>
     </g>
    </g>
    <g id="xtick_6">
     <g id="line2d_6">
      <g>
       <use xlink:href="#me0a1c611ad" x="234.898571" y="308" style="fill: #333333; stroke: #333333; stroke-width: 0.8"/>
      </g>
     </g>
     <g id="text_6">
      <!-- 100k -->
      <g style="fill: #333333" transform="translate(222.522712 323.36) scale(0.11 -0.11)">
       <defs>
        <path id="NotoSans-Regular-31" d="M 2272 0 
L 1722 0 
L 1722 3194 
Q 1722 3379 1725 3507 
Q 1728 3635 1734 3747 
Q 1741 3859 1747 3981 
Q 1645 3878 1561 3808 
Q 1478 3738 1350 3629 
L 864 3232 
L 570 3610 
L 1805 4570 
L 2272 4570 
L 2272 0 
z
" transform="scale(0.015625)"/>
       </defs>
       <use xlink:href="#NotoSans-Regular-31"/>
       <use xlink:href="#NotoSans-Regular-30" x="57.199997"/>
       <use xlink:href="#NotoSans-Regular-30" x="114.399994"/>
       <use xlink:href="#NotoSans-Regular-6b" x="171.599991"/>
      </g>
     </g>
    </g>
    <g id="xtick_7">
     <g id="line2d_7">
      <g>
       <use xlink:href="#me0a1c611ad" x="271.572857" y="308" style="fill: #333333; stroke: #333333; stroke-width: 0.8"/>
      </g>
     </g>
     <g id="text_7">
      <!-- 120k -->
      <g style="fill: #333333" transform="translate(259.196998 323.36) scale(0.11 -0.11)">
       <use xlink:href="#NotoSans-Regular-31"/>
       <use xlink:href="#NotoSans-Regular-32" x="57.199997"/>
       <use xlink:href="#NotoSans-Regular-30" x="114.399994"/>
       <use xlink:href="#NotoSans-Regular-6b" x="171.599991"/>
      </g>
     </g>
    </g>
    <g id="xtick_8">
     <g id="line2d_8">
      <g>
       <use xlink:href="#me0a1c611ad" x="308.247143" y="308" style="fill: #333333; stroke: #333333; stroke-width: 0.8"/>
      </g>
     </g>
     <g id="text_8">
      <!-- 140k -->
      <g style="fill: #333333" transform="translate(295.871283 323.36) scale(0.11 -0.11)">
       <use xlink:href="#NotoSans-Regular-31"/>
       <use xlink:href="#NotoSans-Regular-34" x="57.199997"/>
       <use xlink:href="#NotoSans-Regular-30" x="114.399994"/>
       <use xlink:href="#NotoSans-Regular-6b" x="171.599991"/>
      </g>
     </g>
    </g>
    <g id="xtick_9">
     <g id="line2d_9">
      <g>
       <use xlink:href="#me0a1c611ad" x="344.921429" y="308" style="fill: #333333; stroke: #333333; stroke-width: 0.8"/>
      </g>
     </g>
     <g id="text_9">
      <!-- 160k -->
      <g style="fill: #333333" transform="translate(332.545569 323.36) scale(0.11 -0.11)">
       <use xlink:href="#NotoSans-Regular-31"/>
       <use xlink:href="#NotoSans-Regular-36" x="57.199997"/>
       <use xlink:href="#NotoSans-Regular-30" x="114.399994"/>
       <use xlink:href="#NotoSans-Regular-6b" x="171.599991"/>
      </g>
     </g>
    </g>
    <g id="xtick_10">
     <g id="line2d_10">
      <g>
       <use xlink:href="#me0a1c611ad" x="381.595714" y="308" style="fill: #333333; stroke: #333333; stroke-width: 0.8"/>
      </g>
     </g>
     <g id="text_10">
      <!-- 180k -->
      <g style="fill: #333333" transform="translate(369.219855 323.36) scale(0.11 -0.11)">
       <use xlink:href="#NotoSans-Regular-31"/>
       <use xlink:href="#NotoSans-Regular-38" x="57.199997"/>
       <use xlink:href="#NotoSans-Regular-30" x="114.399994"/>
       <use xlink:href="#NotoSans-Regular-6b" x="171.599991"/>
      </g>
     </g>
    </g>
    <g id="xtick_11">
     <g id="line2d_11">
      <g>
       <use xlink:href="#me0a1c611ad" x="418.27" y="308" style="fill: #333333; stroke: #333333; stroke-width: 0.8"/>
      </g>
     </g>
     <g id="text_11">
      <!-- 200k -->
      <g style="fill: #333333" transform="translate(405.894141 323.36) scale(0.11 -0.11)">
       <use xlink:href="#NotoSans-Regular-32"/>
       <use xlink:href="#NotoSans-Regular-30" x="57.199997"/>
       <use xlink:href="#NotoSans-Regular-30" x="114.399994"/>
       <use xlink:href="#NotoSans-Regular-6b" x="171.599991"/>
      </g>
     </g>
    </g>
    <g id="text_12">
     <!-- Vocabulary size -->
     <g style="fill: #333333" transform="translate(174.966875 340.64) scale(0.14 -0.14)">
      <defs>
       <path id="NotoSans-Regular-56" d="M 3840 4570 
L 2208 0 
L 1632 0 
L 0 4570 
L 602 4570 
L 1632 1638 
Q 1702 1453 1753 1280 
Q 1805 1107 1846 950 
Q 1888 794 1920 640 
Q 1952 794 1993 954 
Q 2035 1114 2089 1286 
Q 2144 1459 2208 1651 
L 3232 4570 
L 3840 4570 
z
" transform="scale(0.015625)"/>
       <path id="NotoSans-Regular-6f" d="M 3526 1722 
Q 3526 1293 3414 963 
Q 3302 634 3094 403 
Q 2886 173 2588 54 
Q 2291 -64 1926 -64 
Q 1587 -64 1299 54 
Q 1011 173 800 403 
Q 589 634 470 963 
Q 352 1293 352 1722 
Q 352 2291 544 2684 
Q 736 3078 1094 3286 
Q 1453 3494 1946 3494 
Q 2413 3494 2768 3286 
Q 3123 3078 3324 2684 
Q 3526 2291 3526 1722 
z
M 934 1722 
Q 934 1318 1040 1020 
Q 1146 723 1370 563 
Q 1594 403 1939 403 
Q 2285 403 2509 563 
Q 2733 723 2838 1020 
Q 2944 1318 2944 1722 
Q 2944 2131 2835 2419 
Q 2726 2707 2505 2864 
Q 2285 3021 1933 3021 
Q 1408 3021 1171 2675 
Q 934 2330 934 1722 
z
" transform="scale(0.015625)"/>
       <path id="NotoSans-Regular-63" d="M 1920 -64 
Q 1466 -64 1110 121 
Q 755 307 553 697 
Q 352 1088 352 1696 
Q 352 2330 563 2726 
Q 774 3123 1136 3308 
Q 1498 3494 1958 3494 
Q 2221 3494 2464 3440 
Q 2707 3386 2861 3309 
L 2688 2842 
Q 2534 2899 2329 2950 
Q 2125 3002 1946 3002 
Q 1600 3002 1376 2854 
Q 1152 2707 1043 2419 
Q 934 2131 934 1702 
Q 934 1293 1043 1005 
Q 1152 717 1369 569 
Q 1587 422 1914 422 
Q 2195 422 2409 480 
Q 2624 538 2803 621 
L 2803 122 
Q 2630 32 2422 -16 
Q 2214 -64 1920 -64 
z
" transform="scale(0.015625)"/>
       <path id="NotoSans-Regular-61" d="M 1843 3488 
Q 2470 3488 2771 3213 
Q 3072 2938 3072 2336 
L 3072 0 
L 2662 0 
L 2554 486 
L 2528 486 
Q 2381 301 2224 176 
Q 2067 51 1865 -6 
Q 1664 -64 1376 -64 
Q 1069 -64 822 45 
Q 576 154 435 381 
Q 294 608 294 954 
Q 294 1466 697 1744 
Q 1101 2022 1939 2048 
L 2522 2067 
L 2522 2272 
Q 2522 2701 2336 2867 
Q 2150 3034 1811 3034 
Q 1542 3034 1299 2954 
Q 1056 2874 845 2771 
L 672 3194 
Q 896 3315 1203 3401 
Q 1510 3488 1843 3488 
z
M 2010 1658 
Q 1370 1632 1123 1453 
Q 877 1274 877 947 
Q 877 659 1053 524 
Q 1229 390 1504 390 
Q 1939 390 2227 630 
Q 2515 870 2515 1370 
L 2515 1677 
L 2010 1658 
z
" transform="scale(0.015625)"/>
       <path id="NotoSans-Regular-62" d="M 1107 3680 
Q 1107 3462 1097 3273 
Q 1088 3085 1075 2976 
L 1107 2976 
Q 1254 3194 1510 3341 
Q 1766 3488 2170 3488 
Q 2810 3488 3197 3043 
Q 3584 2598 3584 1715 
Q 3584 1126 3408 729 
Q 3232 333 2912 134 
Q 2592 -64 2170 -64 
Q 1766 -64 1510 83 
Q 1254 230 1107 435 
L 1062 435 
L 947 0 
L 544 0 
L 544 4864 
L 1107 4864 
L 1107 3680 
z
M 2074 3021 
Q 1709 3021 1497 2883 
Q 1286 2746 1196 2461 
Q 1107 2176 1107 1734 
L 1107 1709 
Q 1107 1075 1315 739 
Q 1523 403 2086 403 
Q 2547 403 2774 742 
Q 3002 1082 3002 1722 
Q 3002 2368 2774 2694 
Q 2547 3021 2074 3021 
z
" transform="scale(0.015625)"/>
       <path id="NotoSans-Regular-75" d="M 3411 3430 
L 3411 0 
L 2950 0 
L 2867 454 
L 2842 454 
Q 2733 275 2560 160 
Q 2387 45 2182 -9 
Q 1978 -64 1754 -64 
Q 1344 -64 1065 67 
Q 787 198 646 473 
Q 506 749 506 1184 
L 506 3430 
L 1075 3430 
L 1075 1222 
Q 1075 813 1260 608 
Q 1446 403 1837 403 
Q 2221 403 2441 547 
Q 2662 691 2755 969 
Q 2848 1248 2848 1645 
L 2848 3430 
L 3411 3430 
z
" transform="scale(0.015625)"/>
       <path id="NotoSans-Regular-6c" d="M 1107 0 
L 544 0 
L 544 4864 
L 1107 4864 
L 1107 0 
z
" transform="scale(0.015625)"/>
       <path id="NotoSans-Regular-72" d="M 2144 3494 
Q 2240 3494 2352 3484 
Q 2464 3475 2547 3456 
L 2477 2938 
Q 2394 2957 2294 2969 
Q 2195 2982 2106 2982 
Q 1907 2982 1728 2899 
Q 1549 2816 1408 2665 
Q 1267 2515 1187 2304 
Q 1107 2093 1107 1830 
L 1107 0 
L 544 0 
L 544 3430 
L 1005 3430 
L 1069 2803 
L 1094 2803 
Q 1203 2995 1356 3152 
Q 1510 3309 1708 3401 
Q 1907 3494 2144 3494 
z
" transform="scale(0.015625)"/>
       <path id="NotoSans-Regular-79" d="M 6 3430 
L 608 3430 
L 1350 1478 
Q 1414 1306 1468 1146 
Q 1523 986 1568 835 
Q 1613 685 1638 544 
L 1664 544 
Q 1702 704 1785 963 
Q 1869 1222 1958 1485 
L 2656 3430 
L 3264 3430 
L 1786 -474 
Q 1664 -794 1501 -1034 
Q 1338 -1274 1104 -1405 
Q 870 -1536 538 -1536 
Q 384 -1536 269 -1520 
Q 154 -1504 70 -1485 
L 70 -1037 
Q 141 -1050 240 -1062 
Q 339 -1075 448 -1075 
Q 646 -1075 790 -1001 
Q 934 -928 1036 -790 
Q 1139 -653 1210 -467 
L 1389 -13 
L 6 3430 
z
" transform="scale(0.015625)"/>
       <path id="NotoSans-Regular-20" transform="scale(0.015625)"/>
       <path id="NotoSans-Regular-73" d="M 2778 947 
Q 2778 614 2611 390 
Q 2445 166 2137 51 
Q 1830 -64 1408 -64 
Q 1050 -64 790 -6 
Q 531 51 333 154 
L 333 666 
Q 538 563 829 476 
Q 1120 390 1421 390 
Q 1850 390 2042 528 
Q 2234 666 2234 896 
Q 2234 1024 2163 1126 
Q 2093 1229 1910 1331 
Q 1728 1434 1389 1562 
Q 1056 1690 819 1818 
Q 582 1946 454 2125 
Q 326 2304 326 2586 
Q 326 3021 681 3257 
Q 1037 3494 1613 3494 
Q 1926 3494 2198 3433 
Q 2470 3373 2707 3264 
L 2515 2816 
Q 2298 2906 2061 2970 
Q 1824 3034 1574 3034 
Q 1229 3034 1046 2922 
Q 864 2810 864 2618 
Q 864 2477 947 2377 
Q 1030 2278 1225 2185 
Q 1421 2093 1747 1965 
Q 2074 1843 2304 1715 
Q 2534 1587 2656 1404 
Q 2778 1222 2778 947 
z
" transform="scale(0.015625)"/>
       <path id="NotoSans-Regular-69" d="M 1107 3430 
L 1107 0 
L 544 0 
L 544 3430 
L 1107 3430 
z
M 832 4717 
Q 960 4717 1059 4630 
Q 1158 4544 1158 4358 
Q 1158 4179 1059 4089 
Q 960 4000 832 4000 
Q 691 4000 595 4089 
Q 499 4179 499 4358 
Q 499 4544 595 4630 
Q 691 4717 832 4717 
z
" transform="scale(0.015625)"/>
       <path id="NotoSans-Regular-7a" d="M 2758 0 
L 250 0 
L 250 371 
L 2093 2995 
L 358 2995 
L 358 3430 
L 2714 3430 
L 2714 3008 
L 896 435 
L 2758 435 
L 2758 0 
z
" transform="scale(0.015625)"/>
       <path id="NotoSans-Regular-65" d="M 1869 3494 
Q 2310 3494 2627 3302 
Q 2944 3110 3113 2761 
Q 3283 2413 3283 1946 
L 3283 1606 
L 934 1606 
Q 947 1024 1232 720 
Q 1517 416 2029 416 
Q 2355 416 2608 477 
Q 2861 538 3130 653 
L 3130 160 
Q 2867 45 2611 -9 
Q 2355 -64 2003 -64 
Q 1517 -64 1142 134 
Q 768 333 560 726 
Q 352 1120 352 1690 
Q 352 2253 541 2656 
Q 730 3059 1072 3276 
Q 1414 3494 1869 3494 
z
M 1862 3034 
Q 1459 3034 1225 2774 
Q 992 2515 947 2054 
L 2694 2054 
Q 2694 2349 2604 2566 
Q 2515 2784 2332 2909 
Q 2150 3034 1862 3034 
z
" transform="scale(0.015625)"/>
      </defs>
      <use xlink:href="#NotoSans-Regular-56"/>
      <use xlink:href="#NotoSans-Regular-6f" x="59.999985"/>
      <use xlink:href="#NotoSans-Regular-63" x="120.499969"/>
      <use xlink:href="#NotoSans-Regular-61" x="168.499954"/>
      <use xlink:href="#NotoSans-Regular-62" x="224.599945"/>
      <use xlink:href="#NotoSans-Regular-75" x="286.09993"/>
      <use xlink:href="#NotoSans-Regular-6c" x="347.899918"/>
      <use xlink:href="#NotoSans-Regular-61" x="373.699905"/>
      <use xlink:href="#NotoSans-Regular-72" x="429.799896"/>
      <use xlink:href="#NotoSans-Regular-79" x="471.099884"/>
      <use xlink:href="#NotoSans-Regular-20" x="522.099869"/>
      <use xlink:href="#NotoSans-Regular-73" x="548.099854"/>
      <use xlink:href="#NotoSans-Regular-69" x="595.999847"/>
      <use xlink:href="#NotoSans-Regular-7a" x="621.799835"/>
      <use xlink:href="#NotoSans-Regular-65" x="668.79982"/>
     </g>
    </g>
   </g>
   <g id="matplotlib.axis_2">
    <g id="ytick_1">
     <g id="line2d_12">
      <defs>
       <path id="md312e45113" d="M 0 0 
L -3.5 0 
" style="stroke: #333333; stroke-width: 0.8"/>
      </defs>
      <g>
       <use xlink:href="#md312e45113" x="33.19" y="264.39562" style="fill: #333333; stroke: #333333; stroke-width: 0.8"/>
      </g>
     </g>
     <g id="text_13">
      <!-- 2 -->
      <g style="fill: #333333" transform="translate(19.897656 268.57562) scale(0.11 -0.11)">
       <use xlink:href="#NotoSans-Regular-32"/>
      </g>
     </g>
    </g>
    <g id="ytick_2">
     <g id="line2d_13">
      <g>
       <use xlink:href="#md312e45113" x="33.19" y="210.649802" style="fill: #333333; stroke: #333333; stroke-width: 0.8"/>
      </g>
     </g>
     <g id="text_14">
      <!-- 3 -->
      <g style="fill: #333333" transform="translate(19.897656 214.829802) scale(0.11 -0.11)">
       <defs>
        <path id="NotoSans-Regular-33" d="M 3155 3501 
Q 3155 3194 3040 2970 
Q 2925 2746 2710 2605 
Q 2496 2464 2208 2406 
L 2208 2381 
Q 2758 2317 3027 2035 
Q 3296 1754 3296 1299 
Q 3296 902 3110 592 
Q 2925 282 2537 109 
Q 2150 -64 1542 -64 
Q 1184 -64 877 -9 
Q 570 45 288 186 
L 288 710 
Q 576 570 909 490 
Q 1242 410 1549 410 
Q 2163 410 2435 650 
Q 2707 890 2707 1312 
Q 2707 1600 2556 1776 
Q 2406 1952 2118 2035 
Q 1830 2118 1427 2118 
L 986 2118 
L 986 2598 
L 1434 2598 
Q 1811 2598 2064 2707 
Q 2317 2816 2448 3011 
Q 2579 3206 2579 3462 
Q 2579 3795 2355 3977 
Q 2131 4160 1747 4160 
Q 1504 4160 1305 4112 
Q 1107 4064 937 3977 
Q 768 3891 595 3776 
L 314 4160 
Q 557 4352 918 4493 
Q 1280 4634 1741 4634 
Q 2458 4634 2806 4314 
Q 3155 3994 3155 3501 
z
" transform="scale(0.015625)"/>
       </defs>
       <use xlink:href="#NotoSans-Regular-33"/>
      </g>
     </g>
    </g>
    <g id="ytick_3">
     <g id="line2d_14">
      <g>
       <use xlink:href="#md312e45113" x="33.19" y="156.903985" style="fill: #333333; stroke: #333333; stroke-width: 0.8"/>
      </g>
     </g>
     <g id="text_15">
      <!-- 4 -->
      <g style="fill: #333333" transform="translate(19.897656 161.083985) scale(0.11 -0.11)">
       <use xlink:href="#NotoSans-Regular-34"/>
      </g>
     </g>
    </g>
    <g id="ytick_4">
     <g id="line2d_15">
      <g>
       <use xlink:href="#md312e45113" x="33.19" y="103.158168" style="fill: #333333; stroke: #333333; stroke-width: 0.8"/>
      </g>
     </g>
     <g id="text_16">
      <!-- 5 -->
      <g style="fill: #333333" transform="translate(19.897656 107.338168) scale(0.11 -0.11)">
       <defs>
        <path id="NotoSans-Regular-35" d="M 1760 2803 
Q 2227 2803 2572 2643 
Q 2918 2483 3107 2185 
Q 3296 1888 3296 1459 
Q 3296 986 3091 643 
Q 2886 301 2505 118 
Q 2125 -64 1587 -64 
Q 1235 -64 924 0 
Q 614 64 403 186 
L 403 717 
Q 634 576 963 496 
Q 1293 416 1594 416 
Q 1933 416 2185 521 
Q 2438 627 2579 848 
Q 2720 1069 2720 1402 
Q 2720 1850 2445 2090 
Q 2170 2330 1574 2330 
Q 1395 2330 1164 2298 
Q 934 2266 794 2234 
L 512 2413 
L 685 4570 
L 2976 4570 
L 2976 4058 
L 1165 4058 
L 1056 2733 
Q 1165 2752 1350 2777 
Q 1536 2803 1760 2803 
z
" transform="scale(0.015625)"/>
       </defs>
       <use xlink:href="#NotoSans-Regular-35"/>
      </g>
     </g>
    </g>
    <g id="ytick_5">
     <g id="line2d_16">
      <g>
       <use xlink:href="#md312e45113" x="33.19" y="49.41235" style="fill: #333333; stroke: #333333; stroke-width: 0.8"/>
      </g>
     </g>
     <g id="text_17">
      <!-- 6 -->
      <g style="fill: #333333" transform="translate(19.897656 53.59235) scale(0.11 -0.11)">
       <use xlink:href="#NotoSans-Regular-36"/>
      </g>
     </g>
    </g>
    <g id="text_18">
     <!-- Bytes per token -->
     <g style="fill: #333333" transform="translate(12.537656 206.206875) rotate(-90) scale(0.14 -0.14)">
      <defs>
       <path id="NotoSans-Regular-42" d="M 1926 4570 
Q 2784 4570 3222 4317 
Q 3661 4064 3661 3437 
Q 3661 3168 3561 2960 
Q 3462 2752 3267 2614 
Q 3072 2477 2790 2426 
L 2790 2394 
Q 3078 2349 3312 2227 
Q 3546 2106 3680 1882 
Q 3814 1658 3814 1299 
Q 3814 883 3622 592 
Q 3430 301 3075 150 
Q 2720 0 2227 0 
L 621 0 
L 621 4570 
L 1926 4570 
z
M 2042 2624 
Q 2630 2624 2848 2813 
Q 3066 3002 3066 3373 
Q 3066 3750 2800 3913 
Q 2534 4077 1952 4077 
L 1197 4077 
L 1197 2624 
L 2042 2624 
z
M 1197 2144 
L 1197 486 
L 2118 486 
Q 2726 486 2963 723 
Q 3200 960 3200 1344 
Q 3200 1587 3094 1766 
Q 2989 1946 2742 2045 
Q 2496 2144 2074 2144 
L 1197 2144 
z
" transform="scale(0.015625)"/>
       <path id="NotoSans-Regular-74" d="M 1690 397 
Q 1818 397 1952 419 
Q 2086 442 2170 467 
L 2170 38 
Q 2080 -6 1913 -35 
Q 1747 -64 1594 -64 
Q 1325 -64 1097 29 
Q 870 122 729 352 
Q 589 582 589 998 
L 589 2995 
L 102 2995 
L 102 3264 
L 595 3488 
L 819 4218 
L 1152 4218 
L 1152 3430 
L 2144 3430 
L 2144 2995 
L 1152 2995 
L 1152 1011 
Q 1152 698 1302 547 
Q 1453 397 1690 397 
z
" transform="scale(0.015625)"/>
       <path id="NotoSans-Regular-70" d="M 2176 3494 
Q 2810 3494 3197 3052 
Q 3584 2611 3584 1722 
Q 3584 1139 3408 739 
Q 3232 339 2915 137 
Q 2598 -64 2170 -64 
Q 1907 -64 1702 6 
Q 1498 77 1354 189 
Q 1210 301 1107 435 
L 1069 435 
Q 1082 326 1094 160 
Q 1107 -6 1107 -128 
L 1107 -1536 
L 544 -1536 
L 544 3430 
L 1005 3430 
L 1082 2963 
L 1107 2963 
Q 1210 3110 1354 3232 
Q 1498 3354 1699 3424 
Q 1901 3494 2176 3494 
z
M 2074 3021 
Q 1728 3021 1517 2889 
Q 1306 2758 1210 2496 
Q 1114 2234 1107 1830 
L 1107 1722 
Q 1107 1299 1196 1004 
Q 1286 710 1500 556 
Q 1715 403 2086 403 
Q 2400 403 2601 576 
Q 2803 749 2902 1046 
Q 3002 1344 3002 1728 
Q 3002 2317 2774 2669 
Q 2547 3021 2074 3021 
z
" transform="scale(0.015625)"/>
       <path id="NotoSans-Regular-6e" d="M 2195 3494 
Q 2810 3494 3123 3196 
Q 3437 2899 3437 2234 
L 3437 0 
L 2880 0 
L 2880 2195 
Q 2880 2611 2694 2816 
Q 2509 3021 2112 3021 
Q 1542 3021 1324 2701 
Q 1107 2381 1107 1779 
L 1107 0 
L 544 0 
L 544 3430 
L 998 3430 
L 1082 2963 
L 1114 2963 
Q 1229 3142 1398 3260 
Q 1568 3379 1773 3436 
Q 1978 3494 2195 3494 
z
" transform="scale(0.015625)"/>
      </defs>
      <use xlink:href="#NotoSans-Regular-42"/>
      <use xlink:href="#NotoSans-Regular-79" x="64.999985"/>
      <use xlink:href="#NotoSans-Regular-74" x="115.999969"/>
      <use xlink:href="#NotoSans-Regular-65" x="152.09996"/>
      <use xlink:href="#NotoSans-Regular-73" x="208.499954"/>
      <use xlink:href="#NotoSans-Regular-20" x="256.399948"/>
      <use xlink:href="#NotoSans-Regular-70" x="282.399933"/>
      <use xlink:href="#NotoSans-Regular-65" x="343.899918"/>
      <use xlink:href="#NotoSans-Regular-72" x="400.299911"/>
      <use xlink:href="#NotoSans-Regular-20" x="441.599899"/>
      <use xlink:href="#NotoSans-Regular-74" x="467.599884"/>
      <use xlink:href="#NotoSans-Regular-6f" x="503.699875"/>
      <use xlink:href="#NotoSans-Regular-6b" x="564.19986"/>
      <use xlink:href="#NotoSans-Regular-65" x="617.599854"/>
      <use xlink:href="#NotoSans-Regular-6e" x="673.999847"/>
     </g>
    </g>
   </g>
   <g id="line2d_17">
    <path d="M 33.19 120.356829 
L 418.27 120.356829 
" clip-path="url(#p6b698b36df)" style="fill: none; stroke-dasharray: 2,3.3; stroke-dashoffset: 0; stroke: #7f7f7f; stroke-opacity: 0.8; stroke-width: 2"/>
   </g>
   <g id="line2d_18">
    <path d="M 51.618829 293.343791 
L 51.710514 282.955231 
L 52.444 251.229892 
L 53.360857 234.065746 
L 55.194571 214.179981 
L 57.028286 201.337972 
L 58.862 191.476058 
L 60.695714 183.498591 
L 62.529429 176.751087 
L 64.363143 170.913221 
L 66.196857 165.816438 
L 68.030571 161.273445 
L 69.864286 157.168156 
L 71.698 153.452838 
L 73.531714 150.05567 
L 75.365429 146.920872 
L 77.199143 143.979183 
L 79.032857 141.2442 
L 88.201429 129.766299 
L 97.37 120.823335 
L 106.538571 113.486037 
L 115.707143 107.253372 
L 124.875714 101.834532 
L 134.044286 97.062736 
L 143.212857 92.776421 
L 152.381429 88.892523 
L 161.55 85.323381 
L 170.718571 82.042075 
L 179.887143 79.004717 
L 189.055714 76.179976 
L 198.224286 73.536105 
L 207.392857 71.051076 
L 216.561429 68.705672 
L 225.73 66.485178 
L 234.898571 64.385222 
L 244.067143 62.389067 
L 253.235714 60.484007 
L 262.404286 58.666025 
L 271.572857 56.936207 
L 280.741429 55.272519 
L 289.91 53.675345 
L 299.078571 52.133993 
L 308.247143 50.659885 
L 317.415714 49.241322 
L 326.584286 47.870647 
L 335.752857 46.548081 
L 344.921429 45.264524 
L 354.09 44.019988 
L 363.258571 42.819175 
L 372.427143 41.657134 
L 381.595714 40.524592 
L 390.764286 39.424694 
L 399.932857 38.354708 
L 409.101429 37.31035 
L 418.27 36.347095 
" clip-path="url(#p6b698b36df)" style="fill: none; stroke: #8fbc8b; stroke-width: 2.5; stroke-linecap: square"/>
   </g>
   <g id="line2d_19">
    <path d="M 51.618829 293.998554 
L 51.710514 283.039807 
L 52.444 250.403342 
L 53.360857 233.897604 
L 55.194571 215.85653 
L 57.028286 204.792194 
L 58.862 196.852881 
L 60.695714 190.654899 
L 62.529429 185.773698 
L 64.363143 181.724513 
L 66.196857 178.284316 
L 68.030571 175.345377 
L 69.864286 172.749035 
L 71.698 170.489976 
L 73.531714 168.457068 
L 75.365429 166.634616 
L 77.199143 164.986115 
L 79.032857 163.482857 
L 88.201429 155.629457 
L 97.37 105.422981 
L 106.538571 95.892117 
L 115.707143 89.022623 
L 124.875714 83.230328 
L 134.044286 78.18266 
L 143.212857 73.681221 
L 152.381429 69.621277 
L 161.55 65.910542 
L 170.718571 62.519929 
L 179.887143 59.374694 
L 189.055714 56.467071 
L 198.224286 53.762812 
L 207.392857 51.241329 
L 216.561429 48.861927 
L 225.73 46.624372 
L 234.898571 44.500842 
L 244.067143 42.497365 
L 253.235714 40.579645 
L 262.404286 38.76093 
L 271.572857 37.013498 
L 280.741429 35.355969 
L 289.91 33.764918 
L 299.078571 32.2414 
L 308.247143 30.771023 
L 317.415714 29.355231 
L 326.584286 27.981724 
L 335.752857 26.668387 
L 344.921429 25.408895 
L 354.09 24.180471 
L 363.258571 22.993469 
L 372.427143 21.840651 
L 381.595714 20.720086 
L 390.764286 19.633312 
L 399.932857 18.576168 
L 409.101429 17.547626 
L 418.27 16.604595 
" clip-path="url(#p6b698b36df)" style="fill: none; stroke: #f2cfc8; stroke-width: 2.5; stroke-linecap: square"/>
   </g>
   <g id="line2d_20">
    <path d="M 51.618829 293.998554 
L 51.710514 283.039807 
L 52.444 250.403342 
L 53.360857 233.897604 
L 55.194571 215.85653 
L 57.028286 204.792194 
L 58.862 196.852881 
L 60.695714 190.654899 
L 62.529429 185.773698 
L 64.363143 181.724513 
L 66.196857 178.284316 
L 68.030571 175.345377 
L 69.864286 172.749035 
L 71.698 170.489976 
L 73.531714 168.457068 
L 75.365429 166.634616 
L 77.199143 164.986115 
L 79.032857 163.482857 
L 88.201429 157.518931 
L 97.37 153.348624 
L 106.538571 150.222572 
L 115.707143 147.764587 
L 124.875714 143.68952 
L 134.044286 88.395439 
L 143.212857 78.242628 
L 152.381429 71.688286 
L 161.55 66.773575 
L 170.718571 62.771564 
L 179.887143 59.376752 
L 189.055714 56.300637 
L 198.224286 53.489426 
L 207.392857 50.877803 
L 216.561429 48.436242 
L 225.73 46.138502 
L 234.898571 43.96414 
L 244.067143 41.917932 
L 253.235714 39.967291 
L 262.404286 38.117088 
L 271.572857 36.343723 
L 280.741429 34.652022 
L 289.91 33.043412 
L 299.078571 31.496673 
L 308.247143 30.003507 
L 317.415714 28.56787 
L 326.584286 27.1818 
L 335.752857 25.846758 
L 344.921429 24.569384 
L 354.09 23.327691 
L 363.258571 22.120989 
L 372.427143 20.95645 
L 381.595714 19.82057 
L 390.764286 18.72211 
L 399.932857 17.657072 
L 409.101429 16.618226 
L 418.27 15.663156 
" clip-path="url(#p6b698b36df)" style="fill: none; stroke: #ebb5b3; stroke-width: 2.5; stroke-linecap: square"/>
   </g>
   <g id="line2d_21">
    <path d="M 51.618829 293.998554 
L 51.710514 283.039807 
L 52.444 250.403342 
L 53.360857 233.897604 
L 55.194571 215.85653 
L 57.028286 204.792194 
L 58.862 196.852881 
L 60.695714 190.654899 
L 62.529429 185.773698 
L 64.363143 181.724513 
L 66.196857 178.284316 
L 68.030571 175.345377 
L 69.864286 172.749035 
L 71.698 170.489976 
L 73.531714 168.457068 
L 75.365429 166.634616 
L 77.199143 164.986115 
L 79.032857 163.482857 
L 88.201429 157.518931 
L 97.37 153.348624 
L 106.538571 150.222572 
L 115.707143 147.764587 
L 124.875714 145.79023 
L 134.044286 144.153328 
L 143.212857 142.791893 
L 152.381429 141.636788 
L 161.55 138.445324 
L 170.718571 80.637402 
L 179.887143 70.113337 
L 189.055714 63.328882 
L 198.224286 58.248075 
L 207.392857 54.116008 
L 216.561429 50.633016 
L 225.73 47.6051 
L 234.898571 44.926708 
L 244.067143 42.518887 
L 253.235714 40.33094 
L 262.404286 38.316145 
L 271.572857 36.455886 
L 280.741429 34.692653 
L 289.91 33.015591 
L 299.078571 31.422805 
L 308.247143 29.897267 
L 317.415714 28.431491 
L 326.584286 27.019309 
L 335.752857 25.659704 
L 344.921429 24.355462 
L 354.09 23.098984 
L 363.258571 21.877029 
L 372.427143 20.69582 
L 381.595714 19.548264 
L 390.764286 18.434162 
L 399.932857 17.356211 
L 409.101429 16.307382 
L 418.27 15.337868 
" clip-path="url(#p6b698b36df)" style="fill: none; stroke: #e09ca2; stroke-width: 2.5; stroke-linecap: square"/>
   </g>
   <g id="line2d_22">
    <path d="M 51.618829 293.998554 
L 51.710514 283.039807 
L 52.444 250.403342 
L 53.360857 233.897604 
L 55.194571 215.85653 
L 57.028286 204.792194 
L 58.862 196.852881 
L 60.695714 190.654899 
L 62.529429 185.773698 
L 64.363143 181.724513 
L 66.196857 178.284316 
L 68.030571 175.345377 
L 69.864286 172.749035 
L 71.698 170.489976 
L 73.531714 168.457068 
L 75.365429 166.634616 
L 77.199143 164.986115 
L 79.032857 163.482857 
L 88.201429 157.518931 
L 97.37 153.348624 
L 106.538571 150.222572 
L 115.707143 147.764587 
L 124.875714 145.79023 
L 134.044286 144.153328 
L 143.212857 142.791893 
L 152.381429 141.636788 
L 161.55 140.643037 
L 170.718571 139.780846 
L 179.887143 139.026365 
L 189.055714 138.364949 
L 198.224286 135.527292 
L 207.392857 76.239466 
L 216.561429 65.476969 
L 225.73 58.564475 
L 234.898571 53.381716 
L 244.067143 49.162831 
L 253.235714 45.612833 
L 262.404286 42.537704 
L 271.572857 39.80662 
L 280.741429 37.359542 
L 289.91 35.132177 
L 299.078571 33.077339 
L 308.247143 31.195365 
L 317.415714 29.436468 
L 326.584286 27.798682 
L 335.752857 26.253146 
L 344.921429 24.802056 
L 354.09 23.421008 
L 363.258571 22.112977 
L 372.427143 20.8682 
L 381.595714 19.671226 
L 390.764286 18.519205 
L 399.932857 17.405732 
L 409.101429 16.331926 
L 418.27 15.336364 
" clip-path="url(#p6b698b36df)" style="fill: none; stroke: #d38395; stroke-width: 2.5; stroke-linecap: square"/>
   </g>
   <g id="line2d_23">
    <path d="M 51.618829 293.998554 
L 51.710514 283.039807 
L 52.444 250.403342 
L 53.360857 233.897604 
L 55.194571 215.85653 
L 57.028286 204.792194 
L 58.862 196.852881 
L 60.695714 190.654899 
L 62.529429 185.773698 
L 64.363143 181.724513 
L 66.196857 178.284316 
L 68.030571 175.345377 
L 69.864286 172.749035 
L 71.698 170.489976 
L 73.531714 168.457068 
L 75.365429 166.634616 
L 77.199143 164.986115 
L 79.032857 163.482857 
L 88.201429 157.518931 
L 97.37 153.348624 
L 106.538571 150.222572 
L 115.707143 147.764587 
L 124.875714 145.79023 
L 134.044286 144.153328 
L 143.212857 142.791893 
L 152.381429 141.636788 
L 161.55 140.643037 
L 170.718571 139.780846 
L 179.887143 139.026365 
L 189.055714 138.364949 
L 198.224286 137.779679 
L 207.392857 137.255318 
L 216.561429 136.783561 
L 225.73 136.361308 
L 234.898571 133.690378 
L 244.067143 73.438394 
L 253.235714 62.522565 
L 262.404286 55.514226 
L 271.572857 50.259697 
L 280.741429 45.985189 
L 289.91 42.38711 
L 299.078571 39.264948 
L 308.247143 36.505365 
L 317.415714 34.024668 
L 326.584286 31.76662 
L 335.752857 29.695723 
L 344.921429 27.789459 
L 354.09 26.012747 
L 363.258571 24.354822 
L 372.427143 22.791439 
L 381.595714 21.317553 
L 390.764286 19.922818 
L 399.932857 18.605474 
L 409.101429 17.344883 
L 418.27 16.194767 
" clip-path="url(#p6b698b36df)" style="fill: none; stroke: #c16c8a; stroke-width: 2.5; stroke-linecap: square"/>
   </g>
   <g id="line2d_24">
    <path d="M 51.618829 293.998554 
L 51.710514 283.039807 
L 52.444 250.403342 
L 53.360857 233.897604 
L 55.194571 215.85653 
L 57.028286 204.792194 
L 58.862 196.852881 
L 60.695714 190.654899 
L 62.529429 185.773698 
L 64.363143 181.724513 
L 66.196857 178.284316 
L 68.030571 175.345377 
L 69.864286 172.749035 
L 71.698 170.489976 
L 73.531714 168.457068 
L 75.365429 166.634616 
L 77.199143 164.986115 
L 79.032857 163.482857 
L 88.201429 157.518931 
L 97.37 153.348624 
L 106.538571 150.222572 
L 115.707143 147.764587 
L 124.875714 145.79023 
L 134.044286 144.153328 
L 143.212857 142.791893 
L 152.381429 141.636788 
L 161.55 140.643037 
L 170.718571 139.780846 
L 179.887143 139.026365 
L 189.055714 138.364949 
L 198.224286 137.779679 
L 207.392857 137.255318 
L 216.561429 136.783561 
L 225.73 136.361308 
L 234.898571 135.977674 
L 244.067143 135.624881 
L 253.235714 135.301456 
L 262.404286 135.003606 
L 271.572857 132.41975 
L 280.741429 71.491968 
L 289.91 60.461275 
L 299.078571 53.388943 
L 308.247143 48.079974 
L 317.415714 43.768673 
L 326.584286 40.135196 
L 335.752857 36.984931 
L 344.921429 34.198443 
L 354.09 31.694579 
L 363.258571 29.41703 
L 372.427143 27.332169 
L 381.595714 25.407894 
L 390.764286 23.612826 
L 399.932857 21.942109 
L 409.101429 20.367781 
L 418.27 18.953828 
" clip-path="url(#p6b698b36df)" style="fill: none; stroke: #ad5880; stroke-width: 2.5; stroke-linecap: square"/>
   </g>
   <g id="line2d_25">
    <path d="M 51.618829 293.998554 
L 51.710514 283.039807 
L 52.444 250.403342 
L 53.360857 233.897604 
L 55.194571 215.85653 
L 57.028286 204.792194 
L 58.862 196.852881 
L 60.695714 190.654899 
L 62.529429 185.773698 
L 64.363143 181.724513 
L 66.196857 178.284316 
L 68.030571 175.345377 
L 69.864286 172.749035 
L 71.698 170.489976 
L 73.531714 168.457068 
L 75.365429 166.634616 
L 77.199143 164.986115 
L 79.032857 163.482857 
L 88.201429 157.518931 
L 97.37 153.348624 
L 106.538571 150.222572 
L 115.707143 147.764587 
L 124.875714 145.79023 
L 134.044286 144.153328 
L 143.212857 142.791893 
L 152.381429 141.636788 
L 161.55 140.643037 
L 170.718571 139.780846 
L 179.887143 139.026365 
L 189.055714 138.364949 
L 198.224286 137.779679 
L 207.392857 137.255318 
L 216.561429 136.783561 
L 225.73 136.361308 
L 234.898571 135.977674 
L 244.067143 135.624881 
L 253.235714 135.301456 
L 262.404286 135.003606 
L 271.572857 134.731241 
L 280.741429 134.478454 
L 289.91 134.241682 
L 299.078571 134.022767 
L 308.247143 131.488087 
L 317.415714 70.058097 
L 326.584286 58.943942 
L 335.752857 51.816238 
L 344.921429 46.467216 
L 354.09 42.127713 
L 363.258571 38.468069 
L 372.427143 35.298819 
L 381.595714 32.488804 
L 390.764286 29.964148 
L 399.932857 27.671228 
L 409.101429 25.571526 
L 418.27 23.728123 
" clip-path="url(#p6b698b36df)" style="fill: none; stroke: #944574; stroke-width: 2.5; stroke-linecap: square"/>
   </g>
   <g id="line2d_26">
    <path d="M 51.618829 293.998554 
L 51.710514 283.039807 
L 52.444 250.403342 
L 53.360857 233.897604 
L 55.194571 215.85653 
L 57.028286 204.792194 
L 58.862 196.852881 
L 60.695714 190.654899 
L 62.529429 185.773698 
L 64.363143 181.724513 
L 66.196857 178.284316 
L 68.030571 175.345377 
L 69.864286 172.749035 
L 71.698 170.489976 
L 73.531714 168.457068 
L 75.365429 166.634616 
L 77.199143 164.986115 
L 79.032857 163.482857 
L 88.201429 157.518931 
L 97.37 153.348624 
L 106.538571 150.222572 
L 115.707143 147.764587 
L 124.875714 145.79023 
L 134.044286 144.153328 
L 143.212857 142.791893 
L 152.381429 141.636788 
L 161.55 140.643037 
L 170.718571 139.780846 
L 179.887143 139.026365 
L 189.055714 138.364949 
L 198.224286 137.779679 
L 207.392857 137.255318 
L 216.561429 136.783561 
L 225.73 136.361308 
L 234.898571 135.977674 
L 244.067143 135.624881 
L 253.235714 135.301456 
L 262.404286 135.003606 
L 271.572857 134.731241 
L 280.741429 134.478454 
L 289.91 134.241682 
L 299.078571 134.022767 
L 308.247143 133.817501 
L 317.415714 133.62175 
L 326.584286 133.44299 
L 335.752857 133.278283 
L 344.921429 129.760385 
L 354.09 68.950043 
L 363.258571 57.772844 
L 372.427143 50.601162 
L 381.595714 45.223234 
L 390.764286 40.859431 
L 399.932857 37.178494 
L 409.101429 33.992502 
L 418.27 31.295289 
" clip-path="url(#p6b698b36df)" style="fill: none; stroke: #783465; stroke-width: 2.5; stroke-linecap: square"/>
   </g>
   <g id="line2d_27">
    <path d="M 51.618829 293.998554 
L 51.710514 283.039807 
L 52.444 250.403342 
L 53.360857 233.897604 
L 55.194571 215.85653 
L 57.028286 204.792194 
L 58.862 196.852881 
L 60.695714 190.654899 
L 62.529429 185.773698 
L 64.363143 181.724513 
L 66.196857 178.284316 
L 68.030571 175.345377 
L 69.864286 172.749035 
L 71.698 170.489976 
L 73.531714 168.457068 
L 75.365429 166.634616 
L 77.199143 164.986115 
L 79.032857 163.482857 
L 88.201429 157.518931 
L 97.37 153.348624 
L 106.538571 150.222572 
L 115.707143 147.764587 
L 124.875714 145.79023 
L 134.044286 144.153328 
L 143.212857 142.791893 
L 152.381429 141.636788 
L 161.55 140.643037 
L 170.718571 139.780846 
L 179.887143 139.026365 
L 189.055714 138.364949 
L 198.224286 137.779679 
L 207.392857 137.255318 
L 216.561429 136.783561 
L 225.73 136.361308 
L 234.898571 135.977674 
L 244.067143 135.624881 
L 253.235714 135.301456 
L 262.404286 135.003606 
L 271.572857 134.731241 
L 280.741429 134.478454 
L 289.91 134.241682 
L 299.078571 134.022767 
L 308.247143 133.817501 
L 317.415714 133.62175 
L 326.584286 133.44299 
L 335.752857 133.278283 
L 344.921429 133.118606 
L 354.09 132.967548 
L 363.258571 132.826631 
L 372.427143 132.693303 
L 381.595714 124.848813 
L 390.764286 68.050514 
L 399.932857 56.834034 
L 409.101429 49.631532 
L 418.27 44.466798 
" clip-path="url(#p6b698b36df)" style="fill: none; stroke: #592653; stroke-width: 2.5; stroke-linecap: square"/>
   </g>
   <g id="line2d_28">
    <path d="M 51.618829 294.063636 
L 51.710514 283.108586 
L 52.444 250.402885 
L 53.360857 233.859695 
L 60.695714 190.732596 
L 69.864286 172.874621 
L 79.032857 163.619583 
L 88.201429 157.672314 
L 97.37 153.516108 
L 106.538571 150.401052 
L 115.707143 147.951438 
L 124.875714 145.982719 
L 134.044286 144.349456 
L 143.212857 142.992144 
L 152.381429 141.840461 
L 161.55 140.851072 
L 170.718571 139.992809 
L 179.887143 139.240554 
L 189.055714 138.580767 
L 198.224286 137.997898 
L 207.392857 137.475671 
L 216.561429 137.00542 
L 225.73 136.58545 
L 234.898571 136.202968 
L 244.067143 135.851316 
L 253.235714 135.529276 
L 262.404286 135.232676 
L 271.572857 134.961096 
L 280.741429 134.709054 
L 289.91 134.473793 
L 299.078571 134.255735 
L 308.247143 134.051303 
L 317.415714 133.856475 
L 326.584286 133.678455 
L 335.752857 133.514706 
L 344.921429 133.355631 
L 354.09 133.20483 
L 363.258571 133.064446 
L 372.427143 132.931867 
L 381.595714 132.805782 
L 390.764286 132.687079 
L 399.932857 132.573128 
L 409.101429 132.465388 
L 418.27 132.365285 
" clip-path="url(#p6b698b36df)" style="fill: none; stroke: #4086bf; stroke-width: 2.5; stroke-linecap: square"/>
   </g>
   <g id="patch_3">
    <path d="M 33.19 308 
L 33.19 1.4 
" style="fill: none; stroke: #333333; stroke-width: 1.5; stroke-linejoin: miter; stroke-linecap: square"/>
   </g>
   <g id="patch_4">
    <path d="M 418.27 308 
L 418.27 1.4 
" style="fill: none; stroke: #333333; stroke-width: 1.5; stroke-linejoin: miter; stroke-linecap: square"/>
   </g>
   <g id="patch_5">
    <path d="M 33.19 308 
L 418.27 308 
" style="fill: none; stroke: #333333; stroke-width: 1.5; stroke-linejoin: miter; stroke-linecap: square"/>
   </g>
   <g id="patch_6">
    <path d="M 33.19 1.4 
L 418.27 1.4 
" style="fill: none; stroke: #333333; stroke-width: 1.5; stroke-linejoin: miter; stroke-linecap: square"/>
   </g>
   <g id="legend_1">
    <g id="patch_7">
     <path d="M 248.49375 301 
L 408.47 301 
Q 411.27 301 411.27 298.2 
L 411.27 215.6 
Q 411.27 212.8 408.47 212.8 
L 248.49375 212.8 
Q 245.69375 212.8 245.69375 215.6 
L 245.69375 298.2 
Q 245.69375 301 248.49375 301 
z
" style="fill: #ffffff; opacity: 0.8; stroke: #cccccc; stroke-linejoin: miter"/>
    </g>
    <g id="line2d_29">
     <path d="M 251.29375 224.14 
L 265.29375 224.14 
L 279.29375 224.14 
" style="fill: none; stroke: #4086bf; stroke-width: 2.5; stroke-linecap: square"/>
    </g>
    <g id="text_19">
     <!-- BPE -->
     <g style="fill: #333333" transform="translate(290.49375 229.04) scale(0.14 -0.14)">
      <defs>
       <path id="NotoSans-Regular-50" d="M 1830 4570 
Q 2726 4570 3136 4218 
Q 3546 3866 3546 3226 
Q 3546 2944 3453 2685 
Q 3360 2426 3149 2221 
Q 2938 2016 2586 1897 
Q 2234 1779 1722 1779 
L 1197 1779 
L 1197 0 
L 621 0 
L 621 4570 
L 1830 4570 
z
M 1779 4077 
L 1197 4077 
L 1197 2272 
L 1658 2272 
Q 2093 2272 2381 2365 
Q 2669 2458 2809 2662 
Q 2950 2867 2950 3200 
Q 2950 3642 2668 3859 
Q 2387 4077 1779 4077 
z
" transform="scale(0.015625)"/>
       <path id="NotoSans-Regular-45" d="M 3174 0 
L 621 0 
L 621 4570 
L 3174 4570 
L 3174 4064 
L 1197 4064 
L 1197 2637 
L 3059 2637 
L 3059 2138 
L 1197 2138 
L 1197 506 
L 3174 506 
L 3174 0 
z
" transform="scale(0.015625)"/>
      </defs>
      <use xlink:href="#NotoSans-Regular-42"/>
      <use xlink:href="#NotoSans-Regular-50" x="64.999985"/>
      <use xlink:href="#NotoSans-Regular-45" x="125.499969"/>
     </g>
    </g>
    <g id="line2d_30">
     <path d="M 251.29375 245.14 
L 265.29375 245.14 
L 279.29375 245.14 
" style="fill: none; stroke: #8fbc8b; stroke-width: 2.5; stroke-linecap: square"/>
    </g>
    <g id="text_20">
     <!-- BPE w/o pretok -->
     <g style="fill: #333333" transform="translate(290.49375 250.04) scale(0.14 -0.14)">
      <defs>
       <path id="NotoSans-Regular-77" d="M 2758 1939 
Q 2720 2074 2681 2205 
Q 2643 2336 2614 2454 
Q 2586 2573 2560 2675 
Q 2534 2778 2522 2848 
L 2496 2848 
Q 2483 2778 2460 2675 
Q 2438 2573 2409 2451 
Q 2381 2330 2345 2198 
Q 2310 2067 2266 1933 
L 1651 6 
L 1011 6 
L 70 3437 
L 653 3437 
L 1126 1606 
Q 1178 1421 1222 1232 
Q 1267 1043 1302 873 
Q 1338 704 1350 582 
L 1376 582 
Q 1395 659 1420 774 
Q 1446 890 1475 1018 
Q 1504 1146 1539 1274 
Q 1574 1402 1606 1504 
L 2214 3437 
L 2829 3437 
L 3418 1504 
Q 3462 1357 3510 1190 
Q 3558 1024 3596 867 
Q 3635 710 3648 589 
L 3674 589 
Q 3686 698 3721 861 
Q 3757 1024 3805 1219 
Q 3853 1414 3904 1606 
L 4384 3437 
L 4960 3437 
L 4006 6 
L 3347 6 
L 2758 1939 
z
" transform="scale(0.015625)"/>
       <path id="NotoSans-Regular-2f" d="M 2317 4570 
L 614 0 
L 64 0 
L 1766 4570 
L 2317 4570 
z
" transform="scale(0.015625)"/>
      </defs>
      <use xlink:href="#NotoSans-Regular-42"/>
      <use xlink:href="#NotoSans-Regular-50" x="64.999985"/>
      <use xlink:href="#NotoSans-Regular-45" x="125.499969"/>
      <use xlink:href="#NotoSans-Regular-20" x="181.09996"/>
      <use xlink:href="#NotoSans-Regular-77" x="207.099945"/>
      <use xlink:href="#NotoSans-Regular-2f" x="285.699936"/>
      <use xlink:href="#NotoSans-Regular-6f" x="322.899933"/>
      <use xlink:href="#NotoSans-Regular-20" x="383.399918"/>
      <use xlink:href="#NotoSans-Regular-70" x="409.399902"/>
      <use xlink:href="#NotoSans-Regular-72" x="470.899887"/>
      <use xlink:href="#NotoSans-Regular-65" x="512.199875"/>
      <use xlink:href="#NotoSans-Regular-74" x="568.599869"/>
      <use xlink:href="#NotoSans-Regular-6f" x="604.69986"/>
      <use xlink:href="#NotoSans-Regular-6b" x="665.199844"/>
     </g>
    </g>
    <g id="patch_8">
     <path d="M 251.29375 271.04 
L 252.69375 271.04 
L 252.69375 261.24 
L 251.29375 261.24 
z
" style="fill: #f2cfc8"/>
    </g>
    <g id="patch_9">
     <path d="M 252.69375 271.04 
L 254.09375 271.04 
L 254.09375 261.24 
L 252.69375 261.24 
z
" style="fill: #f2cfc8"/>
    </g>
    <g id="patch_10">
     <path d="M 254.09375 271.04 
L 255.49375 271.04 
L 255.49375 261.24 
L 254.09375 261.24 
z
" style="fill: #f2cfc8"/>
    </g>
    <g id="patch_11">
     <path d="M 255.49375 271.04 
L 256.89375 271.04 
L 256.89375 261.24 
L 255.49375 261.24 
z
" style="fill: #ebb5b3"/>
    </g>
    <g id="patch_12">
     <path d="M 256.89375 271.04 
L 258.29375 271.04 
L 258.29375 261.24 
L 256.89375 261.24 
z
" style="fill: #ebb5b3"/>
    </g>
    <g id="patch_13">
     <path d="M 258.29375 271.04 
L 259.69375 271.04 
L 259.69375 261.24 
L 258.29375 261.24 
z
" style="fill: #e09ca2"/>
    </g>
    <g id="patch_14">
     <path d="M 259.69375 271.04 
L 261.09375 271.04 
L 261.09375 261.24 
L 259.69375 261.24 
z
" style="fill: #e09ca2"/>
    </g>
    <g id="patch_15">
     <path d="M 261.09375 271.04 
L 262.49375 271.04 
L 262.49375 261.24 
L 261.09375 261.24 
z
" style="fill: #d38395"/>
    </g>
    <g id="patch_16">
     <path d="M 262.49375 271.04 
L 263.89375 271.04 
L 263.89375 261.24 
L 262.49375 261.24 
z
" style="fill: #d38395"/>
    </g>
    <g id="patch_17">
     <path d="M 263.89375 271.04 
L 265.29375 271.04 
L 265.29375 261.24 
L 263.89375 261.24 
z
" style="fill: #c16c8a"/>
    </g>
    <g id="patch_18">
     <path d="M 265.29375 271.04 
L 266.69375 271.04 
L 266.69375 261.24 
L 265.29375 261.24 
z
" style="fill: #c16c8a"/>
    </g>
    <g id="patch_19">
     <path d="M 266.69375 271.04 
L 268.09375 271.04 
L 268.09375 261.24 
L 266.69375 261.24 
z
" style="fill: #ad5880"/>
    </g>
    <g id="patch_20">
     <path d="M 268.09375 271.04 
L 269.49375 271.04 
L 269.49375 261.24 
L 268.09375 261.24 
z
" style="fill: #ad5880"/>
    </g>
    <g id="patch_21">
     <path d="M 269.49375 271.04 
L 270.89375 271.04 
L 270.89375 261.24 
L 269.49375 261.24 
z
" style="fill: #944574"/>
    </g>
    <g id="patch_22">
     <path d="M 270.89375 271.04 
L 272.29375 271.04 
L 272.29375 261.24 
L 270.89375 261.24 
z
" style="fill: #944574"/>
    </g>
    <g id="patch_23">
     <path d="M 272.29375 271.04 
L 273.69375 271.04 
L 273.69375 261.24 
L 272.29375 261.24 
z
" style="fill: #783465"/>
    </g>
    <g id="patch_24">
     <path d="M 273.69375 271.04 
L 275.09375 271.04 
L 275.09375 261.24 
L 273.69375 261.24 
z
" style="fill: #783465"/>
    </g>
    <g id="patch_25">
     <path d="M 275.09375 271.04 
L 276.49375 271.04 
L 276.49375 261.24 
L 275.09375 261.24 
z
" style="fill: #592653"/>
    </g>
    <g id="patch_26">
     <path d="M 276.49375 271.04 
L 277.89375 271.04 
L 277.89375 261.24 
L 276.49375 261.24 
z
" style="fill: #592653"/>
    </g>
    <g id="patch_27">
     <path d="M 277.89375 271.04 
L 279.29375 271.04 
L 279.29375 261.24 
L 277.89375 261.24 
z
" style="fill: #592653"/>
    </g>
    <g id="text_21">
     <!-- SuperBPE -->
     <g style="fill: #333333" transform="translate(290.49375 271.04) scale(0.14 -0.14)">
      <defs>
       <path id="NotoSans-Regular-53" d="M 3213 1222 
Q 3213 813 3014 528 
Q 2816 243 2448 89 
Q 2080 -64 1581 -64 
Q 1325 -64 1091 -38 
Q 858 -13 666 35 
Q 474 83 326 154 
L 326 704 
Q 557 602 899 518 
Q 1242 435 1606 435 
Q 1946 435 2176 524 
Q 2406 614 2521 780 
Q 2637 947 2637 1171 
Q 2637 1395 2541 1548 
Q 2445 1702 2211 1833 
Q 1978 1965 1562 2112 
Q 1267 2221 1046 2345 
Q 826 2470 678 2630 
Q 531 2790 457 2995 
Q 384 3200 384 3469 
Q 384 3834 569 4093 
Q 755 4352 1084 4493 
Q 1414 4634 1843 4634 
Q 2221 4634 2534 4563 
Q 2848 4493 3104 4378 
L 2925 3885 
Q 2688 3987 2409 4057 
Q 2131 4128 1830 4128 
Q 1542 4128 1350 4045 
Q 1158 3962 1062 3811 
Q 966 3661 966 3462 
Q 966 3232 1062 3078 
Q 1158 2925 1376 2803 
Q 1594 2682 1965 2541 
Q 2368 2394 2646 2224 
Q 2925 2054 3069 1817 
Q 3213 1581 3213 1222 
z
" transform="scale(0.015625)"/>
      </defs>
      <use xlink:href="#NotoSans-Regular-53"/>
      <use xlink:href="#NotoSans-Regular-75" x="54.899994"/>
      <use xlink:href="#NotoSans-Regular-70" x="116.699982"/>
      <use xlink:href="#NotoSans-Regular-65" x="178.199966"/>
      <use xlink:href="#NotoSans-Regular-72" x="234.59996"/>
      <use xlink:href="#NotoSans-Regular-42" x="275.899948"/>
      <use xlink:href="#NotoSans-Regular-50" x="340.899933"/>
      <use xlink:href="#NotoSans-Regular-45" x="401.399918"/>
     </g>
    </g>
    <g id="line2d_31">
     <path d="M 251.29375 287.14 
L 265.29375 287.14 
L 279.29375 287.14 
" style="fill: none; stroke-dasharray: 2,3.3; stroke-dashoffset: 0; stroke: #7f7f7f; stroke-opacity: 0.8; stroke-width: 2"/>
    </g>
    <g id="text_22">
     <!-- BPE upper bound -->
     <g style="fill: #333333" transform="translate(290.49375 292.04) scale(0.14 -0.14)">
      <defs>
       <path id="NotoSans-Regular-64" d="M 1760 -64 
Q 1120 -64 736 381 
Q 352 826 352 1709 
Q 352 2592 739 3043 
Q 1126 3494 1766 3494 
Q 2035 3494 2233 3427 
Q 2432 3360 2579 3245 
Q 2726 3130 2829 2989 
L 2867 2989 
Q 2861 3072 2845 3235 
Q 2829 3398 2829 3494 
L 2829 4864 
L 3392 4864 
L 3392 0 
L 2938 0 
L 2854 461 
L 2829 461 
Q 2726 314 2579 195 
Q 2432 77 2230 6 
Q 2029 -64 1760 -64 
z
M 1850 403 
Q 2394 403 2614 700 
Q 2835 998 2835 1600 
L 2835 1702 
Q 2835 2342 2624 2684 
Q 2413 3027 1843 3027 
Q 1389 3027 1161 2665 
Q 934 2304 934 1696 
Q 934 1082 1161 742 
Q 1389 403 1850 403 
z
" transform="scale(0.015625)"/>
      </defs>
      <use xlink:href="#NotoSans-Regular-42"/>
      <use xlink:href="#NotoSans-Regular-50" x="64.999985"/>
      <use xlink:href="#NotoSans-Regular-45" x="125.499969"/>
      <use xlink:href="#NotoSans-Regular-20" x="181.09996"/>
      <use xlink:href="#NotoSans-Regular-75" x="207.099945"/>
      <use xlink:href="#NotoSans-Regular-70" x="268.899933"/>
      <use xlink:href="#NotoSans-Regular-70" x="330.399918"/>
      <use xlink:href="#NotoSans-Regular-65" x="391.899902"/>
      <use xlink:href="#NotoSans-Regular-72" x="448.299896"/>
      <use xlink:href="#NotoSans-Regular-20" x="489.599884"/>
      <use xlink:href="#NotoSans-Regular-62" x="515.599869"/>
      <use xlink:href="#NotoSans-Regular-6f" x="577.099854"/>
      <use xlink:href="#NotoSans-Regular-75" x="637.599838"/>
      <use xlink:href="#NotoSans-Regular-6e" x="699.399826"/>
      <use xlink:href="#NotoSans-Regular-64" x="761.199814"/>
     </g>
    </g>
   </g>
  </g>
 </g>
 <defs>
  <clipPath id="p6b698b36df">
   <rect x="33.19" y="1.4" width="385.08" height="306.6"/>
  </clipPath>
 </defs>
</svg>
